SofiaSans-Light.ufo
<glyph name="exclam" format="2">
  <advance width="196"/>
  <unicode hex="0021"/>
  <outline>
    <contour>
      <point x="94" y="160" type="curve" smooth="yes"/>
      <point x="103" y="160" type="line" smooth="yes"/>
      <point x="105" y="160"/>
      <point x="106" y="161"/>
      <point x="106" y="163" type="curve" smooth="yes"/>
      <point x="107" y="652" type="line" smooth="yes"/>
      <point x="107" y="654"/>
      <point x="106" y="655"/>
      <point x="104" y="655" type="curve" smooth="yes"/>
      <point x="93" y="655" type="line" smooth="yes"/>
      <point x="91" y="655"/>
      <point x="90" y="654"/>
      <point x="90" y="652" type="curve" smooth="yes"/>
      <point x="91" y="163" type="line" smooth="yes"/>
      <point x="91" y="161"/>
      <point x="92" y="160"/>
    </contour>
    <contour>
      <point x="98" y="-12" type="curve" smooth="yes"/>
      <point x="108" y="-12"/>
      <point x="116" y="-5"/>
      <point x="116" y="6" type="curve" smooth="yes"/>
      <point x="116" y="12" type="line" smooth="yes"/>
      <point x="116" y="22"/>
      <point x="108" y="29"/>
      <point x="98" y="29" type="curve" smooth="yes"/>
      <point x="88" y="29"/>
      <point x="80" y="22"/>
      <point x="80" y="12" type="curve" smooth="yes"/>
      <point x="80" y="6" type="line" smooth="yes"/>
      <point x="80" y="-5"/>
      <point x="88" y="-12"/>
    </contour>
  </outline>
</glyph>
<glyph name="quotedbl" format="2">
  <advance width="295"/>
  <unicode hex="0022"/>
  <outline>
    <contour>
      <point x="216" y="429" type="curve" smooth="yes"/>
      <point x="226" y="429" type="line" smooth="yes"/>
      <point x="228" y="429"/>
      <point x="229" y="430"/>
      <point x="229" y="432" type="curve" smooth="yes"/>
      <point x="229" y="680" type="line" smooth="yes"/>
      <point x="229" y="682"/>
      <point x="228" y="683"/>
      <point x="226" y="683" type="curve" smooth="yes"/>
      <point x="216" y="683" type="line" smooth="yes"/>
      <point x="214" y="683"/>
      <point x="213" y="682"/>
      <point x="213" y="680" type="curve" smooth="yes"/>
      <point x="213" y="432" type="line" smooth="yes"/>
      <point x="213" y="430"/>
      <point x="214" y="429"/>
    </contour>
    <contour>
      <point x="69" y="429" type="curve" smooth="yes"/>
      <point x="79" y="429" type="line" smooth="yes"/>
      <point x="81" y="429"/>
      <point x="82" y="430"/>
      <point x="82" y="432" type="curve" smooth="yes"/>
      <point x="82" y="680" type="line" smooth="yes"/>
      <point x="82" y="682"/>
      <point x="81" y="683"/>
      <point x="79" y="683" type="curve" smooth="yes"/>
      <point x="69" y="683" type="line" smooth="yes"/>
      <point x="67" y="683"/>
      <point x="66" y="682"/>
      <point x="66" y="680" type="curve" smooth="yes"/>
      <point x="66" y="432" type="line" smooth="yes"/>
      <point x="66" y="430"/>
      <point x="67" y="429"/>
    </contour>
  </outline>
</glyph>
<glyph name="numbersign" format="2">
  <advance width="569"/>
  <unicode hex="0023"/>
  <outline>
    <contour>
      <point x="140" y="0" type="curve" smooth="yes"/>
      <point x="150" y="0" type="line" smooth="yes"/>
      <point x="152" y="0"/>
      <point x="153" y="1"/>
      <point x="153" y="3" type="curve" smooth="yes"/>
      <point x="153" y="135" type="line"/>
      <point x="416" y="135" type="line"/>
      <point x="416" y="3" type="line" smooth="yes"/>
      <point x="416" y="1"/>
      <point x="417" y="0"/>
      <point x="419" y="0" type="curve" smooth="yes"/>
      <point x="429" y="0" type="line" smooth="yes"/>
      <point x="431" y="0"/>
      <point x="432" y="1"/>
      <point x="432" y="3" type="curve" smooth="yes"/>
      <point x="432" y="135" type="line"/>
      <point x="524" y="135" type="line" smooth="yes"/>
      <point x="526" y="135"/>
      <point x="527" y="136"/>
      <point x="527" y="138" type="curve" smooth="yes"/>
      <point x="527" y="148" type="line" smooth="yes"/>
      <point x="527" y="150"/>
      <point x="526" y="151"/>
      <point x="524" y="151" type="curve" smooth="yes"/>
      <point x="432" y="151" type="line"/>
      <point x="432" y="462" type="line"/>
      <point x="524" y="462" type="line" smooth="yes"/>
      <point x="526" y="462"/>
      <point x="527" y="463"/>
      <point x="527" y="465" type="curve" smooth="yes"/>
      <point x="527" y="475" type="line" smooth="yes"/>
      <point x="527" y="477"/>
      <point x="526" y="478"/>
      <point x="524" y="478" type="curve" smooth="yes"/>
      <point x="432" y="478" type="line"/>
      <point x="432" y="610" type="line" smooth="yes"/>
      <point x="432" y="612"/>
      <point x="431" y="613"/>
      <point x="429" y="613" type="curve" smooth="yes"/>
      <point x="419" y="613" type="line" smooth="yes"/>
      <point x="417" y="613"/>
      <point x="416" y="612"/>
      <point x="416" y="610" type="curve" smooth="yes"/>
      <point x="416" y="478" type="line"/>
      <point x="153" y="478" type="line"/>
      <point x="153" y="610" type="line" smooth="yes"/>
      <point x="153" y="612"/>
      <point x="152" y="613"/>
      <point x="150" y="613" type="curve" smooth="yes"/>
      <point x="140" y="613" type="line" smooth="yes"/>
      <point x="138" y="613"/>
      <point x="137" y="612"/>
      <point x="137" y="610" type="curve" smooth="yes"/>
      <point x="137" y="478" type="line"/>
      <point x="45" y="478" type="line" smooth="yes"/>
      <point x="43" y="478"/>
      <point x="42" y="477"/>
      <point x="42" y="475" type="curve" smooth="yes"/>
      <point x="42" y="465" type="line" smooth="yes"/>
      <point x="42" y="463"/>
      <point x="43" y="462"/>
      <point x="45" y="462" type="curve" smooth="yes"/>
      <point x="137" y="462" type="line"/>
      <point x="137" y="151" type="line"/>
      <point x="45" y="151" type="line" smooth="yes"/>
      <point x="43" y="151"/>
      <point x="42" y="150"/>
      <point x="42" y="148" type="curve" smooth="yes"/>
      <point x="42" y="138" type="line" smooth="yes"/>
      <point x="42" y="136"/>
      <point x="43" y="135"/>
      <point x="45" y="135" type="curve" smooth="yes"/>
      <point x="137" y="135" type="line"/>
      <point x="137" y="3" type="line" smooth="yes"/>
      <point x="137" y="1"/>
      <point x="138" y="0"/>
    </contour>
    <contour>
      <point x="153" y="151" type="line"/>
      <point x="153" y="462" type="line"/>
      <point x="416" y="462" type="line"/>
      <point x="416" y="151" type="line"/>
    </contour>
  </outline>
</glyph>
<glyph name="dollar" format="2">
  <advance width="600"/>
  <unicode hex="0024"/>
  <outline>
    <contour>
      <point x="298" y="-12" type="curve" smooth="yes"/>
      <point x="435" y="-12"/>
      <point x="487" y="44"/>
      <point x="487" y="142" type="curve" smooth="yes"/>
      <point x="487" y="232"/>
      <point x="452" y="275"/>
      <point x="352" y="325" type="curve" smooth="yes"/>
      <point x="250" y="376" type="line" smooth="yes"/>
      <point x="172" y="415"/>
      <point x="142" y="453"/>
      <point x="142" y="527" type="curve" smooth="yes"/>
      <point x="142" y="603"/>
      <point x="203" y="651"/>
      <point x="301" y="651" type="curve" smooth="yes"/>
      <point x="416" y="651"/>
      <point x="462" y="596"/>
      <point x="462" y="492" type="curve" smooth="yes"/>
      <point x="462" y="490"/>
      <point x="463" y="489"/>
      <point x="465" y="489" type="curve" smooth="yes"/>
      <point x="475" y="489" type="line" smooth="yes"/>
      <point x="477" y="489"/>
      <point x="478" y="490"/>
      <point x="478" y="492" type="curve" smooth="yes"/>
      <point x="478" y="607"/>
      <point x="427" y="667"/>
      <point x="300" y="667" type="curve" smooth="yes"/>
      <point x="192" y="667"/>
      <point x="126" y="613"/>
      <point x="126" y="527" type="curve" smooth="yes"/>
      <point x="126" y="447"/>
      <point x="158" y="404"/>
      <point x="242" y="362" type="curve" smooth="yes"/>
      <point x="342" y="312" type="line" smooth="yes"/>
      <point x="432" y="267"/>
      <point x="471" y="228"/>
      <point x="471" y="142" type="curve" smooth="yes"/>
      <point x="471" y="53"/>
      <point x="424" y="4"/>
      <point x="298" y="4" type="curve" smooth="yes"/>
      <point x="175" y="4"/>
      <point x="130" y="55"/>
      <point x="130" y="167" type="curve" smooth="yes"/>
      <point x="130" y="169"/>
      <point x="129" y="170"/>
      <point x="127" y="170" type="curve" smooth="yes"/>
      <point x="117" y="170" type="line" smooth="yes"/>
      <point x="115" y="170"/>
      <point x="114" y="169"/>
      <point x="114" y="167" type="curve" smooth="yes"/>
      <point x="114" y="43"/>
      <point x="162" y="-12"/>
    </contour>
    <contour>
      <point x="300" y="-89" type="curve" smooth="yes"/>
      <point x="310" y="-89" type="line" smooth="yes"/>
      <point x="312" y="-89"/>
      <point x="313" y="-88"/>
      <point x="313" y="-86" type="curve" smooth="yes"/>
      <point x="313" y="-4" type="line"/>
      <point x="297" y="-4" type="line"/>
      <point x="297" y="-86" type="line" smooth="yes"/>
      <point x="297" y="-88"/>
      <point x="298" y="-89"/>
    </contour>
    <contour>
      <point x="297" y="659" type="line"/>
      <point x="313" y="659" type="line"/>
      <point x="313" y="739" type="line" smooth="yes"/>
      <point x="313" y="741"/>
      <point x="312" y="742"/>
      <point x="310" y="742" type="curve" smooth="yes"/>
      <point x="300" y="742" type="line" smooth="yes"/>
      <point x="298" y="742"/>
      <point x="297" y="741"/>
      <point x="297" y="739" type="curve" smooth="yes"/>
    </contour>
  </outline>
</glyph>
<glyph name="percent" format="2">
  <advance width="910"/>
  <unicode hex="0025"/>
  <outline>
    <contour>
      <point x="259" y="0" type="curve" smooth="yes"/>
      <point x="270" y="0" type="line" smooth="yes"/>
      <point x="272" y="0"/>
      <point x="273" y="0"/>
      <point x="274" y="2" type="curve" smooth="yes"/>
      <point x="466" y="330" type="line"/>
      <point x="654" y="652" type="line" smooth="yes"/>
      <point x="655" y="654"/>
      <point x="653" y="655"/>
      <point x="651" y="655" type="curve" smooth="yes"/>
      <point x="640" y="655" type="line" smooth="yes"/>
      <point x="638" y="655"/>
      <point x="637" y="654"/>
      <point x="636" y="653" type="curve" smooth="yes"/>
      <point x="449" y="333" type="line"/>
      <point x="256" y="3" type="line" smooth="yes"/>
      <point x="255" y="1"/>
      <point x="257" y="0"/>
    </contour>
    <contour>
      <point x="228" y="317" type="curve" smooth="yes"/>
      <point x="321" y="317"/>
      <point x="378" y="374"/>
      <point x="378" y="471" type="curve" smooth="yes"/>
      <point x="378" y="513" type="line" smooth="yes"/>
      <point x="378" y="610"/>
      <point x="321" y="667"/>
      <point x="228" y="667" type="curve" smooth="yes"/>
      <point x="135" y="667"/>
      <point x="78" y="610"/>
      <point x="78" y="513" type="curve" smooth="yes"/>
      <point x="78" y="471" type="line" smooth="yes"/>
      <point x="78" y="374"/>
      <point x="135" y="317"/>
    </contour>
    <contour>
      <point x="228" y="333" type="curve" smooth="yes"/>
      <point x="137" y="333"/>
      <point x="94" y="388"/>
      <point x="94" y="475" type="curve" smooth="yes"/>
      <point x="94" y="509" type="line" smooth="yes"/>
      <point x="94" y="596"/>
      <point x="137" y="651"/>
      <point x="228" y="651" type="curve" smooth="yes"/>
      <point x="318" y="651"/>
      <point x="362" y="596"/>
      <point x="362" y="509" type="curve" smooth="yes"/>
      <point x="362" y="475" type="line" smooth="yes"/>
      <point x="362" y="388"/>
      <point x="318" y="333"/>
    </contour>
    <contour>
      <point x="682" y="-12" type="curve" smooth="yes"/>
      <point x="775" y="-12"/>
      <point x="832" y="45"/>
      <point x="832" y="142" type="curve" smooth="yes"/>
      <point x="832" y="184" type="line" smooth="yes"/>
      <point x="832" y="281"/>
      <point x="775" y="338"/>
      <point x="682" y="338" type="curve" smooth="yes"/>
      <point x="589" y="338"/>
      <point x="532" y="281"/>
      <point x="532" y="184" type="curve" smooth="yes"/>
      <point x="532" y="142" type="line" smooth="yes"/>
      <point x="532" y="45"/>
      <point x="589" y="-12"/>
    </contour>
    <contour>
      <point x="682" y="4" type="curve" smooth="yes"/>
      <point x="592" y="4"/>
      <point x="548" y="59"/>
      <point x="548" y="146" type="curve" smooth="yes"/>
      <point x="548" y="180" type="line" smooth="yes"/>
      <point x="548" y="267"/>
      <point x="592" y="322"/>
      <point x="682" y="322" type="curve" smooth="yes"/>
      <point x="773" y="322"/>
      <point x="816" y="267"/>
      <point x="816" y="180" type="curve" smooth="yes"/>
      <point x="816" y="146" type="line" smooth="yes"/>
      <point x="816" y="59"/>
      <point x="773" y="4"/>
    </contour>
  </outline>
</glyph>
<glyph name="ampersand" format="2">
  <advance width="616"/>
  <unicode hex="0026"/>
  <outline>
    <contour>
      <point x="578" y="0" type="curve" smooth="yes"/>
      <point x="593" y="0" type="line" smooth="yes"/>
      <point x="595" y="0"/>
      <point x="596" y="2"/>
      <point x="594" y="4" type="curve" smooth="yes"/>
      <point x="214" y="382" type="line" smooth="yes"/>
      <point x="151" y="445"/>
      <point x="126" y="491"/>
      <point x="126" y="542" type="curve" smooth="yes"/>
      <point x="126" y="611"/>
      <point x="167" y="651"/>
      <point x="240" y="651" type="curve" smooth="yes"/>
      <point x="302" y="651"/>
      <point x="347" y="612"/>
      <point x="347" y="555" type="curve" smooth="yes"/>
      <point x="347" y="463"/>
      <point x="280" y="422"/>
      <point x="215" y="369" type="curve"/>
      <point x="225" y="357" type="line"/>
      <point x="304" y="421"/>
      <point x="363" y="461"/>
      <point x="363" y="555" type="curve" smooth="yes"/>
      <point x="363" y="623"/>
      <point x="312" y="667"/>
      <point x="240" y="667" type="curve" smooth="yes"/>
      <point x="157" y="667"/>
      <point x="110" y="621"/>
      <point x="110" y="540" type="curve" smooth="yes"/>
      <point x="110" y="485"/>
      <point x="135" y="436"/>
      <point x="197" y="375" type="curve" smooth="yes"/>
      <point x="573" y="2" type="line" smooth="yes"/>
      <point x="575" y="0"/>
      <point x="576" y="0"/>
    </contour>
    <contour>
      <point x="262" y="-12" type="curve" smooth="yes"/>
      <point x="441" y="-12"/>
      <point x="544" y="105"/>
      <point x="544" y="333" type="curve" smooth="yes"/>
      <point x="544" y="335"/>
      <point x="543" y="336"/>
      <point x="541" y="336" type="curve" smooth="yes"/>
      <point x="531" y="336" type="line" smooth="yes"/>
      <point x="529" y="336"/>
      <point x="528" y="335"/>
      <point x="528" y="333" type="curve" smooth="yes"/>
      <point x="528" y="116"/>
      <point x="433" y="4"/>
      <point x="262" y="4" type="curve" smooth="yes"/>
      <point x="157" y="4"/>
      <point x="88" y="59"/>
      <point x="88" y="142" type="curve" smooth="yes"/>
      <point x="88" y="216"/>
      <point x="125" y="278"/>
      <point x="224" y="356" type="curve"/>
      <point x="212" y="367" type="line"/>
      <point x="107" y="281"/>
      <point x="72" y="220"/>
      <point x="72" y="141" type="curve" smooth="yes"/>
      <point x="72" y="46"/>
      <point x="144" y="-12"/>
    </contour>
  </outline>
</glyph>
<glyph name="quotesingle" format="2">
  <advance width="148"/>
  <unicode hex="0027"/>
  <outline>
    <contour>
      <point x="69" y="429" type="curve" smooth="yes"/>
      <point x="79" y="429" type="line" smooth="yes"/>
      <point x="81" y="429"/>
      <point x="82" y="430"/>
      <point x="82" y="432" type="curve" smooth="yes"/>
      <point x="82" y="680" type="line" smooth="yes"/>
      <point x="82" y="682"/>
      <point x="81" y="683"/>
      <point x="79" y="683" type="curve" smooth="yes"/>
      <point x="69" y="683" type="line" smooth="yes"/>
      <point x="67" y="683"/>
      <point x="66" y="682"/>
      <point x="66" y="680" type="curve" smooth="yes"/>
      <point x="66" y="432" type="line" smooth="yes"/>
      <point x="66" y="430"/>
      <point x="67" y="429"/>
    </contour>
  </outline>
</glyph>
<glyph name="parenleft" format="2">
  <advance width="258"/>
  <unicode hex="0028"/>
  <outline>
    <contour>
      <point x="186" y="-141" type="curve" smooth="yes"/>
      <point x="187" y="-142"/>
      <point x="189" y="-142"/>
      <point x="190" y="-141" type="curve" smooth="yes"/>
      <point x="197" y="-132" type="line" smooth="yes"/>
      <point x="198" y="-131"/>
      <point x="198" y="-129"/>
      <point x="197" y="-128" type="curve" smooth="yes"/>
      <point x="151" y="-82"/>
      <point x="111" y="-49"/>
      <point x="111" y="35" type="curve" smooth="yes"/>
      <point x="111" y="520" type="line" smooth="yes"/>
      <point x="111" y="604"/>
      <point x="147" y="641"/>
      <point x="197" y="683" type="curve" smooth="yes"/>
      <point x="198" y="684"/>
      <point x="198" y="686"/>
      <point x="197" y="687" type="curve" smooth="yes"/>
      <point x="190" y="696" type="line" smooth="yes"/>
      <point x="189" y="697"/>
      <point x="187" y="697"/>
      <point x="186" y="696" type="curve" smooth="yes"/>
      <point x="130" y="644"/>
      <point x="95" y="608"/>
      <point x="95" y="521" type="curve" smooth="yes"/>
      <point x="95" y="34" type="line" smooth="yes"/>
      <point x="95" y="-53"/>
      <point x="132" y="-87"/>
    </contour>
  </outline>
</glyph>
<glyph name="parenright" format="2">
  <advance width="258"/>
  <unicode hex="0029"/>
  <outline>
    <contour>
      <point x="68" y="-141" type="line" smooth="yes"/>
      <point x="69" y="-142"/>
      <point x="71" y="-142"/>
      <point x="72" y="-141" type="curve" smooth="yes"/>
      <point x="126" y="-87"/>
      <point x="163" y="-53"/>
      <point x="163" y="34" type="curve" smooth="yes"/>
      <point x="163" y="521" type="line" smooth="yes"/>
      <point x="163" y="608"/>
      <point x="126" y="642"/>
      <point x="72" y="696" type="curve" smooth="yes"/>
      <point x="71" y="697"/>
      <point x="69" y="697"/>
      <point x="68" y="696" type="curve" smooth="yes"/>
      <point x="61" y="687" type="line" smooth="yes"/>
      <point x="60" y="686"/>
      <point x="60" y="684"/>
      <point x="61" y="683" type="curve" smooth="yes"/>
      <point x="107" y="637"/>
      <point x="147" y="604"/>
      <point x="147" y="520" type="curve" smooth="yes"/>
      <point x="147" y="35" type="line" smooth="yes"/>
      <point x="147" y="-49"/>
      <point x="107" y="-82"/>
      <point x="61" y="-128" type="curve" smooth="yes"/>
      <point x="60" y="-129"/>
      <point x="60" y="-131"/>
      <point x="61" y="-132" type="curve" smooth="yes"/>
    </contour>
  </outline>
</glyph>
<glyph name="asterisk" format="2">
  <advance width="425"/>
  <unicode hex="002A"/>
  <outline>
    <contour>
      <point x="131" y="428" type="line" smooth="yes"/>
      <point x="134" y="426"/>
      <point x="133" y="428"/>
      <point x="135" y="429" type="curve" smooth="yes"/>
      <point x="212" y="539" type="line"/>
      <point x="290" y="429" type="line" smooth="yes"/>
      <point x="292" y="427"/>
      <point x="291" y="426"/>
      <point x="294" y="428" type="curve" smooth="yes"/>
      <point x="304" y="436" type="line" smooth="yes"/>
      <point x="306" y="437"/>
      <point x="305" y="439"/>
      <point x="304" y="440" type="curve" smooth="yes"/>
      <point x="220" y="546" type="line"/>
      <point x="348" y="590" type="line" smooth="yes"/>
      <point x="350" y="591"/>
      <point x="350" y="592"/>
      <point x="350" y="594" type="curve" smooth="yes"/>
      <point x="347" y="604" type="line" smooth="yes"/>
      <point x="346" y="606"/>
      <point x="345" y="606"/>
      <point x="343" y="606" type="curve" smooth="yes"/>
      <point x="218" y="556" type="line"/>
      <point x="220" y="692" type="line" smooth="yes"/>
      <point x="220" y="694"/>
      <point x="219" y="695"/>
      <point x="217" y="695" type="curve" smooth="yes"/>
      <point x="207" y="695" type="line" smooth="yes"/>
      <point x="205" y="695"/>
      <point x="204" y="694"/>
      <point x="204" y="692" type="curve" smooth="yes"/>
      <point x="206" y="556" type="line"/>
      <point x="82" y="606" type="line" smooth="yes"/>
      <point x="80" y="607"/>
      <point x="78" y="606"/>
      <point x="78" y="604" type="curve" smooth="yes"/>
      <point x="75" y="594" type="line" smooth="yes"/>
      <point x="74" y="592"/>
      <point x="76" y="591"/>
      <point x="77" y="590" type="curve" smooth="yes"/>
      <point x="204" y="546" type="line"/>
      <point x="121" y="440" type="line" smooth="yes"/>
      <point x="120" y="438"/>
      <point x="120" y="438"/>
      <point x="121" y="436" type="curve" smooth="yes"/>
    </contour>
  </outline>
</glyph>
<glyph name="plus" format="2">
  <advance width="600"/>
  <unicode hex="002B"/>
  <outline>
    <contour>
      <point x="295" y="125" type="curve" smooth="yes"/>
      <point x="305" y="125" type="line" smooth="yes"/>
      <point x="307" y="125"/>
      <point x="308" y="126"/>
      <point x="308" y="128" type="curve" smooth="yes"/>
      <point x="308" y="293" type="line"/>
      <point x="487" y="293" type="line" smooth="yes"/>
      <point x="489" y="293"/>
      <point x="490" y="294"/>
      <point x="490" y="296" type="curve" smooth="yes"/>
      <point x="490" y="306" type="line" smooth="yes"/>
      <point x="490" y="308"/>
      <point x="489" y="309"/>
      <point x="487" y="309" type="curve" smooth="yes"/>
      <point x="308" y="309" type="line"/>
      <point x="308" y="474" type="line" smooth="yes"/>
      <point x="308" y="476"/>
      <point x="307" y="477"/>
      <point x="305" y="477" type="curve" smooth="yes"/>
      <point x="295" y="477" type="line" smooth="yes"/>
      <point x="293" y="477"/>
      <point x="292" y="476"/>
      <point x="292" y="474" type="curve" smooth="yes"/>
      <point x="292" y="309" type="line"/>
      <point x="113" y="309" type="line" smooth="yes"/>
      <point x="111" y="309"/>
      <point x="110" y="308"/>
      <point x="110" y="306" type="curve" smooth="yes"/>
      <point x="110" y="296" type="line" smooth="yes"/>
      <point x="110" y="294"/>
      <point x="111" y="293"/>
      <point x="113" y="293" type="curve" smooth="yes"/>
      <point x="292" y="293" type="line"/>
      <point x="292" y="128" type="line" smooth="yes"/>
      <point x="292" y="126"/>
      <point x="293" y="125"/>
    </contour>
  </outline>
</glyph>
<glyph name="comma" format="2">
  <advance width="202"/>
  <unicode hex="002C"/>
  <outline>
    <contour>
      <point x="54" y="-147" type="curve" smooth="yes"/>
      <point x="62" y="-147" type="line" smooth="yes"/>
      <point x="64" y="-147"/>
      <point x="65" y="-147"/>
      <point x="66" y="-144" type="curve" smooth="yes"/>
      <point x="133" y="82" type="line" smooth="yes"/>
      <point x="134" y="85"/>
      <point x="133" y="87"/>
      <point x="130" y="87" type="curve" smooth="yes"/>
      <point x="119" y="87" type="line" smooth="yes"/>
      <point x="116" y="87"/>
      <point x="115" y="86"/>
      <point x="114" y="83" type="curve" smooth="yes"/>
      <point x="52" y="-142" type="line" smooth="yes"/>
      <point x="51" y="-146"/>
      <point x="52" y="-147"/>
    </contour>
  </outline>
</glyph>
<glyph name="hyphen" format="2">
  <advance width="486"/>
  <unicode hex="002D"/>
  <outline>
    <contour>
      <point x="89" y="258" type="curve" smooth="yes"/>
      <point x="397" y="258" type="line" smooth="yes"/>
      <point x="399" y="258"/>
      <point x="400" y="259"/>
      <point x="400" y="261" type="curve" smooth="yes"/>
      <point x="400" y="271" type="line" smooth="yes"/>
      <point x="400" y="273"/>
      <point x="399" y="274"/>
      <point x="397" y="274" type="curve" smooth="yes"/>
      <point x="89" y="274" type="line" smooth="yes"/>
      <point x="87" y="274"/>
      <point x="86" y="273"/>
      <point x="86" y="271" type="curve" smooth="yes"/>
      <point x="86" y="261" type="line" smooth="yes"/>
      <point x="86" y="259"/>
      <point x="87" y="258"/>
    </contour>
  </outline>
</glyph>
<glyph name="slash" format="2">
  <advance width="327"/>
  <unicode hex="002F"/>
  <outline>
    <contour>
      <point x="23" y="0" type="curve" smooth="yes"/>
      <point x="33" y="0" type="line" smooth="yes"/>
      <point x="35" y="0"/>
      <point x="36" y="1"/>
      <point x="37" y="2" type="curve" smooth="yes"/>
      <point x="307" y="652" type="line" smooth="yes"/>
      <point x="308" y="654"/>
      <point x="306" y="655"/>
      <point x="304" y="655" type="curve" smooth="yes"/>
      <point x="294" y="655" type="line" smooth="yes"/>
      <point x="292" y="655"/>
      <point x="291" y="655"/>
      <point x="290" y="653" type="curve" smooth="yes"/>
      <point x="20" y="3" type="line" smooth="yes"/>
      <point x="19" y="1"/>
      <point x="21" y="0"/>
    </contour>
  </outline>
</glyph>
<glyph name="zero" format="2">
  <advance width="570"/>
  <unicode hex="0030"/>
  <outline>
    <contour>
      <point x="285" y="-12" type="curve" smooth="yes"/>
      <point x="410" y="-12"/>
      <point x="488" y="58"/>
      <point x="488" y="193" type="curve" smooth="yes"/>
      <point x="488" y="462" type="line" smooth="yes"/>
      <point x="488" y="597"/>
      <point x="410" y="667"/>
      <point x="285" y="667" type="curve" smooth="yes"/>
      <point x="160" y="667"/>
      <point x="82" y="597"/>
      <point x="82" y="462" type="curve" smooth="yes"/>
      <point x="82" y="193" type="line" smooth="yes"/>
      <point x="82" y="58"/>
      <point x="160" y="-12"/>
    </contour>
    <contour>
      <point x="285" y="4" type="curve" smooth="yes"/>
      <point x="170" y="4"/>
      <point x="98" y="68"/>
      <point x="98" y="194" type="curve" smooth="yes"/>
      <point x="98" y="461" type="line" smooth="yes"/>
      <point x="98" y="587"/>
      <point x="170" y="651"/>
      <point x="285" y="651" type="curve" smooth="yes"/>
      <point x="400" y="651"/>
      <point x="472" y="587"/>
      <point x="472" y="461" type="curve" smooth="yes"/>
      <point x="472" y="194" type="line" smooth="yes"/>
      <point x="472" y="68"/>
      <point x="400" y="4"/>
    </contour>
  </outline>
</glyph>
<glyph name="one" format="2">
  <advance width="452"/>
  <unicode hex="0031"/>
  <outline>
    <contour>
      <point x="61" y="0" type="curve" smooth="yes"/>
      <point x="414" y="0" type="line" smooth="yes"/>
      <point x="416" y="0"/>
      <point x="417" y="1"/>
      <point x="417" y="3" type="curve" smooth="yes"/>
      <point x="417" y="13" type="line" smooth="yes"/>
      <point x="417" y="15"/>
      <point x="416" y="16"/>
      <point x="414" y="16" type="curve" smooth="yes"/>
      <point x="254" y="16" type="line"/>
      <point x="254" y="656" type="line" smooth="yes"/>
      <point x="254" y="658"/>
      <point x="253" y="659"/>
      <point x="251" y="659" type="curve" smooth="yes"/>
      <point x="249" y="659" type="line" smooth="yes"/>
      <point x="247" y="659"/>
      <point x="247" y="659"/>
      <point x="244" y="658" type="curve" smooth="yes"/>
      <point x="60" y="587" type="line" smooth="yes"/>
      <point x="58" y="586"/>
      <point x="58" y="585"/>
      <point x="58" y="583" type="curve" smooth="yes"/>
      <point x="58" y="573" type="line" smooth="yes"/>
      <point x="58" y="571"/>
      <point x="59" y="570"/>
      <point x="61" y="571" type="curve" smooth="yes"/>
      <point x="238" y="638" type="line"/>
      <point x="238" y="16" type="line"/>
      <point x="61" y="16" type="line" smooth="yes"/>
      <point x="59" y="16"/>
      <point x="58" y="15"/>
      <point x="58" y="13" type="curve" smooth="yes"/>
      <point x="58" y="3" type="line" smooth="yes"/>
      <point x="58" y="1"/>
      <point x="59" y="0"/>
    </contour>
  </outline>
</glyph>
<glyph name="two" format="2">
  <advance width="528"/>
  <unicode hex="0032"/>
  <outline>
    <contour>
      <point x="87" y="0" type="curve" smooth="yes"/>
      <point x="448" y="0" type="line" smooth="yes"/>
      <point x="450" y="0"/>
      <point x="451" y="1"/>
      <point x="451" y="3" type="curve" smooth="yes"/>
      <point x="451" y="13" type="line" smooth="yes"/>
      <point x="451" y="15"/>
      <point x="450" y="16"/>
      <point x="448" y="16" type="curve" smooth="yes"/>
      <point x="100" y="16" type="line"/>
      <point x="100" y="333"/>
      <point x="454" y="269"/>
      <point x="454" y="517" type="curve" smooth="yes"/>
      <point x="454" y="620"/>
      <point x="400" y="667"/>
      <point x="281" y="667" type="curve" smooth="yes"/>
      <point x="150" y="667"/>
      <point x="81" y="606"/>
      <point x="92" y="496" type="curve" smooth="yes"/>
      <point x="92" y="494"/>
      <point x="93" y="493"/>
      <point x="95" y="493" type="curve" smooth="yes"/>
      <point x="105" y="493" type="line" smooth="yes"/>
      <point x="107" y="493"/>
      <point x="108" y="494"/>
      <point x="108" y="496" type="curve" smooth="yes"/>
      <point x="97" y="598"/>
      <point x="159" y="651"/>
      <point x="282" y="651" type="curve" smooth="yes"/>
      <point x="391" y="651"/>
      <point x="438" y="610"/>
      <point x="438" y="520" type="curve" smooth="yes"/>
      <point x="438" y="510" type="line" smooth="yes"/>
      <point x="438" y="294"/>
      <point x="84" y="330"/>
      <point x="84" y="21" type="curve" smooth="yes"/>
      <point x="84" y="3" type="line" smooth="yes"/>
      <point x="84" y="1"/>
      <point x="85" y="0"/>
    </contour>
  </outline>
</glyph>
<glyph name="three" format="2">
  <advance width="551"/>
  <unicode hex="0033"/>
  <outline>
    <contour>
      <point x="270" y="-12" type="curve" smooth="yes"/>
      <point x="401" y="-12"/>
      <point x="473" y="51"/>
      <point x="473" y="173" type="curve" smooth="yes"/>
      <point x="473" y="271"/>
      <point x="425" y="321"/>
      <point x="335" y="337" type="curve"/>
      <point x="335" y="338" type="line"/>
      <point x="406" y="356"/>
      <point x="459" y="409"/>
      <point x="459" y="507" type="curve" smooth="yes"/>
      <point x="459" y="610"/>
      <point x="396" y="667"/>
      <point x="276" y="667" type="curve" smooth="yes"/>
      <point x="144" y="667"/>
      <point x="86" y="607"/>
      <point x="86" y="496" type="curve" smooth="yes"/>
      <point x="86" y="494"/>
      <point x="87" y="493"/>
      <point x="89" y="493" type="curve" smooth="yes"/>
      <point x="99" y="493" type="line" smooth="yes"/>
      <point x="101" y="493"/>
      <point x="102" y="494"/>
      <point x="102" y="496" type="curve" smooth="yes"/>
      <point x="102" y="597"/>
      <point x="152" y="651"/>
      <point x="277" y="651" type="curve" smooth="yes"/>
      <point x="389" y="651"/>
      <point x="443" y="597"/>
      <point x="443" y="511" type="curve" smooth="yes"/>
      <point x="443" y="501" type="line" smooth="yes"/>
      <point x="443" y="403"/>
      <point x="375" y="344"/>
      <point x="277" y="344" type="curve" smooth="yes"/>
      <point x="202" y="344" type="line" smooth="yes"/>
      <point x="200" y="344"/>
      <point x="199" y="343"/>
      <point x="199" y="341" type="curve" smooth="yes"/>
      <point x="199" y="331" type="line" smooth="yes"/>
      <point x="199" y="329"/>
      <point x="200" y="328"/>
      <point x="202" y="328" type="curve" smooth="yes"/>
      <point x="277" y="328" type="line" smooth="yes"/>
      <point x="398" y="328"/>
      <point x="457" y="277"/>
      <point x="457" y="174" type="curve" smooth="yes"/>
      <point x="457" y="163" type="line" smooth="yes"/>
      <point x="457" y="62"/>
      <point x="388" y="4"/>
      <point x="270" y="4" type="curve" smooth="yes"/>
      <point x="145" y="4"/>
      <point x="92" y="56"/>
      <point x="92" y="164" type="curve" smooth="yes"/>
      <point x="92" y="166"/>
      <point x="91" y="167"/>
      <point x="89" y="167" type="curve" smooth="yes"/>
      <point x="79" y="167" type="line" smooth="yes"/>
      <point x="77" y="167"/>
      <point x="76" y="166"/>
      <point x="76" y="164" type="curve" smooth="yes"/>
      <point x="76" y="45"/>
      <point x="135" y="-12"/>
    </contour>
  </outline>
</glyph>
<glyph name="four" format="2">
  <advance width="520"/>
  <unicode hex="0034"/>
  <outline>
    <contour>
      <point x="371" y="0" type="curve" smooth="yes"/>
      <point x="381" y="0" type="line" smooth="yes"/>
      <point x="383" y="0"/>
      <point x="384" y="1"/>
      <point x="384" y="3" type="curve" smooth="yes"/>
      <point x="384" y="149" type="line"/>
      <point x="487" y="149" type="line" smooth="yes"/>
      <point x="489" y="149"/>
      <point x="490" y="150"/>
      <point x="490" y="152" type="curve" smooth="yes"/>
      <point x="490" y="162" type="line" smooth="yes"/>
      <point x="490" y="164"/>
      <point x="489" y="165"/>
      <point x="487" y="165" type="curve" smooth="yes"/>
      <point x="384" y="165" type="line"/>
      <point x="384" y="415" type="line" smooth="yes"/>
      <point x="384" y="417"/>
      <point x="383" y="418"/>
      <point x="381" y="418" type="curve" smooth="yes"/>
      <point x="371" y="418" type="line" smooth="yes"/>
      <point x="369" y="418"/>
      <point x="368" y="417"/>
      <point x="368" y="415" type="curve" smooth="yes"/>
      <point x="368" y="165" type="line"/>
      <point x="45" y="165" type="line"/>
      <point x="318" y="651" type="line" smooth="yes"/>
      <point x="319" y="653"/>
      <point x="319" y="655"/>
      <point x="316" y="655" type="curve" smooth="yes"/>
      <point x="305" y="655" type="line" smooth="yes"/>
      <point x="303" y="655"/>
      <point x="302" y="655"/>
      <point x="301" y="653" type="curve" smooth="yes"/>
      <point x="23" y="160" type="line" smooth="yes"/>
      <point x="22" y="158"/>
      <point x="22" y="158"/>
      <point x="22" y="156" type="curve" smooth="yes"/>
      <point x="22" y="152" type="line" smooth="yes"/>
      <point x="22" y="150"/>
      <point x="23" y="149"/>
      <point x="25" y="149" type="curve" smooth="yes"/>
      <point x="368" y="149" type="line"/>
      <point x="368" y="3" type="line" smooth="yes"/>
      <point x="368" y="1"/>
      <point x="369" y="0"/>
    </contour>
  </outline>
</glyph>
<glyph name="five" format="2">
  <advance width="520"/>
  <unicode hex="0035"/>
  <outline>
    <contour>
      <point x="252" y="-12" type="curve" smooth="yes"/>
      <point x="373" y="-12"/>
      <point x="452" y="66"/>
      <point x="452" y="193" type="curve" smooth="yes"/>
      <point x="452" y="320"/>
      <point x="401" y="395"/>
      <point x="262" y="395" type="curve" smooth="yes"/>
      <point x="213" y="395"/>
      <point x="153" y="383"/>
      <point x="107" y="365" type="curve"/>
      <point x="136" y="639" type="line"/>
      <point x="411" y="639" type="line" smooth="yes"/>
      <point x="413" y="639"/>
      <point x="414" y="640"/>
      <point x="414" y="642" type="curve" smooth="yes"/>
      <point x="414" y="652" type="line" smooth="yes"/>
      <point x="414" y="654"/>
      <point x="413" y="655"/>
      <point x="411" y="655" type="curve" smooth="yes"/>
      <point x="124" y="655" type="line" smooth="yes"/>
      <point x="122" y="655"/>
      <point x="121" y="654"/>
      <point x="121" y="652" type="curve" smooth="yes"/>
      <point x="90" y="351" type="line" smooth="yes"/>
      <point x="89" y="346"/>
      <point x="92" y="344"/>
      <point x="96" y="345" type="curve" smooth="yes"/>
      <point x="153" y="366"/>
      <point x="201" y="379"/>
      <point x="260" y="379" type="curve" smooth="yes"/>
      <point x="406" y="379"/>
      <point x="436" y="294"/>
      <point x="436" y="195" type="curve" smooth="yes"/>
      <point x="436" y="190" type="line" smooth="yes"/>
      <point x="436" y="71"/>
      <point x="358" y="4"/>
      <point x="252" y="4" type="curve" smooth="yes"/>
      <point x="133" y="4"/>
      <point x="84" y="60"/>
      <point x="84" y="164" type="curve" smooth="yes"/>
      <point x="84" y="166"/>
      <point x="83" y="167"/>
      <point x="81" y="167" type="curve" smooth="yes"/>
      <point x="71" y="167" type="line" smooth="yes"/>
      <point x="69" y="167"/>
      <point x="68" y="166"/>
      <point x="68" y="164" type="curve" smooth="yes"/>
      <point x="68" y="45"/>
      <point x="127" y="-12"/>
    </contour>
  </outline>
</glyph>
<glyph name="six" format="2">
  <advance width="557"/>
  <unicode hex="0036"/>
  <outline>
    <contour>
      <point x="283" y="-12" type="curve" smooth="yes"/>
      <point x="419" y="-12"/>
      <point x="485" y="65"/>
      <point x="485" y="196" type="curve" smooth="yes"/>
      <point x="485" y="336"/>
      <point x="435" y="396"/>
      <point x="320" y="396" type="curve" smooth="yes"/>
      <point x="236" y="396"/>
      <point x="166" y="364"/>
      <point x="88" y="312" type="curve"/>
      <point x="88" y="294" type="line"/>
      <point x="159" y="338"/>
      <point x="228" y="380"/>
      <point x="318" y="380" type="curve" smooth="yes"/>
      <point x="425" y="380"/>
      <point x="469" y="326"/>
      <point x="469" y="199" type="curve" smooth="yes"/>
      <point x="469" y="194" type="line" smooth="yes"/>
      <point x="469" y="73"/>
      <point x="410" y="4"/>
      <point x="283" y="4" type="curve" smooth="yes"/>
      <point x="156" y="4"/>
      <point x="98" y="73"/>
      <point x="98" y="194" type="curve" smooth="yes"/>
      <point x="98" y="463" type="line" smooth="yes"/>
      <point x="98" y="584"/>
      <point x="165" y="651"/>
      <point x="285" y="651" type="curve" smooth="yes"/>
      <point x="388" y="651"/>
      <point x="445" y="606"/>
      <point x="445" y="530" type="curve" smooth="yes"/>
      <point x="445" y="528"/>
      <point x="446" y="527"/>
      <point x="448" y="527" type="curve" smooth="yes"/>
      <point x="458" y="527" type="line" smooth="yes"/>
      <point x="460" y="527"/>
      <point x="461" y="528"/>
      <point x="461" y="530" type="curve" smooth="yes"/>
      <point x="461" y="614"/>
      <point x="397" y="667"/>
      <point x="285" y="667" type="curve" smooth="yes"/>
      <point x="155" y="667"/>
      <point x="82" y="594"/>
      <point x="82" y="464" type="curve" smooth="yes"/>
      <point x="82" y="193" type="line" smooth="yes"/>
      <point x="82" y="62"/>
      <point x="147" y="-12"/>
    </contour>
  </outline>
</glyph>
<glyph name="seven" format="2">
  <advance width="495"/>
  <unicode hex="0037"/>
  <outline>
    <contour>
      <point x="168" y="0" type="curve" smooth="yes"/>
      <point x="179" y="0" type="line" smooth="yes"/>
      <point x="181" y="0"/>
      <point x="182" y="0"/>
      <point x="183" y="2" type="curve" smooth="yes"/>
      <point x="471" y="643" type="line" smooth="yes"/>
      <point x="472" y="645"/>
      <point x="472" y="646"/>
      <point x="472" y="648" type="curve" smooth="yes"/>
      <point x="472" y="652" type="line" smooth="yes"/>
      <point x="472" y="654"/>
      <point x="471" y="655"/>
      <point x="469" y="655" type="curve" smooth="yes"/>
      <point x="63" y="655" type="line" smooth="yes"/>
      <point x="61" y="655"/>
      <point x="60" y="654"/>
      <point x="60" y="652" type="curve" smooth="yes"/>
      <point x="60" y="511" type="line" smooth="yes"/>
      <point x="60" y="509"/>
      <point x="61" y="508"/>
      <point x="63" y="508" type="curve" smooth="yes"/>
      <point x="73" y="508" type="line" smooth="yes"/>
      <point x="75" y="508"/>
      <point x="76" y="509"/>
      <point x="76" y="511" type="curve" smooth="yes"/>
      <point x="76" y="639" type="line"/>
      <point x="451" y="639" type="line"/>
      <point x="166" y="4" type="line" smooth="yes"/>
      <point x="165" y="2"/>
      <point x="165" y="0"/>
    </contour>
  </outline>
</glyph>
<glyph name="eight" format="2">
  <advance width="562"/>
  <unicode hex="0038"/>
  <outline>
    <contour>
      <point x="281" y="-12" type="curve" smooth="yes"/>
      <point x="418" y="-12"/>
      <point x="495" y="51"/>
      <point x="495" y="163" type="curve" smooth="yes"/>
      <point x="495" y="264"/>
      <point x="437" y="334"/>
      <point x="339" y="351" type="curve"/>
      <point x="423" y="369"/>
      <point x="466" y="420"/>
      <point x="466" y="503" type="curve" smooth="yes"/>
      <point x="466" y="603"/>
      <point x="394" y="667"/>
      <point x="281" y="667" type="curve" smooth="yes"/>
      <point x="168" y="667"/>
      <point x="96" y="603"/>
      <point x="96" y="503" type="curve" smooth="yes"/>
      <point x="96" y="420"/>
      <point x="139" y="369"/>
      <point x="223" y="351" type="curve"/>
      <point x="125" y="334"/>
      <point x="67" y="264"/>
      <point x="67" y="163" type="curve" smooth="yes"/>
      <point x="67" y="51"/>
      <point x="144" y="-12"/>
    </contour>
    <contour>
      <point x="281" y="4" type="curve" smooth="yes"/>
      <point x="153" y="4"/>
      <point x="83" y="63"/>
      <point x="83" y="160" type="curve" smooth="yes"/>
      <point x="83" y="167" type="line" smooth="yes"/>
      <point x="83" y="273"/>
      <point x="161" y="342"/>
      <point x="281" y="342" type="curve" smooth="yes"/>
      <point x="401" y="342"/>
      <point x="479" y="273"/>
      <point x="479" y="167" type="curve" smooth="yes"/>
      <point x="479" y="160" type="line" smooth="yes"/>
      <point x="479" y="63"/>
      <point x="409" y="4"/>
    </contour>
    <contour>
      <point x="281" y="358" type="curve" smooth="yes"/>
      <point x="176" y="358"/>
      <point x="112" y="412"/>
      <point x="112" y="499" type="curve" smooth="yes"/>
      <point x="112" y="505" type="line" smooth="yes"/>
      <point x="112" y="594"/>
      <point x="176" y="651"/>
      <point x="281" y="651" type="curve" smooth="yes"/>
      <point x="386" y="651"/>
      <point x="450" y="594"/>
      <point x="450" y="505" type="curve" smooth="yes"/>
      <point x="450" y="499" type="line" smooth="yes"/>
      <point x="450" y="412"/>
      <point x="386" y="358"/>
    </contour>
  </outline>
</glyph>
<glyph name="nine" format="2">
  <advance width="567"/>
  <unicode hex="0039"/>
  <outline>
    <contour>
      <point x="286" y="-12" type="curve" smooth="yes"/>
      <point x="419" y="-12"/>
      <point x="485" y="54"/>
      <point x="485" y="191" type="curve" smooth="yes"/>
      <point x="485" y="462" type="line" smooth="yes"/>
      <point x="485" y="593"/>
      <point x="420" y="667"/>
      <point x="284" y="667" type="curve" smooth="yes"/>
      <point x="148" y="667"/>
      <point x="82" y="590"/>
      <point x="82" y="459" type="curve" smooth="yes"/>
      <point x="82" y="315"/>
      <point x="141" y="255"/>
      <point x="256" y="255" type="curve" smooth="yes"/>
      <point x="340" y="255"/>
      <point x="406" y="285"/>
      <point x="479" y="339" type="curve"/>
      <point x="479" y="357" type="line"/>
      <point x="413" y="311"/>
      <point x="348" y="271"/>
      <point x="258" y="271" type="curve" smooth="yes"/>
      <point x="151" y="271"/>
      <point x="98" y="325"/>
      <point x="98" y="456" type="curve" smooth="yes"/>
      <point x="98" y="461" type="line" smooth="yes"/>
      <point x="98" y="582"/>
      <point x="157" y="651"/>
      <point x="284" y="651" type="curve" smooth="yes"/>
      <point x="411" y="651"/>
      <point x="469" y="582"/>
      <point x="469" y="461" type="curve" smooth="yes"/>
      <point x="469" y="192" type="line" smooth="yes"/>
      <point x="469" y="64"/>
      <point x="409" y="4"/>
      <point x="286" y="4" type="curve" smooth="yes"/>
      <point x="177" y="4"/>
      <point x="122" y="47"/>
      <point x="122" y="137" type="curve" smooth="yes"/>
      <point x="122" y="139"/>
      <point x="121" y="140"/>
      <point x="119" y="140" type="curve" smooth="yes"/>
      <point x="109" y="140" type="line" smooth="yes"/>
      <point x="107" y="140"/>
      <point x="106" y="139"/>
      <point x="106" y="137" type="curve" smooth="yes"/>
      <point x="106" y="33"/>
      <point x="168" y="-12"/>
    </contour>
  </outline>
</glyph>
<glyph name="colon" format="2">
  <advance width="196"/>
  <unicode hex="003A"/>
  <outline>
    <contour>
      <point x="98" y="405" type="curve" smooth="yes"/>
      <point x="108" y="405"/>
      <point x="116" y="412"/>
      <point x="116" y="423" type="curve" smooth="yes"/>
      <point x="116" y="429" type="line" smooth="yes"/>
      <point x="116" y="439"/>
      <point x="108" y="446"/>
      <point x="98" y="446" type="curve" smooth="yes"/>
      <point x="88" y="446"/>
      <point x="80" y="439"/>
      <point x="80" y="429" type="curve" smooth="yes"/>
      <point x="80" y="423" type="line" smooth="yes"/>
      <point x="80" y="412"/>
      <point x="88" y="405"/>
    </contour>
    <contour>
      <point x="98" y="-12" type="curve" smooth="yes"/>
      <point x="108" y="-12"/>
      <point x="116" y="-5"/>
      <point x="116" y="6" type="curve" smooth="yes"/>
      <point x="116" y="12" type="line" smooth="yes"/>
      <point x="116" y="22"/>
      <point x="108" y="29"/>
      <point x="98" y="29" type="curve" smooth="yes"/>
      <point x="88" y="29"/>
      <point x="80" y="22"/>
      <point x="80" y="12" type="curve" smooth="yes"/>
      <point x="80" y="6" type="line" smooth="yes"/>
      <point x="80" y="-5"/>
      <point x="88" y="-12"/>
    </contour>
  </outline>
</glyph>
<glyph name="semicolon" format="2">
  <advance width="200"/>
  <unicode hex="003B"/>
  <outline>
    <contour>
      <point x="33" y="-147" type="curve" smooth="yes"/>
      <point x="43" y="-147" type="line" smooth="yes"/>
      <point x="45" y="-147"/>
      <point x="45" y="-146"/>
      <point x="46" y="-144" type="curve" smooth="yes"/>
      <point x="113" y="82" type="line" smooth="yes"/>
      <point x="114" y="85"/>
      <point x="114" y="87"/>
      <point x="111" y="87" type="curve" smooth="yes"/>
      <point x="98" y="87" type="line" smooth="yes"/>
      <point x="96" y="87"/>
      <point x="95" y="87"/>
      <point x="94" y="84" type="curve" smooth="yes"/>
      <point x="32" y="-142" type="line" smooth="yes"/>
      <point x="31" y="-145"/>
      <point x="31" y="-147"/>
    </contour>
    <contour>
      <point x="102" y="405" type="curve" smooth="yes"/>
      <point x="112" y="405"/>
      <point x="120" y="412"/>
      <point x="120" y="423" type="curve" smooth="yes"/>
      <point x="120" y="429" type="line" smooth="yes"/>
      <point x="120" y="439"/>
      <point x="112" y="446"/>
      <point x="102" y="446" type="curve" smooth="yes"/>
      <point x="92" y="446"/>
      <point x="84" y="439"/>
      <point x="84" y="429" type="curve" smooth="yes"/>
      <point x="84" y="423" type="line" smooth="yes"/>
      <point x="84" y="412"/>
      <point x="92" y="405"/>
    </contour>
  </outline>
</glyph>
<glyph name="less" format="2">
  <advance width="600"/>
  <unicode hex="003C"/>
  <outline>
    <contour>
      <point x="488" y="125" type="line" smooth="yes"/>
      <point x="490" y="124"/>
      <point x="492" y="125"/>
      <point x="492" y="127" type="curve" smooth="yes"/>
      <point x="492" y="140" type="line" smooth="yes"/>
      <point x="492" y="141"/>
      <point x="491" y="142"/>
      <point x="490" y="143" type="curve" smooth="yes"/>
      <point x="129" y="303" type="line"/>
      <point x="490" y="463" type="line" smooth="yes"/>
      <point x="491" y="464"/>
      <point x="492" y="465"/>
      <point x="492" y="466" type="curve" smooth="yes"/>
      <point x="492" y="479" type="line" smooth="yes"/>
      <point x="492" y="481"/>
      <point x="490" y="482"/>
      <point x="488" y="481" type="curve" smooth="yes"/>
      <point x="110" y="311" type="line" smooth="yes"/>
      <point x="109" y="310"/>
      <point x="108" y="309"/>
      <point x="108" y="308" type="curve" smooth="yes"/>
      <point x="108" y="298" type="line" smooth="yes"/>
      <point x="108" y="297"/>
      <point x="109" y="296"/>
      <point x="110" y="295" type="curve" smooth="yes"/>
    </contour>
  </outline>
</glyph>
<glyph name="equal" format="2">
  <advance width="600"/>
  <unicode hex="003D"/>
  <outline>
    <contour>
      <point x="113" y="385" type="curve" smooth="yes"/>
      <point x="487" y="385" type="line" smooth="yes"/>
      <point x="489" y="385"/>
      <point x="490" y="386"/>
      <point x="490" y="388" type="curve" smooth="yes"/>
      <point x="490" y="398" type="line" smooth="yes"/>
      <point x="490" y="400"/>
      <point x="489" y="401"/>
      <point x="487" y="401" type="curve" smooth="yes"/>
      <point x="113" y="401" type="line" smooth="yes"/>
      <point x="111" y="401"/>
      <point x="110" y="400"/>
      <point x="110" y="398" type="curve" smooth="yes"/>
      <point x="110" y="388" type="line" smooth="yes"/>
      <point x="110" y="386"/>
      <point x="111" y="385"/>
    </contour>
    <contour>
      <point x="113" y="204" type="curve" smooth="yes"/>
      <point x="487" y="204" type="line" smooth="yes"/>
      <point x="489" y="204"/>
      <point x="490" y="205"/>
      <point x="490" y="207" type="curve" smooth="yes"/>
      <point x="490" y="217" type="line" smooth="yes"/>
      <point x="490" y="219"/>
      <point x="489" y="220"/>
      <point x="487" y="220" type="curve" smooth="yes"/>
      <point x="113" y="220" type="line" smooth="yes"/>
      <point x="111" y="220"/>
      <point x="110" y="219"/>
      <point x="110" y="217" type="curve" smooth="yes"/>
      <point x="110" y="207" type="line" smooth="yes"/>
      <point x="110" y="205"/>
      <point x="111" y="204"/>
    </contour>
  </outline>
</glyph>
<glyph name="question" format="2">
  <advance width="455"/>
  <unicode hex="003F"/>
  <guideline x="204" y="130" angle="90"/>
  <guideline x="219" y="130" angle="90"/>
  <outline>
    <contour>
      <point x="207" y="160" type="curve" smooth="yes"/>
      <point x="216" y="160" type="line" smooth="yes"/>
      <point x="218" y="160"/>
      <point x="219" y="161"/>
      <point x="219" y="163" type="curve" smooth="yes"/>
      <point x="219" y="220" type="line" smooth="yes"/>
      <point x="219" y="354"/>
      <point x="399" y="401"/>
      <point x="399" y="542" type="curve" smooth="yes"/>
      <point x="399" y="631"/>
      <point x="345" y="667"/>
      <point x="233" y="667" type="curve" smooth="yes"/>
      <point x="121" y="667"/>
      <point x="68" y="607"/>
      <point x="68" y="496" type="curve" smooth="yes"/>
      <point x="68" y="494"/>
      <point x="69" y="493"/>
      <point x="71" y="493" type="curve" smooth="yes"/>
      <point x="81" y="493" type="line" smooth="yes"/>
      <point x="83" y="493"/>
      <point x="84" y="494"/>
      <point x="84" y="496" type="curve" smooth="yes"/>
      <point x="84" y="591"/>
      <point x="121" y="651"/>
      <point x="233" y="651" type="curve" smooth="yes"/>
      <point x="338" y="651"/>
      <point x="383" y="619"/>
      <point x="383" y="543" type="curve" smooth="yes"/>
      <point x="383" y="410"/>
      <point x="204" y="363"/>
      <point x="204" y="223" type="curve" smooth="yes"/>
      <point x="204" y="163" type="line" smooth="yes"/>
      <point x="204" y="161"/>
      <point x="205" y="160"/>
    </contour>
    <contour>
      <point x="211" y="-12" type="curve" smooth="yes"/>
      <point x="222" y="-12"/>
      <point x="229" y="-5"/>
      <point x="229" y="6" type="curve" smooth="yes"/>
      <point x="229" y="12" type="line" smooth="yes"/>
      <point x="229" y="22"/>
      <point x="221" y="29"/>
      <point x="211" y="29" type="curve" smooth="yes"/>
      <point x="201" y="29"/>
      <point x="193" y="22"/>
      <point x="193" y="12" type="curve" smooth="yes"/>
      <point x="193" y="6" type="line" smooth="yes"/>
      <point x="193" y="-5"/>
      <point x="201" y="-12"/>
    </contour>
  </outline>
</glyph>
<glyph name="at" format="2">
  <advance width="963"/>
  <unicode hex="0040"/>
  <outline>
    <contour>
      <point x="471" y="-185" type="curve" smooth="yes"/>
      <point x="596" y="-185" type="line" smooth="yes"/>
      <point x="598" y="-185"/>
      <point x="599" y="-184"/>
      <point x="599" y="-182" type="curve" smooth="yes"/>
      <point x="599" y="-172" type="line" smooth="yes"/>
      <point x="599" y="-170"/>
      <point x="598" y="-169"/>
      <point x="596" y="-169" type="curve" smooth="yes"/>
      <point x="471" y="-169" type="line" smooth="yes"/>
      <point x="233" y="-169"/>
      <point x="98" y="-40"/>
      <point x="98" y="188" type="curve" smooth="yes"/>
      <point x="98" y="288" type="line" smooth="yes"/>
      <point x="98" y="525"/>
      <point x="247" y="679"/>
      <point x="478" y="679" type="curve" smooth="yes"/>
      <point x="730" y="679"/>
      <point x="865" y="552"/>
      <point x="865" y="318" type="curve" smooth="yes"/>
      <point x="865" y="268" type="line" smooth="yes"/>
      <point x="865" y="138"/>
      <point x="814" y="54"/>
      <point x="715" y="54" type="curve" smooth="yes"/>
      <point x="637" y="54"/>
      <point x="601" y="95"/>
      <point x="611" y="171" type="curve" smooth="yes"/>
      <point x="649" y="448" type="line" smooth="yes"/>
      <point x="649" y="450"/>
      <point x="648" y="451"/>
      <point x="646" y="451" type="curve" smooth="yes"/>
      <point x="589" y="451"/>
      <point x="546" y="470"/>
      <point x="487" y="470" type="curve" smooth="yes"/>
      <point x="385" y="470"/>
      <point x="330" y="424"/>
      <point x="317" y="325" type="curve" smooth="yes"/>
      <point x="301" y="205" type="line" smooth="yes"/>
      <point x="287" y="99"/>
      <point x="326" y="38"/>
      <point x="412" y="38" type="curve" smooth="yes"/>
      <point x="478" y="38"/>
      <point x="549" y="78"/>
      <point x="604" y="146" type="curve"/>
      <point x="595" y="158" type="line"/>
      <point x="530" y="86"/>
      <point x="473" y="54"/>
      <point x="412" y="54" type="curve" smooth="yes"/>
      <point x="339" y="54"/>
      <point x="304" y="109"/>
      <point x="317" y="203" type="curve" smooth="yes"/>
      <point x="333" y="322" type="line" smooth="yes"/>
      <point x="345" y="411"/>
      <point x="395" y="454"/>
      <point x="487" y="454" type="curve" smooth="yes"/>
      <point x="538" y="454"/>
      <point x="586" y="439"/>
      <point x="630" y="436" type="curve"/>
      <point x="595" y="170" type="line" smooth="yes"/>
      <point x="584" y="86"/>
      <point x="628" y="38"/>
      <point x="715" y="38" type="curve" smooth="yes"/>
      <point x="824" y="38"/>
      <point x="881" y="128"/>
      <point x="881" y="268" type="curve" smooth="yes"/>
      <point x="881" y="318" type="line" smooth="yes"/>
      <point x="881" y="567"/>
      <point x="744" y="695"/>
      <point x="478" y="695" type="curve" smooth="yes"/>
      <point x="232" y="695"/>
      <point x="82" y="541"/>
      <point x="82" y="288" type="curve" smooth="yes"/>
      <point x="82" y="188" type="line" smooth="yes"/>
      <point x="82" y="-54"/>
      <point x="218" y="-185"/>
    </contour>
  </outline>
</glyph>
<glyph name="A" format="2">
  <advance width="540"/>
  <unicode hex="0041"/>
  <anchor x="277" y="0" name="bottom"/>
  <anchor x="537" y="10" name="ogonek"/>
  <anchor x="271" y="655" name="top"/>
  <anchor x="164" y="655" name="topleft"/>
  <outline>
    <contour>
      <point x="15" y="0" type="curve" smooth="yes"/>
      <point x="25" y="0" type="line" smooth="yes"/>
      <point x="27" y="0"/>
      <point x="28" y="0"/>
      <point x="29" y="2" type="curve" smooth="yes"/>
      <point x="237" y="546" type="line" smooth="yes"/>
      <point x="249" y="577"/>
      <point x="259" y="608"/>
      <point x="270" y="640" type="curve"/>
      <point x="271" y="640" type="line"/>
      <point x="281" y="610"/>
      <point x="292" y="579"/>
      <point x="303" y="549" type="curve" smooth="yes"/>
      <point x="511" y="2" type="line" smooth="yes"/>
      <point x="512" y="0"/>
      <point x="513" y="0"/>
      <point x="515" y="0" type="curve" smooth="yes"/>
      <point x="525" y="0" type="line" smooth="yes"/>
      <point x="527" y="0"/>
      <point x="529" y="1"/>
      <point x="528" y="3" type="curve" smooth="yes"/>
      <point x="283" y="653" type="line" smooth="yes"/>
      <point x="282" y="655"/>
      <point x="281" y="655"/>
      <point x="279" y="655" type="curve" smooth="yes"/>
      <point x="262" y="655" type="line" smooth="yes"/>
      <point x="260" y="655"/>
      <point x="259" y="655"/>
      <point x="258" y="653" type="curve" smooth="yes"/>
      <point x="12" y="3" type="line" smooth="yes"/>
      <point x="11" y="1"/>
      <point x="13" y="0"/>
    </contour>
    <contour>
      <point x="94" y="191" type="line"/>
      <point x="444" y="191" type="line"/>
      <point x="438" y="207" type="line"/>
      <point x="101" y="207" type="line"/>
    </contour>
  </outline>
</glyph>
<glyph name="B" format="2">
  <advance width="577"/>
  <unicode hex="0042"/>
  <anchor x="289" y="0" name="bottom"/>
  <anchor x="289" y="655" name="top"/>
  <outline>
    <contour>
      <point x="108" y="0" type="curve" smooth="yes"/>
      <point x="279" y="0" type="line" smooth="yes"/>
      <point x="445" y="0"/>
      <point x="512" y="57"/>
      <point x="512" y="182" type="curve" smooth="yes"/>
      <point x="512" y="275"/>
      <point x="452" y="325"/>
      <point x="361" y="339" type="curve"/>
      <point x="361" y="340" type="line"/>
      <point x="441" y="359"/>
      <point x="481" y="416"/>
      <point x="481" y="496" type="curve" smooth="yes"/>
      <point x="481" y="603"/>
      <point x="414" y="655"/>
      <point x="276" y="655" type="curve" smooth="yes"/>
      <point x="108" y="655" type="line" smooth="yes"/>
      <point x="106" y="655"/>
      <point x="105" y="654"/>
      <point x="105" y="652" type="curve" smooth="yes"/>
      <point x="105" y="3" type="line" smooth="yes"/>
      <point x="105" y="1"/>
      <point x="106" y="0"/>
    </contour>
    <contour>
      <point x="121" y="16" type="line"/>
      <point x="121" y="330" type="line"/>
      <point x="308" y="330" type="line" smooth="yes"/>
      <point x="419" y="330"/>
      <point x="496" y="278"/>
      <point x="496" y="182" type="curve" smooth="yes"/>
      <point x="496" y="67"/>
      <point x="433" y="16"/>
      <point x="279" y="16" type="curve" smooth="yes"/>
    </contour>
    <contour>
      <point x="121" y="346" type="line"/>
      <point x="121" y="639" type="line"/>
      <point x="274" y="639" type="line" smooth="yes"/>
      <point x="403" y="639"/>
      <point x="465" y="593"/>
      <point x="465" y="495" type="curve" smooth="yes"/>
      <point x="465" y="407"/>
      <point x="404" y="346"/>
      <point x="309" y="346" type="curve" smooth="yes"/>
    </contour>
  </outline>
</glyph>
<glyph name="C" format="2">
  <advance width="633"/>
  <unicode hex="0043"/>
  <anchor x="318" y="0" name="bottom"/>
  <anchor x="318" y="655" name="top"/>
  <outline>
    <contour>
      <point x="321" y="-12" type="curve" smooth="yes"/>
      <point x="473" y="-12"/>
      <point x="554" y="61"/>
      <point x="550" y="196" type="curve"/>
      <point x="550" y="198"/>
      <point x="549" y="199"/>
      <point x="547" y="199" type="curve" smooth="yes"/>
      <point x="537" y="199" type="line" smooth="yes"/>
      <point x="535" y="199"/>
      <point x="534" y="198"/>
      <point x="534" y="196" type="curve" smooth="yes"/>
      <point x="534" y="66"/>
      <point x="461" y="4"/>
      <point x="321" y="4" type="curve" smooth="yes"/>
      <point x="182" y="4"/>
      <point x="104" y="77"/>
      <point x="104" y="204" type="curve" smooth="yes"/>
      <point x="104" y="451" type="line" smooth="yes"/>
      <point x="104" y="578"/>
      <point x="182" y="651"/>
      <point x="321" y="651" type="curve" smooth="yes"/>
      <point x="456" y="651"/>
      <point x="544" y="584"/>
      <point x="534" y="459" type="curve"/>
      <point x="534" y="457"/>
      <point x="535" y="456"/>
      <point x="537" y="456" type="curve" smooth="yes"/>
      <point x="547" y="456" type="line" smooth="yes"/>
      <point x="549" y="456"/>
      <point x="550" y="457"/>
      <point x="550" y="459" type="curve"/>
      <point x="560" y="592"/>
      <point x="468" y="667"/>
      <point x="321" y="667" type="curve" smooth="yes"/>
      <point x="172" y="667"/>
      <point x="88" y="588"/>
      <point x="88" y="452" type="curve" smooth="yes"/>
      <point x="88" y="203" type="line" smooth="yes"/>
      <point x="88" y="67"/>
      <point x="172" y="-12"/>
    </contour>
  </outline>
</glyph>
<glyph name="D" format="2">
  <advance width="632"/>
  <unicode hex="0044"/>
  <anchor x="274" y="0" name="bottom"/>
  <anchor x="316" y="328" name="center"/>
  <anchor x="278" y="655" name="top"/>
  <outline>
    <contour>
      <point x="108" y="0" type="curve" smooth="yes"/>
      <point x="272" y="0" type="line" smooth="yes"/>
      <point x="463" y="0"/>
      <point x="559" y="87"/>
      <point x="559" y="280" type="curve" smooth="yes"/>
      <point x="559" y="375" type="line" smooth="yes"/>
      <point x="559" y="567"/>
      <point x="464" y="655"/>
      <point x="272" y="655" type="curve" smooth="yes"/>
      <point x="108" y="655" type="line" smooth="yes"/>
      <point x="106" y="655"/>
      <point x="105" y="654"/>
      <point x="105" y="652" type="curve" smooth="yes"/>
      <point x="105" y="3" type="line" smooth="yes"/>
      <point x="105" y="1"/>
      <point x="106" y="0"/>
    </contour>
    <contour>
      <point x="121" y="16" type="line"/>
      <point x="121" y="639" type="line"/>
      <point x="272" y="639" type="line" smooth="yes"/>
      <point x="453" y="639"/>
      <point x="543" y="557"/>
      <point x="543" y="374" type="curve" smooth="yes"/>
      <point x="543" y="281" type="line" smooth="yes"/>
      <point x="543" y="98"/>
      <point x="453" y="16"/>
      <point x="272" y="16" type="curve" smooth="yes"/>
    </contour>
  </outline>
</glyph>
<glyph name="E" format="2">
  <advance width="550"/>
  <unicode hex="0045"/>
  <guideline x="448" y="599" angle="90"/>
  <anchor x="272" y="0" name="bottom"/>
  <anchor x="436" y="10" name="ogonek"/>
  <anchor x="272" y="655" name="top"/>
  <anchor x="24" y="655" name="topleft"/>
  <outline>
    <contour>
      <point x="108" y="0" type="curve" smooth="yes"/>
      <point x="455" y="0" type="line" smooth="yes"/>
      <point x="457" y="0"/>
      <point x="458" y="1"/>
      <point x="458" y="3" type="curve" smooth="yes"/>
      <point x="458" y="13" type="line" smooth="yes"/>
      <point x="458" y="15"/>
      <point x="457" y="16"/>
      <point x="455" y="16" type="curve" smooth="yes"/>
      <point x="121" y="16" type="line"/>
      <point x="121" y="328" type="line"/>
      <point x="433" y="328" type="line" smooth="yes"/>
      <point x="435" y="328"/>
      <point x="436" y="329"/>
      <point x="436" y="331" type="curve" smooth="yes"/>
      <point x="436" y="341" type="line" smooth="yes"/>
      <point x="436" y="343"/>
      <point x="435" y="344"/>
      <point x="433" y="344" type="curve" smooth="yes"/>
      <point x="121" y="344" type="line"/>
      <point x="121" y="639" type="line"/>
      <point x="455" y="639" type="line" smooth="yes"/>
      <point x="457" y="639"/>
      <point x="458" y="640"/>
      <point x="458" y="642" type="curve" smooth="yes"/>
      <point x="458" y="652" type="line" smooth="yes"/>
      <point x="458" y="654"/>
      <point x="457" y="655"/>
      <point x="455" y="655" type="curve" smooth="yes"/>
      <point x="108" y="655" type="line" smooth="yes"/>
      <point x="106" y="655"/>
      <point x="105" y="654"/>
      <point x="105" y="652" type="curve" smooth="yes"/>
      <point x="105" y="3" type="line" smooth="yes"/>
      <point x="105" y="1"/>
      <point x="106" y="0"/>
    </contour>
  </outline>
</glyph>
<glyph name="F" format="2">
  <advance width="518"/>
  <unicode hex="0046"/>
  <anchor x="255" y="0" name="bottom"/>
  <anchor x="255" y="655" name="top"/>
  <outline>
    <contour>
      <point x="108" y="0" type="curve" smooth="yes"/>
      <point x="118" y="0" type="line" smooth="yes"/>
      <point x="120" y="0"/>
      <point x="121" y="1"/>
      <point x="121" y="3" type="curve" smooth="yes"/>
      <point x="121" y="320" type="line"/>
      <point x="421" y="320" type="line" smooth="yes"/>
      <point x="423" y="320"/>
      <point x="424" y="321"/>
      <point x="424" y="323" type="curve" smooth="yes"/>
      <point x="424" y="333" type="line" smooth="yes"/>
      <point x="424" y="335"/>
      <point x="423" y="336"/>
      <point x="421" y="336" type="curve" smooth="yes"/>
      <point x="121" y="336" type="line"/>
      <point x="121" y="639" type="line"/>
      <point x="455" y="639" type="line" smooth="yes"/>
      <point x="457" y="639"/>
      <point x="458" y="640"/>
      <point x="458" y="642" type="curve" smooth="yes"/>
      <point x="458" y="652" type="line" smooth="yes"/>
      <point x="458" y="654"/>
      <point x="457" y="655"/>
      <point x="455" y="655" type="curve" smooth="yes"/>
      <point x="108" y="655" type="line" smooth="yes"/>
      <point x="106" y="655"/>
      <point x="105" y="654"/>
      <point x="105" y="652" type="curve" smooth="yes"/>
      <point x="105" y="3" type="line" smooth="yes"/>
      <point x="105" y="1"/>
      <point x="106" y="0"/>
    </contour>
  </outline>
</glyph>
<glyph name="G" format="2">
  <advance width="652"/>
  <unicode hex="0047"/>
  <guideline x="606" y="466" angle="0"/>
  <anchor x="324" y="0" name="bottom"/>
  <anchor x="326" y="655" name="top"/>
  <anchor x="73" y="655" name="topleft"/>
  <outline>
    <contour>
      <point x="321" y="-12" type="curve" smooth="yes"/>
      <point x="460" y="-12"/>
      <point x="514" y="62"/>
      <point x="535" y="138" type="curve"/>
      <point x="536" y="138" type="line"/>
      <point x="535" y="94"/>
      <point x="538" y="43"/>
      <point x="542" y="9" type="curve" smooth="yes"/>
      <point x="543" y="0"/>
      <point x="545" y="0"/>
      <point x="547" y="0" type="curve" smooth="yes"/>
      <point x="556" y="0" type="line" smooth="yes"/>
      <point x="558" y="0"/>
      <point x="559" y="1"/>
      <point x="559" y="3" type="curve" smooth="yes"/>
      <point x="554" y="45"/>
      <point x="550" y="88"/>
      <point x="550" y="140" type="curve" smooth="yes"/>
      <point x="550" y="314" type="line" smooth="yes"/>
      <point x="550" y="316"/>
      <point x="549" y="317"/>
      <point x="547" y="317" type="curve" smooth="yes"/>
      <point x="343" y="317" type="line" smooth="yes"/>
      <point x="341" y="317"/>
      <point x="340" y="316"/>
      <point x="340" y="314" type="curve" smooth="yes"/>
      <point x="340" y="304" type="line" smooth="yes"/>
      <point x="340" y="302"/>
      <point x="341" y="301"/>
      <point x="343" y="301" type="curve" smooth="yes"/>
      <point x="534" y="301" type="line"/>
      <point x="534" y="248" type="line" smooth="yes"/>
      <point x="534" y="82"/>
      <point x="460" y="4"/>
      <point x="321" y="4" type="curve" smooth="yes"/>
      <point x="182" y="4"/>
      <point x="104" y="77"/>
      <point x="104" y="204" type="curve" smooth="yes"/>
      <point x="104" y="451" type="line" smooth="yes"/>
      <point x="104" y="578"/>
      <point x="182" y="651"/>
      <point x="321" y="651" type="curve" smooth="yes"/>
      <point x="456" y="651"/>
      <point x="544" y="584"/>
      <point x="534" y="469" type="curve" smooth="yes"/>
      <point x="534" y="467"/>
      <point x="535" y="466"/>
      <point x="537" y="466" type="curve" smooth="yes"/>
      <point x="547" y="466" type="line" smooth="yes"/>
      <point x="549" y="466"/>
      <point x="550" y="467"/>
      <point x="550" y="469" type="curve" smooth="yes"/>
      <point x="560" y="592"/>
      <point x="468" y="667"/>
      <point x="321" y="667" type="curve" smooth="yes"/>
      <point x="172" y="667"/>
      <point x="88" y="588"/>
      <point x="88" y="452" type="curve" smooth="yes"/>
      <point x="88" y="203" type="line" smooth="yes"/>
      <point x="88" y="67"/>
      <point x="172" y="-12"/>
    </contour>
  </outline>
</glyph>
<glyph name="H" format="2">
  <advance width="661"/>
  <unicode hex="0048"/>
  <guideline x="554" y="378" angle="90"/>
  <anchor x="329" y="0" name="bottom"/>
  <anchor x="333" y="328" name="center"/>
  <anchor x="329" y="655" name="top"/>
  <anchor x="61" y="655" name="topleft"/>
  <outline>
    <contour>
      <point x="108" y="0" type="curve" smooth="yes"/>
      <point x="118" y="0" type="line" smooth="yes"/>
      <point x="120" y="0"/>
      <point x="121" y="1"/>
      <point x="121" y="3" type="curve" smooth="yes"/>
      <point x="121" y="331" type="line"/>
      <point x="540" y="331" type="line"/>
      <point x="540" y="3" type="line" smooth="yes"/>
      <point x="540" y="1"/>
      <point x="541" y="0"/>
      <point x="543" y="0" type="curve" smooth="yes"/>
      <point x="553" y="0" type="line" smooth="yes"/>
      <point x="555" y="0"/>
      <point x="556" y="1"/>
      <point x="556" y="3" type="curve" smooth="yes"/>
      <point x="556" y="652" type="line" smooth="yes"/>
      <point x="556" y="654"/>
      <point x="555" y="655"/>
      <point x="553" y="655" type="curve" smooth="yes"/>
      <point x="543" y="655" type="line" smooth="yes"/>
      <point x="541" y="655"/>
      <point x="540" y="654"/>
      <point x="540" y="652" type="curve" smooth="yes"/>
      <point x="540" y="347" type="line"/>
      <point x="121" y="347" type="line"/>
      <point x="121" y="652" type="line" smooth="yes"/>
      <point x="121" y="654"/>
      <point x="120" y="655"/>
      <point x="118" y="655" type="curve" smooth="yes"/>
      <point x="108" y="655" type="line" smooth="yes"/>
      <point x="106" y="655"/>
      <point x="105" y="654"/>
      <point x="105" y="652" type="curve" smooth="yes"/>
      <point x="105" y="3" type="line" smooth="yes"/>
      <point x="105" y="1"/>
      <point x="106" y="0"/>
    </contour>
  </outline>
</glyph>
<glyph name="I" format="2">
  <advance width="226"/>
  <unicode hex="0049"/>
  <anchor x="113" y="0" name="bottom"/>
  <anchor x="134" y="10" name="ogonek"/>
  <anchor x="113" y="655" name="top"/>
  <anchor x="43" y="655" name="topleft"/>
  <outline>
    <contour>
      <point x="108" y="0" type="curve" smooth="yes"/>
      <point x="118" y="0" type="line" smooth="yes"/>
      <point x="120" y="0"/>
      <point x="121" y="1"/>
      <point x="121" y="3" type="curve" smooth="yes"/>
      <point x="121" y="652" type="line" smooth="yes"/>
      <point x="121" y="654"/>
      <point x="120" y="655"/>
      <point x="118" y="655" type="curve" smooth="yes"/>
      <point x="108" y="655" type="line" smooth="yes"/>
      <point x="106" y="655"/>
      <point x="105" y="654"/>
      <point x="105" y="652" type="curve" smooth="yes"/>
      <point x="105" y="3" type="line" smooth="yes"/>
      <point x="105" y="1"/>
      <point x="106" y="0"/>
    </contour>
  </outline>
</glyph>
<glyph name="J" format="2">
  <advance width="226"/>
  <unicode hex="004A"/>
  <anchor x="113" y="0" name="bottom"/>
  <anchor x="113" y="655" name="top"/>
  <outline>
    <contour>
      <point x="8" y="-140" type="curve" smooth="yes"/>
      <point x="95" y="-125"/>
      <point x="121" y="-62"/>
      <point x="121" y="68" type="curve" smooth="yes"/>
      <point x="121" y="652" type="line" smooth="yes"/>
      <point x="121" y="654"/>
      <point x="120" y="655"/>
      <point x="118" y="655" type="curve" smooth="yes"/>
      <point x="108" y="655" type="line" smooth="yes"/>
      <point x="106" y="655"/>
      <point x="105" y="654"/>
      <point x="105" y="652" type="curve" smooth="yes"/>
      <point x="105" y="68" type="line" smooth="yes"/>
      <point x="105" y="-59"/>
      <point x="79" y="-111"/>
      <point x="5" y="-125" type="curve" smooth="yes"/>
      <point x="3" y="-125"/>
      <point x="1" y="-127"/>
      <point x="2" y="-129" type="curve" smooth="yes"/>
      <point x="4" y="-137" type="line" smooth="yes"/>
      <point x="5" y="-139"/>
      <point x="5" y="-141"/>
    </contour>
  </outline>
</glyph>
<glyph name="K" format="2">
  <advance width="568"/>
  <unicode hex="004B"/>
  <anchor x="289" y="0" name="bottom"/>
  <anchor x="284" y="655" name="top"/>
  <outline>
    <contour>
      <point x="108" y="0" type="curve" smooth="yes"/>
      <point x="118" y="0" type="line" smooth="yes"/>
      <point x="120" y="0"/>
      <point x="121" y="1"/>
      <point x="121" y="3" type="curve" smooth="yes"/>
      <point x="121" y="213" type="line"/>
      <point x="264" y="370" type="line"/>
      <point x="527" y="2" type="line"/>
      <point x="528" y="0"/>
      <point x="529" y="0"/>
      <point x="531" y="0" type="curve" smooth="yes"/>
      <point x="544" y="0" type="line" smooth="yes"/>
      <point x="546" y="0"/>
      <point x="546" y="2"/>
      <point x="545" y="4" type="curve"/>
      <point x="275" y="382" type="line"/>
      <point x="519" y="651" type="line"/>
      <point x="521" y="653"/>
      <point x="521" y="655"/>
      <point x="519" y="655" type="curve" smooth="yes"/>
      <point x="503" y="655" type="line" smooth="yes"/>
      <point x="501" y="655"/>
      <point x="500" y="654"/>
      <point x="499" y="653" type="curve"/>
      <point x="257" y="386" type="line" smooth="yes"/>
      <point x="212" y="336"/>
      <point x="166" y="286"/>
      <point x="121" y="236" type="curve"/>
      <point x="121" y="237" type="line"/>
      <point x="121" y="294"/>
      <point x="121" y="350"/>
      <point x="121" y="407" type="curve" smooth="yes"/>
      <point x="121" y="652" type="line" smooth="yes"/>
      <point x="121" y="654"/>
      <point x="120" y="655"/>
      <point x="118" y="655" type="curve" smooth="yes"/>
      <point x="108" y="655" type="line" smooth="yes"/>
      <point x="106" y="655"/>
      <point x="105" y="654"/>
      <point x="105" y="652" type="curve" smooth="yes"/>
      <point x="105" y="3" type="line" smooth="yes"/>
      <point x="105" y="1"/>
      <point x="106" y="0"/>
    </contour>
  </outline>
</glyph>
<glyph name="L" format="2">
  <advance width="483"/>
  <unicode hex="004C"/>
  <anchor x="281" y="0" name="bottom"/>
  <anchor x="270" y="328" name="center"/>
  <anchor x="113" y="655" name="top"/>
  <anchor x="487" y="655" name="topright"/>
  <outline>
    <contour>
      <point x="108" y="0" type="curve" smooth="yes"/>
      <point x="450" y="0" type="line" smooth="yes"/>
      <point x="452" y="0"/>
      <point x="453" y="1"/>
      <point x="453" y="3" type="curve" smooth="yes"/>
      <point x="453" y="13" type="line" smooth="yes"/>
      <point x="453" y="15"/>
      <point x="452" y="16"/>
      <point x="450" y="16" type="curve" smooth="yes"/>
      <point x="121" y="16" type="line"/>
      <point x="121" y="652" type="line" smooth="yes"/>
      <point x="121" y="654"/>
      <point x="120" y="655"/>
      <point x="118" y="655" type="curve" smooth="yes"/>
      <point x="108" y="655" type="line" smooth="yes"/>
      <point x="106" y="655"/>
      <point x="105" y="654"/>
      <point x="105" y="652" type="curve" smooth="yes"/>
      <point x="105" y="3" type="line" smooth="yes"/>
      <point x="105" y="1"/>
      <point x="106" y="0"/>
    </contour>
  </outline>
</glyph>
<glyph name="M" format="2">
  <advance width="758"/>
  <unicode hex="004D"/>
  <anchor x="379" y="0" name="bottom"/>
  <anchor x="379" y="655" name="top"/>
  <outline>
    <contour>
      <point x="91" y="0" type="curve" smooth="yes"/>
      <point x="102" y="0" type="line" smooth="yes"/>
      <point x="104" y="0"/>
      <point x="105" y="1"/>
      <point x="105" y="3" type="curve" smooth="yes"/>
      <point x="119" y="535" type="line" smooth="yes"/>
      <point x="120" y="568"/>
      <point x="121" y="600"/>
      <point x="122" y="633" type="curve"/>
      <point x="123" y="633" type="line"/>
      <point x="137" y="604"/>
      <point x="152" y="574"/>
      <point x="167" y="545" type="curve" smooth="yes"/>
      <point x="381" y="130" type="line" smooth="yes"/>
      <point x="382" y="128"/>
      <point x="383" y="128"/>
      <point x="384" y="128" type="curve" smooth="yes"/>
      <point x="386" y="128" type="line" smooth="yes"/>
      <point x="387" y="128"/>
      <point x="388" y="128"/>
      <point x="389" y="130" type="curve" smooth="yes"/>
      <point x="603" y="545" type="line" smooth="yes"/>
      <point x="618" y="574"/>
      <point x="633" y="604"/>
      <point x="647" y="633" type="curve"/>
      <point x="648" y="633" type="line"/>
      <point x="649" y="600"/>
      <point x="650" y="568"/>
      <point x="651" y="535" type="curve" smooth="yes"/>
      <point x="665" y="3" type="line" smooth="yes"/>
      <point x="665" y="1"/>
      <point x="666" y="0"/>
      <point x="668" y="0" type="curve" smooth="yes"/>
      <point x="679" y="0" type="line" smooth="yes"/>
      <point x="681" y="0"/>
      <point x="682" y="1"/>
      <point x="682" y="3" type="curve" smooth="yes"/>
      <point x="664" y="652" type="line" smooth="yes"/>
      <point x="664" y="654"/>
      <point x="663" y="655"/>
      <point x="661" y="655" type="curve" smooth="yes"/>
      <point x="642" y="655" type="line" smooth="yes"/>
      <point x="641" y="655"/>
      <point x="640" y="655"/>
      <point x="639" y="653" type="curve" smooth="yes"/>
      <point x="385" y="156" type="line"/>
      <point x="131" y="653" type="line" smooth="yes"/>
      <point x="130" y="655"/>
      <point x="129" y="655"/>
      <point x="128" y="655" type="curve" smooth="yes"/>
      <point x="109" y="655" type="line" smooth="yes"/>
      <point x="107" y="655"/>
      <point x="106" y="654"/>
      <point x="106" y="652" type="curve" smooth="yes"/>
      <point x="88" y="3" type="line" smooth="yes"/>
      <point x="88" y="1"/>
      <point x="89" y="0"/>
    </contour>
  </outline>
</glyph>
<glyph name="N" format="2">
  <advance width="667"/>
  <unicode hex="004E"/>
  <guideline x="282" y="270" angle="0"/>
  <guideline x="190" y="372" angle="0"/>
  <anchor x="330" y="0" name="bottom"/>
  <anchor x="334" y="655" name="top"/>
  <outline>
    <contour>
      <point x="108" y="0" type="curve" smooth="yes"/>
      <point x="118" y="0" type="line" smooth="yes"/>
      <point x="120" y="0"/>
      <point x="121" y="1"/>
      <point x="121" y="3" type="curve" smooth="yes"/>
      <point x="121" y="372" type="line" smooth="yes"/>
      <point x="121" y="459"/>
      <point x="121" y="546"/>
      <point x="121" y="633" type="curve"/>
      <point x="122" y="633" type="line"/>
      <point x="179" y="546"/>
      <point x="237" y="459"/>
      <point x="294" y="372" type="curve" smooth="yes"/>
      <point x="538" y="2" type="line" smooth="yes"/>
      <point x="539" y="0"/>
      <point x="540" y="0"/>
      <point x="541" y="0" type="curve" smooth="yes"/>
      <point x="559" y="0" type="line" smooth="yes"/>
      <point x="561" y="0"/>
      <point x="562" y="1"/>
      <point x="562" y="3" type="curve" smooth="yes"/>
      <point x="562" y="652" type="line" smooth="yes"/>
      <point x="562" y="654"/>
      <point x="561" y="655"/>
      <point x="559" y="655" type="curve" smooth="yes"/>
      <point x="549" y="655" type="line" smooth="yes"/>
      <point x="547" y="655"/>
      <point x="546" y="654"/>
      <point x="546" y="652" type="curve" smooth="yes"/>
      <point x="546" y="270" type="line" smooth="yes"/>
      <point x="546" y="187"/>
      <point x="546" y="105"/>
      <point x="546" y="22" type="curve"/>
      <point x="545" y="22" type="line"/>
      <point x="491" y="104"/>
      <point x="436" y="186"/>
      <point x="382" y="268" type="curve" smooth="yes"/>
      <point x="128" y="653" type="line" smooth="yes"/>
      <point x="127" y="655"/>
      <point x="126" y="655"/>
      <point x="125" y="655" type="curve" smooth="yes"/>
      <point x="108" y="655" type="line" smooth="yes"/>
      <point x="106" y="655"/>
      <point x="105" y="654"/>
      <point x="105" y="652" type="curve" smooth="yes"/>
      <point x="105" y="3" type="line" smooth="yes"/>
      <point x="105" y="1"/>
      <point x="106" y="0"/>
    </contour>
  </outline>
</glyph>
<glyph name="O" format="2">
  <advance width="642"/>
  <unicode hex="004F"/>
  <guideline x="550" y="390" angle="90"/>
  <guideline x="94" y="328" angle="270"/>
  <anchor x="322" y="0" name="bottom"/>
  <anchor x="322" y="328" name="center"/>
  <anchor x="580" y="10" name="ogonek"/>
  <anchor x="321" y="655" name="top"/>
  <anchor x="20" y="655" name="topleft"/>
  <anchor x="624" y="655" name="topright"/>
  <outline>
    <contour>
      <point x="321" y="-12" type="curve" smooth="yes"/>
      <point x="470" y="-12"/>
      <point x="554" y="67"/>
      <point x="554" y="203" type="curve" smooth="yes"/>
      <point x="554" y="452" type="line" smooth="yes"/>
      <point x="554" y="588"/>
      <point x="470" y="667"/>
      <point x="321" y="667" type="curve" smooth="yes"/>
      <point x="172" y="667"/>
      <point x="88" y="588"/>
      <point x="88" y="452" type="curve" smooth="yes"/>
      <point x="88" y="203" type="line" smooth="yes"/>
      <point x="88" y="67"/>
      <point x="172" y="-12"/>
    </contour>
    <contour>
      <point x="321" y="4" type="curve" smooth="yes"/>
      <point x="182" y="4"/>
      <point x="104" y="77"/>
      <point x="104" y="204" type="curve" smooth="yes"/>
      <point x="104" y="451" type="line" smooth="yes"/>
      <point x="104" y="578"/>
      <point x="182" y="651"/>
      <point x="321" y="651" type="curve" smooth="yes"/>
      <point x="460" y="651"/>
      <point x="538" y="578"/>
      <point x="538" y="451" type="curve" smooth="yes"/>
      <point x="538" y="204" type="line" smooth="yes"/>
      <point x="538" y="77"/>
      <point x="460" y="4"/>
    </contour>
  </outline>
</glyph>
<glyph name="P" format="2">
  <advance width="549"/>
  <unicode hex="0050"/>
  <anchor x="275" y="0" name="bottom"/>
  <anchor x="275" y="655" name="top"/>
  <outline>
    <contour>
      <point x="108" y="0" type="curve" smooth="yes"/>
      <point x="118" y="0" type="line" smooth="yes"/>
      <point x="120" y="0"/>
      <point x="121" y="1"/>
      <point x="121" y="3" type="curve" smooth="yes"/>
      <point x="121" y="277" type="line"/>
      <point x="256" y="277" type="line" smooth="yes"/>
      <point x="417" y="277"/>
      <point x="489" y="342"/>
      <point x="489" y="465" type="curve" smooth="yes"/>
      <point x="489" y="600"/>
      <point x="407" y="655"/>
      <point x="260" y="655" type="curve" smooth="yes"/>
      <point x="108" y="655" type="line" smooth="yes"/>
      <point x="106" y="655"/>
      <point x="105" y="654"/>
      <point x="105" y="652" type="curve" smooth="yes"/>
      <point x="105" y="3" type="line" smooth="yes"/>
      <point x="105" y="1"/>
      <point x="106" y="0"/>
    </contour>
    <contour>
      <point x="121" y="293" type="line"/>
      <point x="121" y="639" type="line"/>
      <point x="262" y="639" type="line" smooth="yes"/>
      <point x="400" y="639"/>
      <point x="473" y="587"/>
      <point x="473" y="465" type="curve" smooth="yes"/>
      <point x="473" y="356"/>
      <point x="413" y="293"/>
      <point x="256" y="293" type="curve" smooth="yes"/>
    </contour>
  </outline>
</glyph>
<glyph name="Q" format="2">
  <advance width="642"/>
  <unicode hex="0051"/>
  <anchor x="321" y="0" name="bottom"/>
  <anchor x="321" y="655" name="top"/>
  <outline>
    <contour>
      <point x="445" y="-172" type="curve" smooth="yes"/>
      <point x="458" y="-172"/>
      <point x="475" y="-171"/>
      <point x="488" y="-165" type="curve" smooth="yes"/>
      <point x="490" y="-164"/>
      <point x="490" y="-163"/>
      <point x="490" y="-161" type="curve" smooth="yes"/>
      <point x="490" y="-151" type="line" smooth="yes"/>
      <point x="490" y="-148"/>
      <point x="489" y="-147"/>
      <point x="487" y="-148" type="curve" smooth="yes"/>
      <point x="475" y="-154"/>
      <point x="461" y="-156"/>
      <point x="445" y="-156" type="curve" smooth="yes"/>
      <point x="389" y="-156"/>
      <point x="365" y="-93"/>
      <point x="365" y="-3" type="curve" smooth="yes"/>
      <point x="365" y="-1"/>
      <point x="364" y="0"/>
      <point x="362" y="0" type="curve" smooth="yes"/>
      <point x="352" y="0" type="line" smooth="yes"/>
      <point x="350" y="0"/>
      <point x="349" y="-1"/>
      <point x="349" y="-3" type="curve" smooth="yes"/>
      <point x="349" y="-99"/>
      <point x="372" y="-172"/>
    </contour>
    <component base="O"/>
  </outline>
</glyph>
<glyph name="R" format="2">
  <advance width="594"/>
  <unicode hex="0052"/>
  <anchor x="295" y="0" name="bottom"/>
  <anchor x="275" y="655" name="top"/>
  <outline>
    <contour>
      <point x="108" y="0" type="curve" smooth="yes"/>
      <point x="118" y="0" type="line" smooth="yes"/>
      <point x="120" y="0"/>
      <point x="121" y="1"/>
      <point x="121" y="3" type="curve" smooth="yes"/>
      <point x="121" y="303" type="line"/>
      <point x="324" y="303" type="line"/>
      <point x="513" y="2" type="line"/>
      <point x="514" y="0"/>
      <point x="515" y="0"/>
      <point x="516" y="0" type="curve" smooth="yes"/>
      <point x="529" y="0" type="line" smooth="yes"/>
      <point x="531" y="0"/>
      <point x="532" y="2"/>
      <point x="531" y="4" type="curve"/>
      <point x="342" y="305" type="line"/>
      <point x="342" y="306" type="line"/>
      <point x="449" y="321"/>
      <point x="502" y="383"/>
      <point x="502" y="478" type="curve" smooth="yes"/>
      <point x="502" y="600"/>
      <point x="422" y="655"/>
      <point x="294" y="655" type="curve" smooth="yes"/>
      <point x="108" y="655" type="line" smooth="yes"/>
      <point x="106" y="655"/>
      <point x="105" y="654"/>
      <point x="105" y="652" type="curve" smooth="yes"/>
      <point x="105" y="3" type="line" smooth="yes"/>
      <point x="105" y="1"/>
      <point x="106" y="0"/>
    </contour>
    <contour>
      <point x="121" y="319" type="line"/>
      <point x="121" y="639" type="line"/>
      <point x="296" y="639" type="line" smooth="yes"/>
      <point x="415" y="639"/>
      <point x="486" y="587"/>
      <point x="486" y="478" type="curve" smooth="yes"/>
      <point x="486" y="382"/>
      <point x="428" y="319"/>
      <point x="288" y="319" type="curve" smooth="yes"/>
    </contour>
  </outline>
</glyph>
<glyph name="S" format="2">
  <advance width="552"/>
  <unicode hex="0053"/>
  <anchor x="271" y="0" name="bottom"/>
  <anchor x="270" y="655" name="top"/>
  <outline>
    <contour>
      <point x="271" y="-12" type="curve" smooth="yes"/>
      <point x="427" y="-12"/>
      <point x="485" y="34"/>
      <point x="485" y="142" type="curve" smooth="yes"/>
      <point x="485" y="244"/>
      <point x="445" y="274"/>
      <point x="331" y="325" type="curve" smooth="yes"/>
      <point x="217" y="376" type="line" smooth="yes"/>
      <point x="127" y="416"/>
      <point x="92" y="443"/>
      <point x="92" y="527" type="curve" smooth="yes"/>
      <point x="92" y="612"/>
      <point x="163" y="651"/>
      <point x="275" y="651" type="curve" smooth="yes"/>
      <point x="404" y="651"/>
      <point x="459" y="596"/>
      <point x="459" y="492" type="curve" smooth="yes"/>
      <point x="459" y="490"/>
      <point x="460" y="489"/>
      <point x="462" y="489" type="curve" smooth="yes"/>
      <point x="472" y="489" type="line" smooth="yes"/>
      <point x="474" y="489"/>
      <point x="475" y="490"/>
      <point x="475" y="492" type="curve" smooth="yes"/>
      <point x="475" y="607"/>
      <point x="415" y="667"/>
      <point x="274" y="667" type="curve" smooth="yes"/>
      <point x="152" y="667"/>
      <point x="76" y="622"/>
      <point x="76" y="527" type="curve" smooth="yes"/>
      <point x="76" y="437"/>
      <point x="113" y="404"/>
      <point x="208" y="362" type="curve" smooth="yes"/>
      <point x="321" y="312" type="line" smooth="yes"/>
      <point x="424" y="267"/>
      <point x="469" y="240"/>
      <point x="469" y="142" type="curve" smooth="yes"/>
      <point x="469" y="43"/>
      <point x="416" y="4"/>
      <point x="271" y="4" type="curve" smooth="yes"/>
      <point x="133" y="4"/>
      <point x="79" y="55"/>
      <point x="79" y="167" type="curve" smooth="yes"/>
      <point x="79" y="169"/>
      <point x="78" y="170"/>
      <point x="76" y="170" type="curve" smooth="yes"/>
      <point x="66" y="170" type="line" smooth="yes"/>
      <point x="64" y="170"/>
      <point x="63" y="169"/>
      <point x="63" y="167" type="curve" smooth="yes"/>
      <point x="63" y="43"/>
      <point x="121" y="-12"/>
    </contour>
  </outline>
</glyph>
<glyph name="T" format="2">
  <advance width="546"/>
  <unicode hex="0054"/>
  <anchor x="275" y="0" name="bottom"/>
  <anchor x="273" y="328" name="center"/>
  <anchor x="273" y="655" name="top"/>
  <outline>
    <contour>
      <point x="268" y="0" type="curve" smooth="yes"/>
      <point x="278" y="0" type="line" smooth="yes"/>
      <point x="280" y="0"/>
      <point x="281" y="1"/>
      <point x="281" y="3" type="curve" smooth="yes"/>
      <point x="281" y="639" type="line"/>
      <point x="497" y="639" type="line" smooth="yes"/>
      <point x="499" y="639"/>
      <point x="500" y="640"/>
      <point x="500" y="642" type="curve" smooth="yes"/>
      <point x="500" y="652" type="line" smooth="yes"/>
      <point x="500" y="654"/>
      <point x="499" y="655"/>
      <point x="497" y="655" type="curve" smooth="yes"/>
      <point x="49" y="655" type="line" smooth="yes"/>
      <point x="47" y="655"/>
      <point x="46" y="654"/>
      <point x="46" y="652" type="curve" smooth="yes"/>
      <point x="46" y="642" type="line" smooth="yes"/>
      <point x="46" y="640"/>
      <point x="47" y="639"/>
      <point x="49" y="639" type="curve" smooth="yes"/>
      <point x="265" y="639" type="line"/>
      <point x="265" y="3" type="line" smooth="yes"/>
      <point x="265" y="1"/>
      <point x="266" y="0"/>
    </contour>
  </outline>
</glyph>
<glyph name="U" format="2">
  <advance width="648"/>
  <unicode hex="0055"/>
  <anchor x="324" y="0" name="bottom"/>
  <anchor x="422" y="10" name="ogonek"/>
  <anchor x="324" y="655" name="top"/>
  <anchor x="72" y="655" name="topleft"/>
  <anchor x="628" y="655" name="topright"/>
  <outline>
    <contour>
      <point x="324" y="-12" type="curve" smooth="yes"/>
      <point x="475.273" y="-12"/>
      <point x="548" y="66.571"/>
      <point x="548" y="230" type="curve" smooth="yes"/>
      <point x="548" y="652" type="line" smooth="yes"/>
      <point x="548" y="654"/>
      <point x="547" y="655"/>
      <point x="545" y="655" type="curve" smooth="yes"/>
      <point x="535" y="655" type="line" smooth="yes"/>
      <point x="533" y="655"/>
      <point x="532" y="654"/>
      <point x="532" y="652" type="curve" smooth="yes"/>
      <point x="532" y="230" type="line" smooth="yes"/>
      <point x="532" y="76.01"/>
      <point x="465.726" y="4"/>
      <point x="324" y="4" type="curve" smooth="yes"/>
      <point x="182.274" y="4"/>
      <point x="116" y="76.01"/>
      <point x="116" y="230" type="curve" smooth="yes"/>
      <point x="116" y="652" type="line" smooth="yes"/>
      <point x="116" y="654"/>
      <point x="115" y="655"/>
      <point x="113" y="655" type="curve" smooth="yes"/>
      <point x="103" y="655" type="line" smooth="yes"/>
      <point x="101" y="655"/>
      <point x="100" y="654"/>
      <point x="100" y="652" type="curve" smooth="yes"/>
      <point x="100" y="230" type="line" smooth="yes"/>
      <point x="100" y="66.571"/>
      <point x="172.727" y="-12"/>
    </contour>
  </outline>
</glyph>
<glyph name="V" format="2">
  <advance width="558"/>
  <unicode hex="0056"/>
  <anchor x="278" y="0" name="bottom"/>
  <anchor x="278" y="655" name="top"/>
  <outline>
    <contour>
      <point x="271" y="0" type="curve" smooth="yes"/>
      <point x="288" y="0" type="line" smooth="yes"/>
      <point x="290" y="0"/>
      <point x="291" y="0"/>
      <point x="292" y="2" type="curve" smooth="yes"/>
      <point x="534" y="652" type="line" smooth="yes"/>
      <point x="535" y="654"/>
      <point x="533" y="655"/>
      <point x="531" y="655" type="curve" smooth="yes"/>
      <point x="521" y="655" type="line" smooth="yes"/>
      <point x="519" y="655"/>
      <point x="518" y="655"/>
      <point x="517" y="653" type="curve" smooth="yes"/>
      <point x="312" y="106" type="line" smooth="yes"/>
      <point x="301" y="76"/>
      <point x="291" y="46"/>
      <point x="280" y="16" type="curve"/>
      <point x="279" y="16" type="line"/>
      <point x="269" y="47"/>
      <point x="258" y="78"/>
      <point x="246" y="109" type="curve" smooth="yes"/>
      <point x="41" y="653" type="line" smooth="yes"/>
      <point x="40" y="655"/>
      <point x="39" y="655"/>
      <point x="37" y="655" type="curve" smooth="yes"/>
      <point x="27" y="655" type="line" smooth="yes"/>
      <point x="25" y="655"/>
      <point x="23" y="654"/>
      <point x="24" y="652" type="curve" smooth="yes"/>
      <point x="267" y="2" type="line" smooth="yes"/>
      <point x="268" y="0"/>
      <point x="269" y="0"/>
    </contour>
  </outline>
</glyph>
<glyph name="W" format="2">
  <advance width="852"/>
  <unicode hex="0057"/>
  <anchor x="444" y="0" name="bottom"/>
  <anchor x="426" y="655" name="top"/>
  <outline>
    <contour>
      <point x="252" y="0" type="curve" smooth="yes"/>
      <point x="271" y="0" type="line" smooth="yes"/>
      <point x="273" y="0"/>
      <point x="275" y="0"/>
      <point x="276" y="3" type="curve" smooth="yes"/>
      <point x="385" y="332" type="line" smooth="yes"/>
      <point x="401" y="382"/>
      <point x="417" y="431"/>
      <point x="433" y="481" type="curve"/>
      <point x="434" y="481" type="line"/>
      <point x="448" y="433"/>
      <point x="463" y="384"/>
      <point x="477" y="336" type="curve" smooth="yes"/>
      <point x="576" y="3" type="line" smooth="yes"/>
      <point x="577" y="0"/>
      <point x="579" y="0"/>
      <point x="581" y="0" type="curve" smooth="yes"/>
      <point x="600" y="0" type="line" smooth="yes"/>
      <point x="602" y="0"/>
      <point x="604" y="0"/>
      <point x="605" y="3" type="curve" smooth="yes"/>
      <point x="812" y="652" type="line" smooth="yes"/>
      <point x="813" y="655"/>
      <point x="811" y="655"/>
      <point x="809" y="655" type="curve" smooth="yes"/>
      <point x="798" y="655" type="line" smooth="yes"/>
      <point x="797" y="655"/>
      <point x="795" y="655"/>
      <point x="794" y="652" type="curve" smooth="yes"/>
      <point x="641" y="173" type="line" smooth="yes"/>
      <point x="624" y="120"/>
      <point x="608" y="68"/>
      <point x="591" y="15" type="curve"/>
      <point x="590" y="15" type="line"/>
      <point x="575" y="67"/>
      <point x="559" y="118"/>
      <point x="544" y="170" type="curve" smooth="yes"/>
      <point x="403" y="643" type="line" smooth="yes"/>
      <point x="402" y="645"/>
      <point x="401" y="645"/>
      <point x="399" y="645" type="curve" smooth="yes"/>
      <point x="389" y="645" type="line" smooth="yes"/>
      <point x="387" y="645"/>
      <point x="385" y="645"/>
      <point x="386" y="642" type="curve" smooth="yes"/>
      <point x="426" y="506" type="line"/>
      <point x="313" y="168" type="line" smooth="yes"/>
      <point x="296" y="117"/>
      <point x="279" y="66"/>
      <point x="262" y="15" type="curve"/>
      <point x="261" y="15" type="line"/>
      <point x="245" y="66"/>
      <point x="229" y="116"/>
      <point x="213" y="167" type="curve" smooth="yes"/>
      <point x="58" y="652" type="line" smooth="yes"/>
      <point x="57" y="655"/>
      <point x="55" y="655"/>
      <point x="53" y="655" type="curve" smooth="yes"/>
      <point x="43" y="655" type="line" smooth="yes"/>
      <point x="41" y="655"/>
      <point x="39" y="655"/>
      <point x="40" y="652" type="curve" smooth="yes"/>
      <point x="247" y="3" type="line" smooth="yes"/>
      <point x="248" y="0"/>
      <point x="250" y="0"/>
    </contour>
  </outline>
</glyph>
<glyph name="X" format="2">
  <advance width="531"/>
  <unicode hex="0058"/>
  <anchor x="266" y="0" name="bottom"/>
  <anchor x="266" y="655" name="top"/>
  <outline>
    <contour>
      <point x="14" y="0" type="curve" smooth="yes"/>
      <point x="27" y="0" type="line" smooth="yes"/>
      <point x="29" y="0"/>
      <point x="30" y="0"/>
      <point x="31" y="2" type="curve"/>
      <point x="177" y="202" type="line" smooth="yes"/>
      <point x="206" y="242"/>
      <point x="236" y="283"/>
      <point x="265" y="324" type="curve"/>
      <point x="266" y="324" type="line"/>
      <point x="296" y="282"/>
      <point x="326" y="241"/>
      <point x="357" y="199" type="curve" smooth="yes"/>
      <point x="500" y="2" type="line"/>
      <point x="501" y="0"/>
      <point x="502" y="0"/>
      <point x="504" y="0" type="curve" smooth="yes"/>
      <point x="517" y="0" type="line" smooth="yes"/>
      <point x="519" y="0"/>
      <point x="520" y="1"/>
      <point x="518" y="4" type="curve"/>
      <point x="276" y="336" type="line"/>
      <point x="506" y="651" type="line"/>
      <point x="507" y="653"/>
      <point x="507" y="655"/>
      <point x="504" y="655" type="curve" smooth="yes"/>
      <point x="491" y="655" type="line" smooth="yes"/>
      <point x="489" y="655"/>
      <point x="488" y="655"/>
      <point x="487" y="653" type="curve"/>
      <point x="334" y="442" type="line" smooth="yes"/>
      <point x="311" y="411"/>
      <point x="289" y="380"/>
      <point x="266" y="349" type="curve"/>
      <point x="265" y="349" type="line"/>
      <point x="242" y="380"/>
      <point x="220" y="411"/>
      <point x="197" y="442" type="curve" smooth="yes"/>
      <point x="44" y="653" type="line"/>
      <point x="43" y="655"/>
      <point x="42" y="655"/>
      <point x="40" y="655" type="curve" smooth="yes"/>
      <point x="27" y="655" type="line" smooth="yes"/>
      <point x="24" y="655"/>
      <point x="24" y="653"/>
      <point x="25" y="651" type="curve"/>
      <point x="255" y="336" type="line"/>
      <point x="13" y="4" type="line"/>
      <point x="11" y="1"/>
      <point x="12" y="0"/>
    </contour>
  </outline>
</glyph>
<glyph name="Y" format="2">
  <advance width="511"/>
  <unicode hex="0059"/>
  <anchor x="256" y="0" name="bottom"/>
  <anchor x="256" y="655" name="top"/>
  <anchor x="20" y="655" name="topleft"/>
  <outline>
    <contour>
      <point x="250" y="0" type="curve" smooth="yes"/>
      <point x="260" y="0" type="line" smooth="yes"/>
      <point x="262" y="0"/>
      <point x="263" y="1"/>
      <point x="263" y="3" type="curve" smooth="yes"/>
      <point x="263" y="225" type="line"/>
      <point x="493" y="651" type="line" smooth="yes"/>
      <point x="494" y="653"/>
      <point x="493" y="655"/>
      <point x="491" y="655" type="curve" smooth="yes"/>
      <point x="478" y="655" type="line" smooth="yes"/>
      <point x="477" y="655"/>
      <point x="476" y="655"/>
      <point x="475" y="653" type="curve" smooth="yes"/>
      <point x="314" y="353" type="line" smooth="yes"/>
      <point x="294" y="316"/>
      <point x="274" y="280"/>
      <point x="255" y="244" type="curve"/>
      <point x="254" y="244" type="line"/>
      <point x="235" y="281"/>
      <point x="216" y="318"/>
      <point x="196" y="355" type="curve" smooth="yes"/>
      <point x="36" y="653" type="line" smooth="yes"/>
      <point x="35" y="655"/>
      <point x="34" y="655"/>
      <point x="33" y="655" type="curve" smooth="yes"/>
      <point x="20" y="655" type="line" smooth="yes"/>
      <point x="18" y="655"/>
      <point x="17" y="653"/>
      <point x="18" y="651" type="curve" smooth="yes"/>
      <point x="247" y="225" type="line"/>
      <point x="247" y="3" type="line" smooth="yes"/>
      <point x="247" y="1"/>
      <point x="248" y="0"/>
    </contour>
  </outline>
</glyph>
<glyph name="Z" format="2">
  <advance width="536"/>
  <unicode hex="005A"/>
  <anchor x="268" y="0" name="bottom"/>
  <anchor x="271" y="655" name="top"/>
  <outline>
    <contour>
      <point x="39" y="0" type="curve" smooth="yes"/>
      <point x="474" y="0" type="line" smooth="yes"/>
      <point x="476" y="0"/>
      <point x="477" y="1"/>
      <point x="477" y="3" type="curve" smooth="yes"/>
      <point x="477" y="13" type="line" smooth="yes"/>
      <point x="477" y="15"/>
      <point x="476" y="16"/>
      <point x="474" y="16" type="curve" smooth="yes"/>
      <point x="165" y="16" type="line" smooth="yes"/>
      <point x="130" y="16"/>
      <point x="95" y="16"/>
      <point x="60" y="16" type="curve"/>
      <point x="60" y="17" type="line"/>
      <point x="84" y="51"/>
      <point x="108" y="85"/>
      <point x="131" y="119" type="curve" smooth="yes"/>
      <point x="493" y="642" type="line" smooth="yes"/>
      <point x="495" y="645"/>
      <point x="496" y="647"/>
      <point x="496" y="649" type="curve" smooth="yes"/>
      <point x="496" y="651" type="line" smooth="yes"/>
      <point x="496" y="653"/>
      <point x="496" y="655"/>
      <point x="493" y="655" type="curve" smooth="yes"/>
      <point x="72" y="655" type="line" smooth="yes"/>
      <point x="70" y="655"/>
      <point x="69" y="654"/>
      <point x="69" y="652" type="curve" smooth="yes"/>
      <point x="69" y="642" type="line" smooth="yes"/>
      <point x="69" y="640"/>
      <point x="70" y="639"/>
      <point x="72" y="639" type="curve" smooth="yes"/>
      <point x="357" y="639" type="line" smooth="yes"/>
      <point x="394" y="639"/>
      <point x="432" y="639"/>
      <point x="469" y="639" type="curve"/>
      <point x="469" y="638" type="line"/>
      <point x="446" y="605"/>
      <point x="423" y="571"/>
      <point x="400" y="537" type="curve" smooth="yes"/>
      <point x="37" y="12" type="line" smooth="yes"/>
      <point x="35" y="9"/>
      <point x="35" y="8"/>
      <point x="35" y="6" type="curve" smooth="yes"/>
      <point x="35" y="4" type="line" smooth="yes"/>
      <point x="35" y="1"/>
      <point x="36" y="0"/>
    </contour>
  </outline>
</glyph>
<glyph name="bracketleft" format="2">
  <advance width="264"/>
  <unicode hex="005B"/>
  <outline>
    <contour>
      <point x="98" y="-142" type="curve" smooth="yes"/>
      <point x="261" y="-142" type="line" smooth="yes"/>
      <point x="263" y="-142"/>
      <point x="264" y="-141"/>
      <point x="264" y="-139" type="curve" smooth="yes"/>
      <point x="264" y="-129" type="line" smooth="yes"/>
      <point x="264" y="-127"/>
      <point x="263" y="-126"/>
      <point x="261" y="-126" type="curve" smooth="yes"/>
      <point x="111" y="-126" type="line"/>
      <point x="111" y="681" type="line"/>
      <point x="261" y="681" type="line" smooth="yes"/>
      <point x="263" y="681"/>
      <point x="264" y="682"/>
      <point x="264" y="684" type="curve" smooth="yes"/>
      <point x="264" y="694" type="line" smooth="yes"/>
      <point x="264" y="696"/>
      <point x="263" y="697"/>
      <point x="261" y="697" type="curve" smooth="yes"/>
      <point x="98" y="697" type="line" smooth="yes"/>
      <point x="96" y="697"/>
      <point x="95" y="696"/>
      <point x="95" y="694" type="curve" smooth="yes"/>
      <point x="95" y="-139" type="line" smooth="yes"/>
      <point x="95" y="-141"/>
      <point x="96" y="-142"/>
    </contour>
  </outline>
</glyph>
<glyph name="backslash" format="2">
  <advance width="327"/>
  <unicode hex="005C"/>
  <outline>
    <contour>
      <point x="294" y="0" type="curve" smooth="yes"/>
      <point x="304" y="0" type="line" smooth="yes"/>
      <point x="306" y="0"/>
      <point x="308" y="1"/>
      <point x="307" y="3" type="curve" smooth="yes"/>
      <point x="37" y="653" type="line" smooth="yes"/>
      <point x="36" y="655"/>
      <point x="35" y="655"/>
      <point x="33" y="655" type="curve" smooth="yes"/>
      <point x="23" y="655" type="line" smooth="yes"/>
      <point x="21" y="655"/>
      <point x="19" y="654"/>
      <point x="20" y="652" type="curve" smooth="yes"/>
      <point x="290" y="2" type="line" smooth="yes"/>
      <point x="291" y="1"/>
      <point x="292" y="0"/>
    </contour>
  </outline>
</glyph>
<glyph name="bracketright" format="2">
  <advance width="264"/>
  <unicode hex="005D"/>
  <outline>
    <contour>
      <point x="3" y="-142" type="curve" smooth="yes"/>
      <point x="166" y="-142" type="line" smooth="yes"/>
      <point x="168" y="-142"/>
      <point x="169" y="-141"/>
      <point x="169" y="-139" type="curve" smooth="yes"/>
      <point x="169" y="694" type="line" smooth="yes"/>
      <point x="169" y="696"/>
      <point x="168" y="697"/>
      <point x="166" y="697" type="curve" smooth="yes"/>
      <point x="3" y="697" type="line" smooth="yes"/>
      <point x="1" y="697"/>
      <point x="0" y="696"/>
      <point x="0" y="694" type="curve" smooth="yes"/>
      <point x="0" y="684" type="line" smooth="yes"/>
      <point x="0" y="682"/>
      <point x="1" y="681"/>
      <point x="3" y="681" type="curve" smooth="yes"/>
      <point x="153" y="681" type="line"/>
      <point x="153" y="-126" type="line"/>
      <point x="3" y="-126" type="line" smooth="yes"/>
      <point x="1" y="-126"/>
      <point x="0" y="-127"/>
      <point x="0" y="-129" type="curve" smooth="yes"/>
      <point x="0" y="-139" type="line" smooth="yes"/>
      <point x="0" y="-141"/>
      <point x="1" y="-142"/>
    </contour>
  </outline>
</glyph>
<glyph name="asciicircum" format="2">
  <advance width="487"/>
  <unicode hex="005E"/>
  <outline>
    <contour>
      <point x="58" y="350" type="curve" smooth="yes"/>
      <point x="70" y="350" type="line" smooth="yes"/>
      <point x="71" y="350"/>
      <point x="72" y="350"/>
      <point x="73" y="352" type="curve" smooth="yes"/>
      <point x="243" y="668" type="line"/>
      <point x="413" y="352" type="line" smooth="yes"/>
      <point x="414" y="350"/>
      <point x="415" y="350"/>
      <point x="416" y="350" type="curve" smooth="yes"/>
      <point x="429" y="350" type="line" smooth="yes"/>
      <point x="431" y="350"/>
      <point x="432" y="352"/>
      <point x="431" y="354" type="curve" smooth="yes"/>
      <point x="254" y="681" type="line" smooth="yes"/>
      <point x="253" y="683"/>
      <point x="252" y="683"/>
      <point x="250" y="683" type="curve" smooth="yes"/>
      <point x="236" y="683" type="line" smooth="yes"/>
      <point x="234" y="683"/>
      <point x="233" y="683"/>
      <point x="232" y="681" type="curve" smooth="yes"/>
      <point x="56" y="354" type="line" smooth="yes"/>
      <point x="55" y="352"/>
      <point x="56" y="350"/>
    </contour>
  </outline>
</glyph>
<glyph name="underscore" format="2">
  <advance width="434"/>
  <unicode hex="005F"/>
  <outline>
    <contour>
      <point x="13" y="-79" type="curve" smooth="yes"/>
      <point x="421" y="-79" type="line" smooth="yes"/>
      <point x="423" y="-79"/>
      <point x="424" y="-78"/>
      <point x="424" y="-76" type="curve" smooth="yes"/>
      <point x="424" y="-66" type="line" smooth="yes"/>
      <point x="424" y="-64"/>
      <point x="423" y="-63"/>
      <point x="421" y="-63" type="curve" smooth="yes"/>
      <point x="13" y="-63" type="line" smooth="yes"/>
      <point x="11" y="-63"/>
      <point x="10" y="-64"/>
      <point x="10" y="-66" type="curve" smooth="yes"/>
      <point x="10" y="-76" type="line" smooth="yes"/>
      <point x="10" y="-78"/>
      <point x="11" y="-79"/>
    </contour>
  </outline>
</glyph>
<glyph name="a" format="2">
  <advance width="483"/>
  <unicode hex="0061"/>
  <anchor x="238" y="0" name="bottom"/>
  <anchor x="405" y="11" name="ogonek"/>
  <anchor x="239" y="478" name="top"/>
  <outline>
    <contour>
      <point x="380" y="0" type="curve" smooth="yes"/>
      <point x="390" y="0" type="line" smooth="yes"/>
      <point x="392" y="0"/>
      <point x="393" y="1"/>
      <point x="393" y="3" type="curve"/>
      <point x="390" y="38"/>
      <point x="388" y="73"/>
      <point x="388" y="110" type="curve" smooth="yes"/>
      <point x="388" y="340" type="line" smooth="yes"/>
      <point x="388" y="448"/>
      <point x="343" y="491"/>
      <point x="244" y="490" type="curve" smooth="yes"/>
      <point x="140" y="489"/>
      <point x="96" y="445"/>
      <point x="96" y="366" type="curve" smooth="yes"/>
      <point x="96" y="364"/>
      <point x="97" y="363"/>
      <point x="99" y="363" type="curve" smooth="yes"/>
      <point x="109" y="363" type="line" smooth="yes"/>
      <point x="111" y="363"/>
      <point x="112" y="364"/>
      <point x="112" y="366" type="curve" smooth="yes"/>
      <point x="112" y="440"/>
      <point x="155" y="474"/>
      <point x="243" y="474" type="curve" smooth="yes"/>
      <point x="337" y="474"/>
      <point x="372" y="435"/>
      <point x="372" y="339" type="curve" smooth="yes"/>
      <point x="372" y="119" type="line"/>
      <point x="372" y="110" type="line" smooth="yes"/>
      <point x="372" y="72"/>
      <point x="374" y="38"/>
      <point x="377" y="3" type="curve"/>
      <point x="377" y="1"/>
      <point x="378" y="0"/>
    </contour>
    <contour>
      <point x="179" y="-12" type="curve" smooth="yes"/>
      <point x="239" y="-12"/>
      <point x="299" y="23"/>
      <point x="381" y="115" type="curve"/>
      <point x="381" y="138" type="line"/>
      <point x="314" y="54"/>
      <point x="241" y="3"/>
      <point x="180" y="3" type="curve" smooth="yes"/>
      <point x="112" y="3"/>
      <point x="82" y="43"/>
      <point x="82" y="112" type="curve" smooth="yes"/>
      <point x="82" y="190"/>
      <point x="125" y="230"/>
      <point x="234" y="243" type="curve" smooth="yes"/>
      <point x="377" y="260" type="line"/>
      <point x="377" y="275" type="line"/>
      <point x="234" y="258" type="line" smooth="yes"/>
      <point x="115" y="244"/>
      <point x="66" y="199"/>
      <point x="66" y="112" type="curve" smooth="yes"/>
      <point x="66" y="34"/>
      <point x="102" y="-12"/>
    </contour>
  </outline>
</glyph>
<glyph name="b" format="2">
  <advance width="536"/>
  <unicode hex="0062"/>
  <outline>
    <contour>
      <point x="269" y="-12" type="curve" smooth="yes"/>
      <point x="381" y="-12"/>
      <point x="460" y="35"/>
      <point x="460" y="152" type="curve" smooth="yes"/>
      <point x="460" y="328" type="line" smooth="yes"/>
      <point x="460" y="439"/>
      <point x="415" y="490"/>
      <point x="315" y="490" type="curve" smooth="yes"/>
      <point x="246" y="490"/>
      <point x="178" y="452"/>
      <point x="106" y="370" type="curve"/>
      <point x="106" y="349" type="line"/>
      <point x="181" y="435"/>
      <point x="248" y="474"/>
      <point x="315" y="474" type="curve" smooth="yes"/>
      <point x="405" y="474"/>
      <point x="444" y="429"/>
      <point x="444" y="328" type="curve" smooth="yes"/>
      <point x="444" y="151" type="line" smooth="yes"/>
      <point x="444" y="46"/>
      <point x="371" y="4"/>
      <point x="269" y="4" type="curve" smooth="yes"/>
      <point x="215" y="4"/>
      <point x="168" y="17"/>
      <point x="111" y="28" type="curve"/>
      <point x="111" y="680" type="line" smooth="yes"/>
      <point x="111" y="682"/>
      <point x="110" y="683"/>
      <point x="108" y="683" type="curve" smooth="yes"/>
      <point x="98" y="683" type="line" smooth="yes"/>
      <point x="96" y="683"/>
      <point x="95" y="682"/>
      <point x="95" y="680" type="curve" smooth="yes"/>
      <point x="95" y="16" type="line"/>
      <point x="161" y="4"/>
      <point x="216" y="-12"/>
    </contour>
  </outline>
</glyph>
<glyph name="c" format="2">
  <advance width="499"/>
  <unicode hex="0063"/>
  <anchor x="250" y="0" name="bottom"/>
  <anchor x="336" y="10" name="ogonek"/>
  <anchor x="250" y="478" name="top"/>
  <outline>
    <contour>
      <point x="258" y="-12" type="curve" smooth="yes"/>
      <point x="372" y="-11"/>
      <point x="427" y="40"/>
      <point x="427" y="139" type="curve" smooth="yes"/>
      <point x="427" y="141"/>
      <point x="426" y="142"/>
      <point x="424" y="142" type="curve" smooth="yes"/>
      <point x="414" y="142" type="line" smooth="yes"/>
      <point x="412" y="142"/>
      <point x="411" y="141"/>
      <point x="411" y="139" type="curve" smooth="yes"/>
      <point x="411" y="49"/>
      <point x="361" y="4"/>
      <point x="258" y="4" type="curve" smooth="yes"/>
      <point x="146" y="4"/>
      <point x="90" y="59"/>
      <point x="90" y="165" type="curve" smooth="yes"/>
      <point x="90" y="305" type="line" smooth="yes"/>
      <point x="90" y="415"/>
      <point x="145" y="474"/>
      <point x="253" y="474" type="curve" smooth="yes"/>
      <point x="350" y="474"/>
      <point x="411" y="426"/>
      <point x="411" y="348" type="curve" smooth="yes"/>
      <point x="411" y="346"/>
      <point x="412" y="345"/>
      <point x="414" y="345" type="curve" smooth="yes"/>
      <point x="424" y="345" type="line" smooth="yes"/>
      <point x="426" y="345"/>
      <point x="427" y="347"/>
      <point x="427" y="348" type="curve" smooth="yes"/>
      <point x="427" y="436"/>
      <point x="360" y="490"/>
      <point x="253" y="490" type="curve" smooth="yes"/>
      <point x="135" y="490"/>
      <point x="74" y="426"/>
      <point x="74" y="305" type="curve" smooth="yes"/>
      <point x="74" y="163" type="line" smooth="yes"/>
      <point x="74" y="50"/>
      <point x="138" y="-13"/>
    </contour>
  </outline>
</glyph>
<glyph name="d" format="2">
  <advance width="532"/>
  <unicode hex="0064"/>
  <anchor x="264" y="0" name="bottom"/>
  <anchor x="264" y="239" name="center"/>
  <anchor x="264" y="478" name="top"/>
  <anchor x="512" y="478" name="topright"/>
  <outline>
    <contour>
      <point x="218" y="-12" type="curve" smooth="yes"/>
      <point x="294" y="-12"/>
      <point x="353" y="29"/>
      <point x="425" y="111" type="curve"/>
      <point x="425" y="133" type="line"/>
      <point x="360" y="55"/>
      <point x="295" y="4"/>
      <point x="218" y="4" type="curve" smooth="yes"/>
      <point x="132" y="4"/>
      <point x="92" y="49"/>
      <point x="92" y="149" type="curve" smooth="yes"/>
      <point x="92" y="318" type="line" smooth="yes"/>
      <point x="92" y="425"/>
      <point x="157" y="474"/>
      <point x="252" y="474" type="curve" smooth="yes"/>
      <point x="314" y="474"/>
      <point x="366" y="454"/>
      <point x="431" y="419" type="curve"/>
      <point x="431" y="437" type="line"/>
      <point x="371" y="469"/>
      <point x="316" y="490"/>
      <point x="252" y="490" type="curve" smooth="yes"/>
      <point x="144" y="490"/>
      <point x="76" y="434"/>
      <point x="76" y="317" type="curve" smooth="yes"/>
      <point x="76" y="149" type="line" smooth="yes"/>
      <point x="76" y="39"/>
      <point x="122" y="-12"/>
    </contour>
    <contour>
      <point x="429" y="0" type="curve" smooth="yes"/>
      <point x="439" y="0" type="line" smooth="yes"/>
      <point x="441" y="0"/>
      <point x="442" y="1"/>
      <point x="442" y="3" type="curve"/>
      <point x="439" y="39"/>
      <point x="437" y="73"/>
      <point x="437" y="110" type="curve" smooth="yes"/>
      <point x="437" y="680" type="line" smooth="yes"/>
      <point x="437" y="682"/>
      <point x="436" y="683"/>
      <point x="434" y="683" type="curve" smooth="yes"/>
      <point x="424" y="683" type="line" smooth="yes"/>
      <point x="422" y="683"/>
      <point x="421" y="682"/>
      <point x="421" y="680" type="curve" smooth="yes"/>
      <point x="421" y="119" type="line"/>
      <point x="421" y="110" type="line" smooth="yes"/>
      <point x="421" y="72"/>
      <point x="423" y="39"/>
      <point x="426" y="3" type="curve"/>
      <point x="426" y="1"/>
      <point x="427" y="0"/>
    </contour>
  </outline>
</glyph>
<glyph name="f" format="2">
  <advance width="345"/>
  <unicode hex="0066"/>
  <anchor x="175" y="0" name="bottom"/>
  <anchor x="175" y="478" name="top"/>
  <outline>
    <contour>
      <point x="125" y="0" type="curve" smooth="yes"/>
      <point x="135" y="0" type="line" smooth="yes"/>
      <point x="137" y="0"/>
      <point x="138" y="1"/>
      <point x="138" y="3" type="curve" smooth="yes"/>
      <point x="138" y="462" type="line"/>
      <point x="323" y="462" type="line" smooth="yes"/>
      <point x="325" y="462"/>
      <point x="326" y="463"/>
      <point x="326" y="465" type="curve" smooth="yes"/>
      <point x="326" y="475" type="line" smooth="yes"/>
      <point x="326" y="477"/>
      <point x="325" y="478"/>
      <point x="323" y="478" type="curve" smooth="yes"/>
      <point x="138" y="478" type="line"/>
      <point x="138" y="538" type="line" smooth="yes"/>
      <point x="138" y="636"/>
      <point x="168" y="679"/>
      <point x="261" y="679" type="curve" smooth="yes"/>
      <point x="287" y="679"/>
      <point x="320" y="676"/>
      <point x="347" y="667" type="curve"/>
      <point x="349" y="666"/>
      <point x="350" y="667"/>
      <point x="350" y="669" type="curve" smooth="yes"/>
      <point x="350" y="680" type="line" smooth="yes"/>
      <point x="350" y="681"/>
      <point x="350" y="682"/>
      <point x="348" y="683" type="curve"/>
      <point x="328" y="690"/>
      <point x="291" y="695"/>
      <point x="261" y="695" type="curve" smooth="yes"/>
      <point x="162" y="695"/>
      <point x="122" y="649"/>
      <point x="122" y="539" type="curve" smooth="yes"/>
      <point x="122" y="478" type="line"/>
      <point x="35" y="478" type="line" smooth="yes"/>
      <point x="33" y="478"/>
      <point x="32" y="477"/>
      <point x="32" y="475" type="curve" smooth="yes"/>
      <point x="32" y="465" type="line" smooth="yes"/>
      <point x="32" y="463"/>
      <point x="33" y="462"/>
      <point x="35" y="462" type="curve" smooth="yes"/>
      <point x="122" y="462" type="line"/>
      <point x="122" y="3" type="line" smooth="yes"/>
      <point x="122" y="1"/>
      <point x="123" y="0"/>
    </contour>
  </outline>
</glyph>
<glyph name="g" format="2">
  <advance width="501"/>
  <unicode hex="0067"/>
  <anchor x="252" y="0" name="bottom"/>
  <anchor x="252" y="478" name="top"/>
  <outline>
    <contour>
      <point x="253" y="-197" type="curve" smooth="yes"/>
      <point x="403" y="-197"/>
      <point x="456" y="-160"/>
      <point x="456" y="-68" type="curve" smooth="yes"/>
      <point x="456" y="16"/>
      <point x="416" y="44"/>
      <point x="331" y="50" type="curve" smooth="yes"/>
      <point x="183" y="60" type="line" smooth="yes"/>
      <point x="117" y="64"/>
      <point x="102" y="91"/>
      <point x="102" y="120" type="curve" smooth="yes"/>
      <point x="102" y="159"/>
      <point x="128" y="181"/>
      <point x="168" y="203" type="curve"/>
      <point x="153" y="213" type="line"/>
      <point x="113" y="188"/>
      <point x="86" y="162"/>
      <point x="86" y="121" type="curve" smooth="yes"/>
      <point x="86" y="79"/>
      <point x="109" y="50"/>
      <point x="169" y="46" type="curve" smooth="yes"/>
      <point x="326" y="35" type="line" smooth="yes"/>
      <point x="409" y="29"/>
      <point x="440" y="5"/>
      <point x="440" y="-68" type="curve" smooth="yes"/>
      <point x="440" y="-147"/>
      <point x="395" y="-181"/>
      <point x="253" y="-181" type="curve" smooth="yes"/>
      <point x="117" y="-181"/>
      <point x="64" y="-151"/>
      <point x="64" y="-74" type="curve" smooth="yes"/>
      <point x="64" y="-2"/>
      <point x="99" y="30"/>
      <point x="178" y="55" type="curve"/>
      <point x="153" y="59" type="line"/>
      <point x="81" y="35"/>
      <point x="48" y="-1"/>
      <point x="48" y="-74" type="curve" smooth="yes"/>
      <point x="48" y="-160"/>
      <point x="103" y="-197"/>
    </contour>
    <contour>
      <point x="261" y="180" type="curve" smooth="yes"/>
      <point x="372" y="180"/>
      <point x="431" y="234"/>
      <point x="431" y="335" type="curve" smooth="yes"/>
      <point x="431" y="436"/>
      <point x="372" y="490"/>
      <point x="261" y="490" type="curve" smooth="yes"/>
      <point x="150" y="490"/>
      <point x="91" y="436"/>
      <point x="91" y="335" type="curve" smooth="yes"/>
      <point x="91" y="234"/>
      <point x="150" y="180"/>
    </contour>
    <contour>
      <point x="261" y="196" type="curve" smooth="yes"/>
      <point x="158" y="196"/>
      <point x="107" y="242"/>
      <point x="107" y="335" type="curve" smooth="yes"/>
      <point x="107" y="428"/>
      <point x="158" y="474"/>
      <point x="261" y="474" type="curve" smooth="yes"/>
      <point x="364" y="474"/>
      <point x="415" y="428"/>
      <point x="415" y="335" type="curve" smooth="yes"/>
      <point x="415" y="242"/>
      <point x="364" y="196"/>
    </contour>
    <contour>
      <point x="355" y="470" type="line"/>
      <point x="362" y="515"/>
      <point x="374" y="570"/>
      <point x="385" y="604" type="curve" smooth="yes"/>
      <point x="386" y="607"/>
      <point x="385" y="608"/>
      <point x="382" y="608" type="curve" smooth="yes"/>
      <point x="373" y="608" type="line" smooth="yes"/>
      <point x="371" y="608"/>
      <point x="369" y="607"/>
      <point x="368" y="604" type="curve" smooth="yes"/>
      <point x="357" y="571"/>
      <point x="346" y="515"/>
      <point x="339" y="470" type="curve"/>
    </contour>
  </outline>
</glyph>
<glyph name="h" format="2">
  <advance width="558"/>
  <unicode hex="0068"/>
  <anchor x="280" y="0" name="bottom"/>
  <anchor x="280" y="239" name="center"/>
  <anchor x="280" y="478" name="top"/>
  <outline>
    <contour>
      <point x="450" y="0" type="curve" smooth="yes"/>
      <point x="460" y="0" type="line" smooth="yes"/>
      <point x="462" y="0"/>
      <point x="463" y="1"/>
      <point x="463" y="3" type="curve" smooth="yes"/>
      <point x="463" y="327" type="line" smooth="yes"/>
      <point x="463" y="441"/>
      <point x="417" y="490"/>
      <point x="329" y="490" type="curve" smooth="yes"/>
      <point x="253" y="490"/>
      <point x="179" y="444"/>
      <point x="107" y="365" type="curve"/>
      <point x="107" y="344" type="line"/>
      <point x="177" y="422"/>
      <point x="250" y="474"/>
      <point x="327" y="474" type="curve" smooth="yes"/>
      <point x="409" y="474"/>
      <point x="447" y="428"/>
      <point x="447" y="325" type="curve" smooth="yes"/>
      <point x="447" y="3" type="line" smooth="yes"/>
      <point x="447" y="1"/>
      <point x="448" y="0"/>
    </contour>
    <contour>
      <point x="98" y="0" type="curve" smooth="yes"/>
      <point x="108" y="0" type="line" smooth="yes"/>
      <point x="110" y="0"/>
      <point x="111" y="1"/>
      <point x="111" y="3" type="curve" smooth="yes"/>
      <point x="111" y="680" type="line" smooth="yes"/>
      <point x="111" y="682"/>
      <point x="110" y="683"/>
      <point x="108" y="683" type="curve" smooth="yes"/>
      <point x="98" y="683" type="line" smooth="yes"/>
      <point x="96" y="683"/>
      <point x="95" y="682"/>
      <point x="95" y="680" type="curve" smooth="yes"/>
      <point x="95" y="3" type="line" smooth="yes"/>
      <point x="95" y="1"/>
      <point x="96" y="0"/>
    </contour>
  </outline>
</glyph>
<glyph name="k" format="2">
  <advance width="471"/>
  <unicode hex="006B"/>
  <anchor x="246" y="0" name="bottom"/>
  <anchor x="241" y="478" name="top"/>
  <outline>
    <contour>
      <point x="98" y="0" type="curve" smooth="yes"/>
      <point x="108" y="0" type="line" smooth="yes"/>
      <point x="110" y="0"/>
      <point x="111" y="1"/>
      <point x="111" y="3" type="curve" smooth="yes"/>
      <point x="111" y="166" type="line"/>
      <point x="224" y="279" type="line"/>
      <point x="428" y="2" type="line"/>
      <point x="429" y="0"/>
      <point x="430" y="0"/>
      <point x="431" y="0" type="curve" smooth="yes"/>
      <point x="444" y="0" type="line" smooth="yes"/>
      <point x="446" y="0"/>
      <point x="447" y="2"/>
      <point x="446" y="4" type="curve"/>
      <point x="235" y="291" type="line"/>
      <point x="418" y="474" type="line" smooth="yes"/>
      <point x="420" y="476"/>
      <point x="419" y="478"/>
      <point x="417" y="478" type="curve" smooth="yes"/>
      <point x="402" y="478" type="line" smooth="yes"/>
      <point x="401" y="478"/>
      <point x="399" y="477"/>
      <point x="398" y="476" type="curve" smooth="yes"/>
      <point x="199" y="275" type="line" smooth="yes"/>
      <point x="170" y="246"/>
      <point x="141" y="217"/>
      <point x="112" y="188" type="curve"/>
      <point x="111" y="188" type="line"/>
      <point x="111" y="237"/>
      <point x="111" y="285"/>
      <point x="111" y="334" type="curve" smooth="yes"/>
      <point x="111" y="680" type="line" smooth="yes"/>
      <point x="111" y="682"/>
      <point x="110" y="683"/>
      <point x="108" y="683" type="curve" smooth="yes"/>
      <point x="98" y="683" type="line" smooth="yes"/>
      <point x="96" y="683"/>
      <point x="95" y="682"/>
      <point x="95" y="680" type="curve" smooth="yes"/>
      <point x="95" y="3" type="line" smooth="yes"/>
      <point x="95" y="1"/>
      <point x="96" y="0"/>
    </contour>
  </outline>
</glyph>
<glyph name="l" format="2">
  <advance width="206"/>
  <unicode hex="006C"/>
  <anchor x="103" y="0" name="bottom"/>
  <anchor x="103" y="239" name="center"/>
  <anchor x="103" y="683" name="top"/>
  <anchor x="186" y="478" name="topright"/>
  <outline>
    <contour>
      <point x="98" y="0" type="curve" smooth="yes"/>
      <point x="108" y="0" type="line" smooth="yes"/>
      <point x="110" y="0"/>
      <point x="111" y="1"/>
      <point x="111" y="3" type="curve" smooth="yes"/>
      <point x="111" y="680" type="line" smooth="yes"/>
      <point x="111" y="682"/>
      <point x="110" y="683"/>
      <point x="108" y="683" type="curve" smooth="yes"/>
      <point x="98" y="683" type="line" smooth="yes"/>
      <point x="96" y="683"/>
      <point x="95" y="682"/>
      <point x="95" y="680" type="curve" smooth="yes"/>
      <point x="95" y="3" type="line" smooth="yes"/>
      <point x="95" y="1"/>
      <point x="96" y="0"/>
    </contour>
  </outline>
</glyph>
<glyph name="m" format="2">
  <advance width="844"/>
  <unicode hex="006D"/>
  <anchor x="422" y="0" name="bottom"/>
  <anchor x="422" y="478" name="top"/>
  <outline>
    <contour>
      <point x="98" y="0" type="curve" smooth="yes"/>
      <point x="108" y="0" type="line" smooth="yes"/>
      <point x="110" y="0"/>
      <point x="111" y="1"/>
      <point x="111" y="3" type="curve" smooth="yes"/>
      <point x="111" y="348" type="line"/>
      <point x="185" y="428"/>
      <point x="249" y="474"/>
      <point x="308" y="474" type="curve" smooth="yes"/>
      <point x="380" y="474"/>
      <point x="414" y="424"/>
      <point x="414" y="336" type="curve" smooth="yes"/>
      <point x="414" y="3" type="line" smooth="yes"/>
      <point x="414" y="1"/>
      <point x="415" y="0"/>
      <point x="417" y="0" type="curve" smooth="yes"/>
      <point x="427" y="0" type="line" smooth="yes"/>
      <point x="429" y="0"/>
      <point x="430" y="1"/>
      <point x="430" y="3" type="curve" smooth="yes"/>
      <point x="430" y="348" type="line"/>
      <point x="504" y="428"/>
      <point x="568" y="474"/>
      <point x="627" y="474" type="curve" smooth="yes"/>
      <point x="699" y="474"/>
      <point x="733" y="424"/>
      <point x="733" y="336" type="curve" smooth="yes"/>
      <point x="733" y="3" type="line" smooth="yes"/>
      <point x="733" y="1"/>
      <point x="734" y="0"/>
      <point x="736" y="0" type="curve" smooth="yes"/>
      <point x="746" y="0" type="line" smooth="yes"/>
      <point x="748" y="0"/>
      <point x="749" y="1"/>
      <point x="749" y="3" type="curve" smooth="yes"/>
      <point x="749" y="338" type="line" smooth="yes"/>
      <point x="749" y="434"/>
      <point x="709" y="490"/>
      <point x="629" y="490" type="curve" smooth="yes"/>
      <point x="565" y="490"/>
      <point x="502" y="447"/>
      <point x="428" y="369" type="curve"/>
      <point x="421" y="446"/>
      <point x="381" y="490"/>
      <point x="310" y="490" type="curve" smooth="yes"/>
      <point x="247" y="490"/>
      <point x="183" y="447"/>
      <point x="111" y="370" type="curve"/>
      <point x="111" y="409"/>
      <point x="109" y="441"/>
      <point x="106" y="475" type="curve"/>
      <point x="106" y="477"/>
      <point x="105" y="478"/>
      <point x="103" y="478" type="curve" smooth="yes"/>
      <point x="93" y="478" type="line" smooth="yes"/>
      <point x="91" y="478"/>
      <point x="90" y="477"/>
      <point x="90" y="475" type="curve"/>
      <point x="93" y="440"/>
      <point x="95" y="405"/>
      <point x="95" y="368" type="curve" smooth="yes"/>
      <point x="95" y="3" type="line" smooth="yes"/>
      <point x="95" y="1"/>
      <point x="96" y="0"/>
    </contour>
  </outline>
</glyph>
<glyph name="n" format="2">
  <advance width="558"/>
  <unicode hex="006E"/>
  <anchor x="9" y="488" name="apo"/>
  <anchor x="280" y="0" name="bottom"/>
  <anchor x="280" y="478" name="top"/>
  <outline>
    <contour>
      <point x="450" y="0" type="curve" smooth="yes"/>
      <point x="460" y="0" type="line" smooth="yes"/>
      <point x="462" y="0"/>
      <point x="463" y="1"/>
      <point x="463" y="3" type="curve" smooth="yes"/>
      <point x="463" y="327" type="line" smooth="yes"/>
      <point x="463" y="441"/>
      <point x="417" y="490"/>
      <point x="329" y="490" type="curve" smooth="yes"/>
      <point x="253" y="490"/>
      <point x="179" y="444"/>
      <point x="107" y="365" type="curve"/>
      <point x="107" y="344" type="line"/>
      <point x="177" y="422"/>
      <point x="250" y="474"/>
      <point x="327" y="474" type="curve" smooth="yes"/>
      <point x="409" y="474"/>
      <point x="447" y="426"/>
      <point x="447" y="325" type="curve" smooth="yes"/>
      <point x="447" y="3" type="line" smooth="yes"/>
      <point x="447" y="1"/>
      <point x="448" y="0"/>
    </contour>
    <contour>
      <point x="98" y="0" type="curve" smooth="yes"/>
      <point x="108" y="0" type="line" smooth="yes"/>
      <point x="110" y="0"/>
      <point x="111" y="1"/>
      <point x="111" y="3" type="curve" smooth="yes"/>
      <point x="111" y="359" type="line"/>
      <point x="111" y="368" type="line"/>
      <point x="111" y="405"/>
      <point x="109" y="441"/>
      <point x="106" y="475" type="curve" smooth="yes"/>
      <point x="106" y="477"/>
      <point x="105" y="478"/>
      <point x="103" y="478" type="curve" smooth="yes"/>
      <point x="93" y="478" type="line" smooth="yes"/>
      <point x="91" y="478"/>
      <point x="90" y="477"/>
      <point x="90" y="475" type="curve" smooth="yes"/>
      <point x="93" y="440"/>
      <point x="95" y="403"/>
      <point x="95" y="368" type="curve" smooth="yes"/>
      <point x="95" y="3" type="line" smooth="yes"/>
      <point x="95" y="1"/>
      <point x="96" y="0"/>
    </contour>
  </outline>
</glyph>
<glyph name="o" format="2">
  <advance width="520"/>
  <unicode hex="006F"/>
  <anchor x="260" y="0" name="bottom"/>
  <anchor x="260" y="239" name="center"/>
  <anchor x="474" y="10" name="ogonek"/>
  <anchor x="260" y="478" name="top"/>
  <anchor x="508" y="478" name="topright"/>
  <outline>
    <contour>
      <point x="260" y="-12" type="curve" smooth="yes"/>
      <point x="375" y="-12"/>
      <point x="446" y="53"/>
      <point x="446" y="163" type="curve" smooth="yes"/>
      <point x="446" y="315" type="line" smooth="yes"/>
      <point x="446" y="426"/>
      <point x="376" y="490"/>
      <point x="260" y="490" type="curve" smooth="yes"/>
      <point x="145" y="490"/>
      <point x="74" y="424"/>
      <point x="74" y="315" type="curve" smooth="yes"/>
      <point x="74" y="163" type="line" smooth="yes"/>
      <point x="74" y="52"/>
      <point x="144" y="-12"/>
    </contour>
    <contour>
      <point x="260" y="4" type="curve" smooth="yes"/>
      <point x="154" y="4"/>
      <point x="90" y="63"/>
      <point x="90" y="167" type="curve" smooth="yes"/>
      <point x="90" y="311" type="line" smooth="yes"/>
      <point x="90" y="415"/>
      <point x="154" y="474"/>
      <point x="260" y="474" type="curve" smooth="yes"/>
      <point x="366" y="474"/>
      <point x="430" y="415"/>
      <point x="430" y="311" type="curve" smooth="yes"/>
      <point x="430" y="167" type="line" smooth="yes"/>
      <point x="430" y="63"/>
      <point x="366" y="4"/>
    </contour>
  </outline>
</glyph>
<glyph name="p" format="2">
  <advance width="532"/>
  <unicode hex="0070"/>
  <anchor x="267" y="0" name="bottom"/>
  <anchor x="267" y="478" name="top"/>
  <outline>
    <contour>
      <point x="275" y="-12" type="curve" smooth="yes"/>
      <point x="387" y="-12"/>
      <point x="456" y="54"/>
      <point x="456" y="161" type="curve" smooth="yes"/>
      <point x="456" y="329" type="line" smooth="yes"/>
      <point x="456" y="439"/>
      <point x="412" y="490"/>
      <point x="322" y="490" type="curve" smooth="yes"/>
      <point x="251" y="490"/>
      <point x="178.878" y="453.391"/>
      <point x="107" y="371" type="curve"/>
      <point x="107" y="350" type="line"/>
      <point x="182" y="436"/>
      <point x="252" y="474"/>
      <point x="319" y="474" type="curve" smooth="yes"/>
      <point x="402" y="474"/>
      <point x="440" y="429"/>
      <point x="440" y="329" type="curve" smooth="yes"/>
      <point x="440" y="160" type="line" smooth="yes"/>
      <point x="440" y="65"/>
      <point x="376" y="4"/>
      <point x="275" y="4" type="curve" smooth="yes"/>
      <point x="219" y="4"/>
      <point x="163" y="23"/>
      <point x="103" y="54" type="curve"/>
      <point x="103" y="36" type="line"/>
      <point x="165.368" y="4.816"/>
      <point x="225.625" y="-12"/>
    </contour>
    <contour>
      <point x="98" y="-185" type="curve" smooth="yes"/>
      <point x="108" y="-185" type="line" smooth="yes"/>
      <point x="110" y="-185"/>
      <point x="111" y="-184"/>
      <point x="111" y="-182" type="curve" smooth="yes"/>
      <point x="111" y="363" type="line"/>
      <point x="111" y="368" type="line" smooth="yes"/>
      <point x="111" y="401.1"/>
      <point x="110" y="437"/>
      <point x="106" y="475" type="curve" smooth="yes"/>
      <point x="106" y="477"/>
      <point x="105" y="478"/>
      <point x="103" y="478" type="curve" smooth="yes"/>
      <point x="93" y="478" type="line" smooth="yes"/>
      <point x="91" y="478"/>
      <point x="90" y="477"/>
      <point x="90" y="475" type="curve" smooth="yes"/>
      <point x="94" y="439"/>
      <point x="95" y="400.6"/>
      <point x="95" y="368" type="curve" smooth="yes"/>
      <point x="95" y="-182" type="line" smooth="yes"/>
      <point x="95" y="-184"/>
      <point x="96" y="-185"/>
    </contour>
  </outline>
</glyph>
<glyph name="q" format="2">
  <advance width="536"/>
  <unicode hex="0071"/>
  <anchor x="268" y="0" name="bottom"/>
  <anchor x="268" y="478" name="top"/>
  <outline>
    <contour>
      <point x="428" y="-185" type="curve" smooth="yes"/>
      <point x="438" y="-185" type="line" smooth="yes"/>
      <point x="440" y="-185"/>
      <point x="441" y="-184"/>
      <point x="441" y="-182" type="curve" smooth="yes"/>
      <point x="441" y="462" type="line"/>
      <point x="375" y="474"/>
      <point x="313" y="490"/>
      <point x="258" y="490" type="curve" smooth="yes"/>
      <point x="147" y="490"/>
      <point x="76" y="444"/>
      <point x="76" y="327" type="curve" smooth="yes"/>
      <point x="76" y="149" type="line" smooth="yes"/>
      <point x="76" y="39"/>
      <point x="122" y="-12"/>
      <point x="223" y="-12" type="curve" smooth="yes"/>
      <point x="294" y="-12"/>
      <point x="358" y="26"/>
      <point x="430" y="107" type="curve"/>
      <point x="430" y="130" type="line"/>
      <point x="355" y="43"/>
      <point x="291" y="4"/>
      <point x="223" y="4" type="curve" smooth="yes"/>
      <point x="132" y="4"/>
      <point x="92" y="49"/>
      <point x="92" y="149" type="curve" smooth="yes"/>
      <point x="92" y="328" type="line" smooth="yes"/>
      <point x="92" y="433"/>
      <point x="159" y="474"/>
      <point x="257" y="474" type="curve" smooth="yes"/>
      <point x="307" y="474"/>
      <point x="368" y="461"/>
      <point x="425" y="449" type="curve"/>
      <point x="425" y="-182" type="line" smooth="yes"/>
      <point x="425" y="-184"/>
      <point x="426" y="-185"/>
    </contour>
  </outline>
</glyph>
<glyph name="r" format="2">
  <advance width="355"/>
  <unicode hex="0072"/>
  <anchor x="103" y="0" name="bottom"/>
  <anchor x="207" y="478" name="top"/>
  <outline>
    <contour>
      <point x="98" y="0" type="curve" smooth="yes"/>
      <point x="108" y="0" type="line" smooth="yes"/>
      <point x="110" y="0"/>
      <point x="111" y="1"/>
      <point x="111" y="3" type="curve" smooth="yes"/>
      <point x="111" y="358" type="line"/>
      <point x="111" y="368" type="line"/>
      <point x="111" y="408"/>
      <point x="109" y="441"/>
      <point x="106" y="475" type="curve" smooth="yes"/>
      <point x="106" y="477"/>
      <point x="105" y="478"/>
      <point x="103" y="478" type="curve" smooth="yes"/>
      <point x="93" y="478" type="line" smooth="yes"/>
      <point x="91" y="478"/>
      <point x="90" y="477"/>
      <point x="90" y="475" type="curve" smooth="yes"/>
      <point x="93" y="440"/>
      <point x="95" y="406"/>
      <point x="95" y="368" type="curve" smooth="yes"/>
      <point x="95" y="3" type="line" smooth="yes"/>
      <point x="95" y="1"/>
      <point x="96" y="0"/>
    </contour>
    <contour>
      <point x="102" y="340" type="line"/>
      <point x="154" y="406"/>
      <point x="217" y="473"/>
      <point x="292" y="473" type="curve" smooth="yes"/>
      <point x="306" y="473"/>
      <point x="316" y="472"/>
      <point x="321" y="471" type="curve" smooth="yes"/>
      <point x="327" y="470"/>
      <point x="328" y="471"/>
      <point x="328" y="475" type="curve" smooth="yes"/>
      <point x="328" y="477"/>
      <point x="328" y="479"/>
      <point x="328" y="483" type="curve" smooth="yes"/>
      <point x="328" y="485"/>
      <point x="328" y="486"/>
      <point x="325" y="487" type="curve" smooth="yes"/>
      <point x="317" y="489"/>
      <point x="305" y="490"/>
      <point x="291" y="490" type="curve" smooth="yes"/>
      <point x="207" y="490"/>
      <point x="143" y="414"/>
      <point x="102" y="361" type="curve"/>
    </contour>
  </outline>
</glyph>
<glyph name="s" format="2">
  <advance width="438"/>
  <unicode hex="0073"/>
  <anchor x="219" y="0" name="bottom"/>
  <anchor x="219" y="478" name="top"/>
  <outline>
    <contour>
      <point x="221" y="-12" type="curve" smooth="yes"/>
      <point x="336" y="-12"/>
      <point x="384" y="26"/>
      <point x="384" y="105" type="curve" smooth="yes"/>
      <point x="384" y="171"/>
      <point x="357" y="200"/>
      <point x="292" y="230" type="curve" smooth="yes"/>
      <point x="169" y="286" type="line" smooth="yes"/>
      <point x="105" y="315"/>
      <point x="84" y="335"/>
      <point x="84" y="390" type="curve" smooth="yes"/>
      <point x="84" y="447"/>
      <point x="135" y="474"/>
      <point x="221" y="474" type="curve" smooth="yes"/>
      <point x="317" y="474"/>
      <point x="355" y="435"/>
      <point x="355" y="369" type="curve" smooth="yes"/>
      <point x="355" y="367"/>
      <point x="356" y="366"/>
      <point x="358" y="366" type="curve" smooth="yes"/>
      <point x="368" y="366" type="line" smooth="yes"/>
      <point x="370" y="366"/>
      <point x="371" y="367"/>
      <point x="371" y="369" type="curve" smooth="yes"/>
      <point x="371" y="445"/>
      <point x="327" y="490"/>
      <point x="221" y="490" type="curve" smooth="yes"/>
      <point x="125" y="490"/>
      <point x="68" y="455"/>
      <point x="68" y="390" type="curve" smooth="yes"/>
      <point x="68" y="328"/>
      <point x="94" y="302"/>
      <point x="160" y="272" type="curve" smooth="yes"/>
      <point x="282" y="217" type="line" smooth="yes"/>
      <point x="346" y="188"/>
      <point x="368" y="159"/>
      <point x="368" y="105" type="curve" smooth="yes"/>
      <point x="368" y="35"/>
      <point x="325" y="4"/>
      <point x="221" y="4" type="curve" smooth="yes"/>
      <point x="122" y="4"/>
      <point x="80" y="39"/>
      <point x="80" y="129" type="curve" smooth="yes"/>
      <point x="80" y="131"/>
      <point x="79" y="132"/>
      <point x="77" y="132" type="curve" smooth="yes"/>
      <point x="66" y="132" type="line" smooth="yes"/>
      <point x="64" y="132"/>
      <point x="63" y="131"/>
      <point x="63" y="129" type="curve" smooth="yes"/>
      <point x="63" y="30"/>
      <point x="110" y="-12"/>
    </contour>
  </outline>
</glyph>
<glyph name="t" format="2">
  <advance width="390"/>
  <unicode hex="0074"/>
  <anchor x="229" y="0" name="bottom"/>
  <anchor x="196" y="239" name="center"/>
  <anchor x="196" y="478" name="top"/>
  <anchor x="372" y="478" name="topright"/>
  <outline>
    <contour>
      <point x="243" y="-12" type="curve" smooth="yes"/>
      <point x="274" y="-12"/>
      <point x="311" y="-5"/>
      <point x="338" y="7" type="curve" smooth="yes"/>
      <point x="340" y="8"/>
      <point x="340" y="9"/>
      <point x="340" y="11" type="curve" smooth="yes"/>
      <point x="340" y="21" type="line" smooth="yes"/>
      <point x="340" y="24"/>
      <point x="339" y="25"/>
      <point x="337" y="24" type="curve" smooth="yes"/>
      <point x="311" y="11"/>
      <point x="275" y="4"/>
      <point x="243" y="4" type="curve" smooth="yes"/>
      <point x="172" y="4"/>
      <point x="143" y="39"/>
      <point x="143" y="129" type="curve" smooth="yes"/>
      <point x="143" y="462" type="line"/>
      <point x="331" y="462" type="line" smooth="yes"/>
      <point x="333" y="462"/>
      <point x="334" y="463"/>
      <point x="334" y="465" type="curve" smooth="yes"/>
      <point x="334" y="475" type="line" smooth="yes"/>
      <point x="334" y="477"/>
      <point x="333" y="478"/>
      <point x="331" y="478" type="curve" smooth="yes"/>
      <point x="143" y="478" type="line"/>
      <point x="143" y="615" type="line" smooth="yes"/>
      <point x="143" y="617"/>
      <point x="142" y="618"/>
      <point x="140" y="618" type="curve" smooth="yes"/>
      <point x="132" y="618" type="line" smooth="yes"/>
      <point x="130" y="618"/>
      <point x="129" y="617"/>
      <point x="129" y="615" type="curve" smooth="yes"/>
      <point x="127" y="478" type="line"/>
      <point x="41" y="478" type="line" smooth="yes"/>
      <point x="39" y="478"/>
      <point x="38" y="477"/>
      <point x="38" y="475" type="curve" smooth="yes"/>
      <point x="38" y="465" type="line" smooth="yes"/>
      <point x="38" y="463"/>
      <point x="39" y="462"/>
      <point x="41" y="462" type="curve" smooth="yes"/>
      <point x="127" y="462" type="line"/>
      <point x="127" y="129" type="line" smooth="yes"/>
      <point x="127" y="26"/>
      <point x="165" y="-12"/>
    </contour>
  </outline>
</glyph>
<glyph name="u" format="2">
  <advance width="546"/>
  <unicode hex="0075"/>
  <anchor x="274" y="0" name="bottom"/>
  <anchor x="469" y="10" name="ogonek"/>
  <anchor x="273" y="478" name="top"/>
  <anchor x="524" y="478" name="topright"/>
  <outline>
    <contour>
      <point x="231" y="-12" type="curve" smooth="yes"/>
      <point x="303" y="-12"/>
      <point x="370" y="29"/>
      <point x="439" y="110" type="curve"/>
      <point x="439" y="132" type="line"/>
      <point x="374" y="55"/>
      <point x="308" y="4"/>
      <point x="232" y="4" type="curve" smooth="yes"/>
      <point x="152" y="4"/>
      <point x="111" y="50"/>
      <point x="111" y="150" type="curve" smooth="yes"/>
      <point x="111" y="475" type="line" smooth="yes"/>
      <point x="111" y="477"/>
      <point x="110" y="478"/>
      <point x="108" y="478" type="curve" smooth="yes"/>
      <point x="98" y="478" type="line" smooth="yes"/>
      <point x="96" y="478"/>
      <point x="95" y="477"/>
      <point x="95" y="475" type="curve" smooth="yes"/>
      <point x="95" y="149" type="line" smooth="yes"/>
      <point x="95" y="39"/>
      <point x="143" y="-12"/>
    </contour>
    <contour>
      <point x="443" y="0" type="curve" smooth="yes"/>
      <point x="453" y="0" type="line" smooth="yes"/>
      <point x="455" y="0"/>
      <point x="456" y="1"/>
      <point x="456" y="3" type="curve" smooth="yes"/>
      <point x="453" y="39"/>
      <point x="451" y="73"/>
      <point x="451" y="110" type="curve" smooth="yes"/>
      <point x="451" y="475" type="line" smooth="yes"/>
      <point x="451" y="477"/>
      <point x="450" y="478"/>
      <point x="448" y="478" type="curve" smooth="yes"/>
      <point x="438" y="478" type="line" smooth="yes"/>
      <point x="436" y="478"/>
      <point x="435" y="477"/>
      <point x="435" y="475" type="curve" smooth="yes"/>
      <point x="435" y="119" type="line"/>
      <point x="435" y="110" type="line" smooth="yes"/>
      <point x="435" y="72"/>
      <point x="437" y="39"/>
      <point x="440" y="3" type="curve" smooth="yes"/>
      <point x="440" y="1"/>
      <point x="441" y="0"/>
    </contour>
  </outline>
</glyph>
<glyph name="v" format="2">
  <advance width="474"/>
  <unicode hex="0076"/>
  <anchor x="237" y="0" name="bottom"/>
  <anchor x="237" y="478" name="top"/>
  <outline>
    <contour>
      <point x="230" y="0" type="curve" smooth="yes"/>
      <point x="245" y="0" type="line" smooth="yes"/>
      <point x="247" y="0"/>
      <point x="248" y="0"/>
      <point x="249" y="2" type="curve" smooth="yes"/>
      <point x="440" y="475" type="line" smooth="yes"/>
      <point x="441" y="477"/>
      <point x="440" y="478"/>
      <point x="437" y="478" type="curve" smooth="yes"/>
      <point x="426" y="478" type="line" smooth="yes"/>
      <point x="424" y="478"/>
      <point x="423" y="478"/>
      <point x="422" y="476" type="curve" smooth="yes"/>
      <point x="288" y="142" type="line" smooth="yes"/>
      <point x="271" y="100"/>
      <point x="255" y="57"/>
      <point x="238" y="15" type="curve"/>
      <point x="237" y="15" type="line"/>
      <point x="221" y="56"/>
      <point x="204" y="98"/>
      <point x="188" y="139" type="curve" smooth="yes"/>
      <point x="52" y="476" type="line" smooth="yes"/>
      <point x="51" y="478"/>
      <point x="50" y="478"/>
      <point x="48" y="478" type="curve" smooth="yes"/>
      <point x="37" y="478" type="line" smooth="yes"/>
      <point x="34" y="478"/>
      <point x="33" y="477"/>
      <point x="34" y="475" type="curve" smooth="yes"/>
      <point x="226" y="2" type="line" smooth="yes"/>
      <point x="227" y="0"/>
      <point x="228" y="0"/>
    </contour>
  </outline>
</glyph>
<glyph name="w" format="2">
  <advance width="693"/>
  <unicode hex="0077"/>
  <anchor x="347" y="0" name="bottom"/>
  <anchor x="347" y="478" name="top"/>
  <outline>
    <contour>
      <point x="210" y="0" type="curve" smooth="yes"/>
      <point x="227" y="0" type="line" smooth="yes"/>
      <point x="229" y="0"/>
      <point x="230" y="0"/>
      <point x="231" y="2" type="curve"/>
      <point x="284" y="161" type="line" smooth="yes"/>
      <point x="305" y="224"/>
      <point x="326" y="287"/>
      <point x="346" y="350" type="curve"/>
      <point x="347" y="350" type="line"/>
      <point x="367" y="287"/>
      <point x="388" y="224"/>
      <point x="409" y="162" type="curve" smooth="yes"/>
      <point x="462" y="2" type="line"/>
      <point x="463" y="0"/>
      <point x="464" y="0"/>
      <point x="466" y="0" type="curve" smooth="yes"/>
      <point x="483" y="0" type="line" smooth="yes"/>
      <point x="485" y="0"/>
      <point x="486" y="0"/>
      <point x="487" y="2" type="curve"/>
      <point x="659" y="475" type="line" smooth="yes"/>
      <point x="660" y="477"/>
      <point x="659" y="478"/>
      <point x="657" y="478" type="curve" smooth="yes"/>
      <point x="645" y="478" type="line" smooth="yes"/>
      <point x="643" y="478"/>
      <point x="642" y="478"/>
      <point x="641" y="476" type="curve" smooth="yes"/>
      <point x="528" y="162" type="line" smooth="yes"/>
      <point x="510" y="113"/>
      <point x="493" y="65"/>
      <point x="475" y="16" type="curve"/>
      <point x="474" y="16" type="line"/>
      <point x="458" y="65"/>
      <point x="442" y="113"/>
      <point x="426" y="162" type="curve" smooth="yes"/>
      <point x="324" y="471" type="line" smooth="yes"/>
      <point x="323" y="473"/>
      <point x="322" y="473"/>
      <point x="320" y="473" type="curve" smooth="yes"/>
      <point x="311" y="473" type="line" smooth="yes"/>
      <point x="309" y="473"/>
      <point x="307" y="472"/>
      <point x="308" y="470" type="curve" smooth="yes"/>
      <point x="340" y="374" type="line"/>
      <point x="268" y="161" type="line" smooth="yes"/>
      <point x="252" y="113"/>
      <point x="235" y="64"/>
      <point x="219" y="16" type="curve"/>
      <point x="218" y="16" type="line"/>
      <point x="200" y="65"/>
      <point x="183" y="113"/>
      <point x="165" y="162" type="curve" smooth="yes"/>
      <point x="52" y="476" type="line" smooth="yes"/>
      <point x="51" y="478"/>
      <point x="50" y="478"/>
      <point x="48" y="478" type="curve" smooth="yes"/>
      <point x="37" y="478" type="line" smooth="yes"/>
      <point x="35" y="478"/>
      <point x="33" y="477"/>
      <point x="34" y="475" type="curve" smooth="yes"/>
      <point x="206" y="2" type="line"/>
      <point x="207" y="0"/>
      <point x="208" y="0"/>
    </contour>
  </outline>
</glyph>
<glyph name="x" format="2">
  <advance width="456"/>
  <unicode hex="0078"/>
  <anchor x="228" y="0" name="bottom"/>
  <anchor x="228" y="478" name="top"/>
  <outline>
    <contour>
      <point x="24" y="0" type="curve" smooth="yes"/>
      <point x="37" y="0" type="line" smooth="yes"/>
      <point x="39" y="0"/>
      <point x="40" y="0"/>
      <point x="41" y="2" type="curve"/>
      <point x="167" y="162" type="line" smooth="yes"/>
      <point x="187" y="188"/>
      <point x="208" y="214"/>
      <point x="228" y="240" type="curve"/>
      <point x="229" y="240" type="line"/>
      <point x="250" y="214"/>
      <point x="270" y="187"/>
      <point x="291" y="161" type="curve" smooth="yes"/>
      <point x="415" y="2" type="line"/>
      <point x="416" y="0"/>
      <point x="417" y="0"/>
      <point x="419" y="0" type="curve" smooth="yes"/>
      <point x="432" y="0" type="line" smooth="yes"/>
      <point x="434" y="0"/>
      <point x="435" y="2"/>
      <point x="434" y="4" type="curve"/>
      <point x="239" y="252" type="line"/>
      <point x="414" y="474" type="line"/>
      <point x="415" y="476"/>
      <point x="414" y="478"/>
      <point x="412" y="478" type="curve" smooth="yes"/>
      <point x="400" y="478" type="line" smooth="yes"/>
      <point x="398" y="478"/>
      <point x="396" y="478"/>
      <point x="395" y="476" type="curve"/>
      <point x="283" y="333" type="line" smooth="yes"/>
      <point x="265" y="310"/>
      <point x="247" y="287"/>
      <point x="229" y="264" type="curve"/>
      <point x="228" y="264" type="line"/>
      <point x="209" y="288"/>
      <point x="191" y="311"/>
      <point x="172" y="335" type="curve" smooth="yes"/>
      <point x="61" y="476" type="line"/>
      <point x="60" y="478"/>
      <point x="59" y="478"/>
      <point x="57" y="478" type="curve" smooth="yes"/>
      <point x="44" y="478" type="line" smooth="yes"/>
      <point x="42" y="478"/>
      <point x="41" y="476"/>
      <point x="42" y="474" type="curve"/>
      <point x="218" y="252" type="line"/>
      <point x="22" y="4" type="line"/>
      <point x="21" y="2"/>
      <point x="22" y="0"/>
    </contour>
  </outline>
</glyph>
<glyph name="z" format="2">
  <advance width="450"/>
  <unicode hex="007A"/>
  <anchor x="225" y="0" name="bottom"/>
  <anchor x="228" y="478" name="top"/>
  <outline>
    <contour>
      <point x="37" y="0" type="curve" smooth="yes"/>
      <point x="401" y="0" type="line" smooth="yes"/>
      <point x="403" y="0"/>
      <point x="404" y="1"/>
      <point x="404" y="3" type="curve" smooth="yes"/>
      <point x="404" y="13" type="line" smooth="yes"/>
      <point x="404" y="15"/>
      <point x="403" y="16"/>
      <point x="401" y="16" type="curve" smooth="yes"/>
      <point x="136" y="16" type="line" smooth="yes"/>
      <point x="110" y="16"/>
      <point x="84" y="16"/>
      <point x="58" y="16" type="curve"/>
      <point x="58" y="17" type="line"/>
      <point x="76" y="40"/>
      <point x="95" y="63"/>
      <point x="113" y="86" type="curve" smooth="yes"/>
      <point x="413" y="462" type="line" smooth="yes"/>
      <point x="415" y="465"/>
      <point x="416" y="467"/>
      <point x="416" y="470" type="curve" smooth="yes"/>
      <point x="416" y="474" type="line" smooth="yes"/>
      <point x="416" y="476"/>
      <point x="415" y="478"/>
      <point x="413" y="478" type="curve" smooth="yes"/>
      <point x="60" y="478" type="line" smooth="yes"/>
      <point x="58" y="478"/>
      <point x="57" y="477"/>
      <point x="57" y="475" type="curve" smooth="yes"/>
      <point x="57" y="465" type="line" smooth="yes"/>
      <point x="57" y="463"/>
      <point x="58" y="462"/>
      <point x="60" y="462" type="curve" smooth="yes"/>
      <point x="297" y="462" type="line" smooth="yes"/>
      <point x="328" y="462"/>
      <point x="360" y="462"/>
      <point x="391" y="462" type="curve"/>
      <point x="391" y="461" type="line"/>
      <point x="373" y="439"/>
      <point x="356" y="416"/>
      <point x="338" y="394" type="curve" smooth="yes"/>
      <point x="37" y="16" type="line" smooth="yes"/>
      <point x="35" y="14"/>
      <point x="34" y="11"/>
      <point x="34" y="8" type="curve" smooth="yes"/>
      <point x="34" y="5" type="line" smooth="yes"/>
      <point x="34" y="3"/>
      <point x="35" y="0"/>
    </contour>
  </outline>
</glyph>
<glyph name="braceleft" format="2">
  <advance width="255"/>
  <unicode hex="007B"/>
  <outline>
    <contour>
      <point x="252" y="-142" type="curve" smooth="yes"/>
      <point x="254" y="-142"/>
      <point x="255" y="-141"/>
      <point x="255" y="-139" type="curve" smooth="yes"/>
      <point x="255" y="-129" type="line" smooth="yes"/>
      <point x="255" y="-127"/>
      <point x="254" y="-126"/>
      <point x="252" y="-126" type="curve" smooth="yes"/>
      <point x="144" y="-126"/>
      <point x="131" y="-99"/>
      <point x="131" y="11" type="curve" smooth="yes"/>
      <point x="131" y="181" type="line" smooth="yes"/>
      <point x="131" y="241"/>
      <point x="117" y="271"/>
      <point x="84" y="278" type="curve"/>
      <point x="117" y="285"/>
      <point x="131" y="315"/>
      <point x="131" y="375" type="curve" smooth="yes"/>
      <point x="131" y="544" type="line" smooth="yes"/>
      <point x="131" y="654"/>
      <point x="144" y="681"/>
      <point x="252" y="681" type="curve" smooth="yes"/>
      <point x="254" y="681"/>
      <point x="255" y="682"/>
      <point x="255" y="684" type="curve" smooth="yes"/>
      <point x="255" y="694" type="line" smooth="yes"/>
      <point x="255" y="696"/>
      <point x="254" y="697"/>
      <point x="252" y="697" type="curve" smooth="yes"/>
      <point x="134" y="697"/>
      <point x="115" y="665"/>
      <point x="115" y="543" type="curve" smooth="yes"/>
      <point x="115" y="375" type="line" smooth="yes"/>
      <point x="115" y="315"/>
      <point x="99" y="286"/>
      <point x="54" y="286" type="curve" smooth="yes"/>
      <point x="27" y="286" type="line" smooth="yes"/>
      <point x="25" y="286"/>
      <point x="24" y="285"/>
      <point x="24" y="283" type="curve" smooth="yes"/>
      <point x="24" y="273" type="line" smooth="yes"/>
      <point x="24" y="271"/>
      <point x="25" y="270"/>
      <point x="27" y="270" type="curve" smooth="yes"/>
      <point x="54" y="270" type="line" smooth="yes"/>
      <point x="99" y="270"/>
      <point x="115" y="241"/>
      <point x="115" y="181" type="curve" smooth="yes"/>
      <point x="115" y="12" type="line" smooth="yes"/>
      <point x="115" y="-110"/>
      <point x="134" y="-142"/>
    </contour>
  </outline>
</glyph>
<glyph name="braceright" format="2">
  <advance width="255"/>
  <unicode hex="007D"/>
  <outline>
    <contour>
      <point x="3" y="-142" type="curve" smooth="yes"/>
      <point x="121" y="-142"/>
      <point x="140" y="-110"/>
      <point x="140" y="12" type="curve" smooth="yes"/>
      <point x="140" y="181" type="line" smooth="yes"/>
      <point x="140" y="241"/>
      <point x="156" y="270"/>
      <point x="201" y="270" type="curve" smooth="yes"/>
      <point x="228" y="270" type="line" smooth="yes"/>
      <point x="230" y="270"/>
      <point x="231" y="271"/>
      <point x="231" y="273" type="curve" smooth="yes"/>
      <point x="231" y="283" type="line" smooth="yes"/>
      <point x="231" y="285"/>
      <point x="230" y="286"/>
      <point x="228" y="286" type="curve" smooth="yes"/>
      <point x="201" y="286" type="line" smooth="yes"/>
      <point x="156" y="286"/>
      <point x="140" y="315"/>
      <point x="140" y="375" type="curve" smooth="yes"/>
      <point x="140" y="543" type="line" smooth="yes"/>
      <point x="140" y="665"/>
      <point x="121" y="697"/>
      <point x="3" y="697" type="curve" smooth="yes"/>
      <point x="1" y="697"/>
      <point x="0" y="696"/>
      <point x="0" y="694" type="curve" smooth="yes"/>
      <point x="0" y="684" type="line" smooth="yes"/>
      <point x="0" y="682"/>
      <point x="1" y="681"/>
      <point x="3" y="681" type="curve" smooth="yes"/>
      <point x="111" y="681"/>
      <point x="124" y="654"/>
      <point x="124" y="544" type="curve" smooth="yes"/>
      <point x="124" y="375" type="line" smooth="yes"/>
      <point x="124" y="315"/>
      <point x="138" y="285"/>
      <point x="171" y="278" type="curve"/>
      <point x="138" y="271"/>
      <point x="124" y="241"/>
      <point x="124" y="181" type="curve" smooth="yes"/>
      <point x="124" y="11" type="line" smooth="yes"/>
      <point x="124" y="-99"/>
      <point x="111" y="-126"/>
      <point x="3" y="-126" type="curve" smooth="yes"/>
      <point x="1" y="-126"/>
      <point x="0" y="-127"/>
      <point x="0" y="-129" type="curve" smooth="yes"/>
      <point x="0" y="-139" type="line" smooth="yes"/>
      <point x="0" y="-141"/>
      <point x="1" y="-142"/>
    </contour>
  </outline>
</glyph>
<glyph name="asciitilde" format="2">
  <advance width="600"/>
  <unicode hex="007E"/>
  <outline>
    <contour>
      <point x="387" y="276" type="curve" smooth="yes"/>
      <point x="415.2" y="276"/>
      <point x="451" y="283"/>
      <point x="488" y="301" type="curve" smooth="yes"/>
      <point x="489" y="302"/>
      <point x="490" y="303"/>
      <point x="490" y="304" type="curve" smooth="yes"/>
      <point x="490" y="316" type="line" smooth="yes"/>
      <point x="490" y="318"/>
      <point x="489" y="319"/>
      <point x="487" y="318" type="curve" smooth="yes"/>
      <point x="462" y="306"/>
      <point x="424" y="292"/>
      <point x="389" y="292" type="curve" smooth="yes"/>
      <point x="316" y="292"/>
      <point x="281" y="328"/>
      <point x="213" y="328" type="curve" smooth="yes"/>
      <point x="184.8" y="328"/>
      <point x="149" y="321"/>
      <point x="112" y="303" type="curve" smooth="yes"/>
      <point x="111" y="302"/>
      <point x="110" y="301"/>
      <point x="110" y="300" type="curve" smooth="yes"/>
      <point x="110" y="288" type="line" smooth="yes"/>
      <point x="110" y="286"/>
      <point x="111" y="285"/>
      <point x="113" y="286" type="curve" smooth="yes"/>
      <point x="138" y="298"/>
      <point x="176" y="312"/>
      <point x="211" y="312" type="curve" smooth="yes"/>
      <point x="276" y="312"/>
      <point x="322" y="276"/>
    </contour>
  </outline>
</glyph>
<glyph name="exclamdown" format="2">
  <advance width="196"/>
  <unicode hex="00A1"/>
  <outline>
    <contour>
      <point x="94" y="318" type="line" smooth="yes"/>
      <point x="92" y="318"/>
      <point x="91" y="317"/>
      <point x="91" y="315" type="curve" smooth="yes"/>
      <point x="90" y="-174" type="line" smooth="yes"/>
      <point x="90" y="-176"/>
      <point x="91" y="-177"/>
      <point x="93" y="-177" type="curve" smooth="yes"/>
      <point x="104" y="-177" type="line" smooth="yes"/>
      <point x="106" y="-177"/>
      <point x="107" y="-176"/>
      <point x="107" y="-174" type="curve" smooth="yes"/>
      <point x="106" y="315" type="line" smooth="yes"/>
      <point x="106" y="317"/>
      <point x="105" y="318"/>
      <point x="103" y="318" type="curve" smooth="yes"/>
    </contour>
    <contour>
      <point x="98" y="490" type="curve" smooth="yes"/>
      <point x="88" y="490"/>
      <point x="80" y="483"/>
      <point x="80" y="472" type="curve" smooth="yes"/>
      <point x="80" y="466" type="line" smooth="yes"/>
      <point x="80" y="456"/>
      <point x="88" y="449"/>
      <point x="98" y="449" type="curve" smooth="yes"/>
      <point x="108" y="449"/>
      <point x="116" y="456"/>
      <point x="116" y="466" type="curve" smooth="yes"/>
      <point x="116" y="472" type="line" smooth="yes"/>
      <point x="116" y="483"/>
      <point x="108" y="490"/>
    </contour>
  </outline>
</glyph>
<glyph name="cent" format="2">
  <advance width="600"/>
  <unicode hex="00A2"/>
  <outline>
    <contour>
      <point x="303" y="528" type="line"/>
      <point x="319" y="528" type="line"/>
      <point x="319" y="615" type="line" smooth="yes"/>
      <point x="319" y="617"/>
      <point x="318" y="618"/>
      <point x="316" y="618" type="curve" smooth="yes"/>
      <point x="306" y="618" type="line" smooth="yes"/>
      <point x="304" y="618"/>
      <point x="303" y="617"/>
      <point x="303" y="615" type="curve" smooth="yes"/>
    </contour>
    <contour>
      <point x="306" y="-37" type="curve" smooth="yes"/>
      <point x="316" y="-37" type="line" smooth="yes"/>
      <point x="318" y="-37"/>
      <point x="319" y="-36"/>
      <point x="319" y="-34" type="curve" smooth="yes"/>
      <point x="319" y="48" type="line"/>
      <point x="303" y="48" type="line"/>
      <point x="303" y="-34" type="line" smooth="yes"/>
      <point x="303" y="-36"/>
      <point x="304" y="-37"/>
    </contour>
    <component base="c" xOffset="49" yOffset="50"/>
  </outline>
</glyph>
<glyph name="sterling" format="2">
  <advance width="600"/>
  <unicode hex="00A3"/>
  <outline>
    <contour>
      <point x="137" y="0" type="curve" smooth="yes"/>
      <point x="502" y="0" type="line" smooth="yes"/>
      <point x="504" y="0"/>
      <point x="505" y="1"/>
      <point x="505" y="3" type="curve" smooth="yes"/>
      <point x="505" y="13" type="line" smooth="yes"/>
      <point x="505" y="15"/>
      <point x="504" y="16"/>
      <point x="502" y="16" type="curve" smooth="yes"/>
      <point x="157" y="16" type="line"/>
      <point x="180" y="45"/>
      <point x="196" y="83"/>
      <point x="196" y="150" type="curve" smooth="yes"/>
      <point x="196" y="503" type="line" smooth="yes"/>
      <point x="196" y="607"/>
      <point x="245" y="651"/>
      <point x="333" y="651" type="curve" smooth="yes"/>
      <point x="439" y="651"/>
      <point x="465" y="591"/>
      <point x="465" y="499" type="curve" smooth="yes"/>
      <point x="465" y="497"/>
      <point x="466" y="496"/>
      <point x="468" y="496" type="curve" smooth="yes"/>
      <point x="478" y="496" type="line" smooth="yes"/>
      <point x="480" y="496"/>
      <point x="481" y="497"/>
      <point x="481" y="499" type="curve" smooth="yes"/>
      <point x="481" y="600"/>
      <point x="449" y="667"/>
      <point x="333" y="667" type="curve" smooth="yes"/>
      <point x="237" y="667"/>
      <point x="180" y="619"/>
      <point x="180" y="502" type="curve" smooth="yes"/>
      <point x="180" y="146" type="line" smooth="yes"/>
      <point x="180" y="92"/>
      <point x="164" y="47"/>
      <point x="135" y="14" type="curve" smooth="yes"/>
      <point x="134" y="13"/>
      <point x="134" y="13"/>
      <point x="134" y="11" type="curve" smooth="yes"/>
      <point x="134" y="3" type="line" smooth="yes"/>
      <point x="134" y="1"/>
      <point x="135" y="0"/>
    </contour>
    <contour>
      <point x="92" y="341" type="curve" smooth="yes"/>
      <point x="388" y="341" type="line" smooth="yes"/>
      <point x="390" y="341"/>
      <point x="391" y="342"/>
      <point x="391" y="344" type="curve" smooth="yes"/>
      <point x="391" y="354" type="line" smooth="yes"/>
      <point x="391" y="356"/>
      <point x="390" y="357"/>
      <point x="388" y="357" type="curve" smooth="yes"/>
      <point x="92" y="357" type="line" smooth="yes"/>
      <point x="90" y="357"/>
      <point x="89" y="356"/>
      <point x="89" y="354" type="curve" smooth="yes"/>
      <point x="89" y="344" type="line" smooth="yes"/>
      <point x="89" y="342"/>
      <point x="90" y="341"/>
    </contour>
  </outline>
</glyph>
<glyph name="currency" format="2">
  <advance width="600"/>
  <unicode hex="00A4"/>
  <outline>
    <contour>
      <point x="91" y="129" type="curve"/>
      <point x="163" y="190" type="line"/>
      <point x="193" y="151"/>
      <point x="240" y="130"/>
      <point x="300" y="130" type="curve" smooth="yes"/>
      <point x="360" y="130"/>
      <point x="407" y="151"/>
      <point x="437" y="190" type="curve"/>
      <point x="509" y="129" type="line"/>
      <point x="510" y="128"/>
      <point x="512" y="128"/>
      <point x="513" y="129" type="curve" smooth="yes"/>
      <point x="520" y="136" type="line" smooth="yes"/>
      <point x="521" y="137"/>
      <point x="521" y="139"/>
      <point x="520" y="140" type="curve"/>
      <point x="446" y="203" type="line"/>
      <point x="463" y="232"/>
      <point x="473" y="269"/>
      <point x="473" y="314" type="curve" smooth="yes"/>
      <point x="473" y="360"/>
      <point x="463" y="399"/>
      <point x="443" y="429" type="curve"/>
      <point x="515" y="489" type="line"/>
      <point x="516" y="490"/>
      <point x="516" y="492"/>
      <point x="515" y="493" type="curve"/>
      <point x="508" y="501" type="line"/>
      <point x="507" y="502"/>
      <point x="505" y="502"/>
      <point x="504" y="501" type="curve"/>
      <point x="434" y="441" type="line"/>
      <point x="404" y="478"/>
      <point x="358" y="498"/>
      <point x="300" y="498" type="curve" smooth="yes"/>
      <point x="242" y="498"/>
      <point x="196" y="478"/>
      <point x="166" y="441" type="curve"/>
      <point x="96" y="501" type="line"/>
      <point x="95" y="502"/>
      <point x="93" y="502"/>
      <point x="92" y="501" type="curve"/>
      <point x="85" y="493" type="line"/>
      <point x="84" y="492"/>
      <point x="84" y="490"/>
      <point x="85" y="489" type="curve"/>
      <point x="157" y="429" type="line"/>
      <point x="137" y="399"/>
      <point x="127" y="360"/>
      <point x="127" y="314" type="curve" smooth="yes"/>
      <point x="127" y="269"/>
      <point x="137" y="232"/>
      <point x="154" y="203" type="curve"/>
      <point x="80" y="140" type="line"/>
      <point x="79" y="139"/>
      <point x="79" y="137"/>
      <point x="80" y="136" type="curve" smooth="yes"/>
      <point x="87" y="129" type="line" smooth="yes"/>
      <point x="88" y="128"/>
      <point x="90" y="128"/>
    </contour>
    <contour>
      <point x="300" y="146" type="curve" smooth="yes"/>
      <point x="203" y="146"/>
      <point x="143" y="203"/>
      <point x="143" y="314" type="curve" smooth="yes"/>
      <point x="143" y="425"/>
      <point x="203" y="482"/>
      <point x="300" y="482" type="curve" smooth="yes"/>
      <point x="397" y="482"/>
      <point x="457" y="425"/>
      <point x="457" y="314" type="curve" smooth="yes"/>
      <point x="457" y="203"/>
      <point x="397" y="146"/>
    </contour>
  </outline>
</glyph>
<glyph name="yen" format="2">
  <advance width="600"/>
  <unicode hex="00A5"/>
  <outline>
    <contour>
      <point x="295" y="0" type="curve" smooth="yes"/>
      <point x="305" y="0" type="line" smooth="yes"/>
      <point x="307" y="0"/>
      <point x="308" y="1"/>
      <point x="308" y="3" type="curve" smooth="yes"/>
      <point x="308" y="225" type="line"/>
      <point x="528" y="651" type="line" smooth="yes"/>
      <point x="529" y="653"/>
      <point x="529" y="655"/>
      <point x="526" y="655" type="curve" smooth="yes"/>
      <point x="514" y="655" type="line" smooth="yes"/>
      <point x="512" y="655"/>
      <point x="511" y="655"/>
      <point x="510" y="653" type="curve" smooth="yes"/>
      <point x="357" y="355" type="line" smooth="yes"/>
      <point x="338" y="318"/>
      <point x="320" y="281"/>
      <point x="301" y="244" type="curve"/>
      <point x="300" y="244" type="line"/>
      <point x="283" y="280"/>
      <point x="264" y="315"/>
      <point x="246" y="351" type="curve" smooth="yes"/>
      <point x="92" y="653" type="line" smooth="yes"/>
      <point x="91" y="655"/>
      <point x="91" y="655"/>
      <point x="89" y="655" type="curve" smooth="yes"/>
      <point x="75" y="655" type="line" smooth="yes"/>
      <point x="73" y="655"/>
      <point x="71" y="654"/>
      <point x="73" y="651" type="curve" smooth="yes"/>
      <point x="292" y="225" type="line"/>
      <point x="292" y="3" type="line" smooth="yes"/>
      <point x="292" y="1"/>
      <point x="293" y="0"/>
    </contour>
    <contour>
      <point x="160" y="124" type="curve" smooth="yes"/>
      <point x="440" y="124" type="line" smooth="yes"/>
      <point x="442" y="124"/>
      <point x="443" y="125"/>
      <point x="443" y="127" type="curve" smooth="yes"/>
      <point x="443" y="137" type="line" smooth="yes"/>
      <point x="443" y="139"/>
      <point x="442" y="140"/>
      <point x="440" y="140" type="curve" smooth="yes"/>
      <point x="160" y="140" type="line" smooth="yes"/>
      <point x="158" y="140"/>
      <point x="157" y="139"/>
      <point x="157" y="137" type="curve" smooth="yes"/>
      <point x="157" y="127" type="line" smooth="yes"/>
      <point x="157" y="125"/>
      <point x="158" y="124"/>
    </contour>
    <contour>
      <point x="160" y="225" type="curve" smooth="yes"/>
      <point x="440" y="225" type="line" smooth="yes"/>
      <point x="442" y="225"/>
      <point x="443" y="226"/>
      <point x="443" y="228" type="curve" smooth="yes"/>
      <point x="443" y="238" type="line" smooth="yes"/>
      <point x="443" y="240"/>
      <point x="442" y="241"/>
      <point x="440" y="241" type="curve" smooth="yes"/>
      <point x="160" y="241" type="line" smooth="yes"/>
      <point x="158" y="241"/>
      <point x="157" y="240"/>
      <point x="157" y="238" type="curve" smooth="yes"/>
      <point x="157" y="228" type="line" smooth="yes"/>
      <point x="157" y="226"/>
      <point x="158" y="225"/>
    </contour>
  </outline>
</glyph>
<glyph name="brokenbar" format="2">
  <advance width="226"/>
  <unicode hex="00A6"/>
  <outline>
    <contour>
      <point x="108" y="392" type="curve" smooth="yes"/>
      <point x="118" y="392" type="line" smooth="yes"/>
      <point x="120" y="392"/>
      <point x="121" y="393"/>
      <point x="121" y="395" type="curve" smooth="yes"/>
      <point x="121" y="827" type="line" smooth="yes"/>
      <point x="121" y="829"/>
      <point x="120" y="830"/>
      <point x="118" y="830" type="curve" smooth="yes"/>
      <point x="108" y="830" type="line" smooth="yes"/>
      <point x="106" y="830"/>
      <point x="105" y="829"/>
      <point x="105" y="827" type="curve" smooth="yes"/>
      <point x="105" y="395" type="line" smooth="yes"/>
      <point x="105" y="393"/>
      <point x="106" y="392"/>
    </contour>
    <contour>
      <point x="108" y="-185" type="curve" smooth="yes"/>
      <point x="118" y="-185" type="line" smooth="yes"/>
      <point x="120" y="-185"/>
      <point x="121" y="-184"/>
      <point x="121" y="-182" type="curve" smooth="yes"/>
      <point x="121" y="250" type="line" smooth="yes"/>
      <point x="121" y="252"/>
      <point x="120" y="253"/>
      <point x="118" y="253" type="curve" smooth="yes"/>
      <point x="108" y="253" type="line" smooth="yes"/>
      <point x="106" y="253"/>
      <point x="105" y="252"/>
      <point x="105" y="250" type="curve" smooth="yes"/>
      <point x="105" y="-182" type="line" smooth="yes"/>
      <point x="105" y="-184"/>
      <point x="106" y="-185"/>
    </contour>
  </outline>
</glyph>
<glyph name="section" format="2">
  <advance width="443"/>
  <unicode hex="00A7"/>
  <outline>
    <contour>
      <point x="259" y="115" type="line"/>
      <point x="349.277" y="127.311"/>
      <point x="399" y="172.771"/>
      <point x="399" y="243" type="curve" smooth="yes"/>
      <point x="399" y="298.517"/>
      <point x="380" y="323"/>
      <point x="308" y="365" type="curve" smooth="yes"/>
      <point x="172" y="444" type="line" smooth="yes"/>
      <point x="127" y="470"/>
      <point x="88" y="497"/>
      <point x="88" y="558" type="curve" smooth="yes"/>
      <point x="88" y="619.69"/>
      <point x="134.124" y="651"/>
      <point x="225" y="651" type="curve" smooth="yes"/>
      <point x="323.257" y="651"/>
      <point x="369" y="617.646"/>
      <point x="369" y="546" type="curve" smooth="yes"/>
      <point x="369" y="544"/>
      <point x="370" y="543"/>
      <point x="372" y="543" type="curve" smooth="yes"/>
      <point x="382" y="543" type="line" smooth="yes"/>
      <point x="384" y="543"/>
      <point x="385" y="544"/>
      <point x="385" y="546" type="curve" smooth="yes"/>
      <point x="385" y="627.862"/>
      <point x="331" y="667"/>
      <point x="225" y="667" type="curve" smooth="yes"/>
      <point x="125.766" y="667"/>
      <point x="72" y="628.696"/>
      <point x="72" y="558" type="curve" smooth="yes"/>
      <point x="72" y="488"/>
      <point x="115" y="459"/>
      <point x="165" y="430" type="curve" smooth="yes"/>
      <point x="301" y="351" type="line" smooth="yes"/>
      <point x="365" y="314"/>
      <point x="383" y="291.549"/>
      <point x="383" y="243" type="curve" smooth="yes"/>
      <point x="383" y="180.168"/>
      <point x="337" y="139"/>
      <point x="248" y="127" type="curve"/>
    </contour>
    <contour>
      <point x="218" y="-118" type="curve" smooth="yes"/>
      <point x="317.234" y="-118"/>
      <point x="371" y="-80"/>
      <point x="371" y="-9" type="curve" smooth="yes"/>
      <point x="371" y="60"/>
      <point x="328" y="90"/>
      <point x="278" y="119" type="curve" smooth="yes"/>
      <point x="142" y="198" type="line" smooth="yes"/>
      <point x="78" y="235"/>
      <point x="60" y="257.451"/>
      <point x="60" y="306" type="curve" smooth="yes"/>
      <point x="60" y="369.231"/>
      <point x="104" y="408"/>
      <point x="192" y="420" type="curve"/>
      <point x="175" y="433" type="line"/>
      <point x="90.418" y="418.733"/>
      <point x="44" y="373.733"/>
      <point x="44" y="306" type="curve" smooth="yes"/>
      <point x="44" y="250.484"/>
      <point x="63" y="226"/>
      <point x="135" y="184" type="curve" smooth="yes"/>
      <point x="271" y="105" type="line" smooth="yes"/>
      <point x="316" y="79"/>
      <point x="355" y="51"/>
      <point x="355" y="-9" type="curve" smooth="yes"/>
      <point x="355" y="-71"/>
      <point x="308.876" y="-102"/>
      <point x="218" y="-102" type="curve" smooth="yes"/>
      <point x="119.743" y="-102"/>
      <point x="74" y="-68.646"/>
      <point x="74" y="3" type="curve" smooth="yes"/>
      <point x="74" y="5"/>
      <point x="73" y="6"/>
      <point x="71" y="6" type="curve" smooth="yes"/>
      <point x="61" y="6" type="line" smooth="yes"/>
      <point x="59" y="6"/>
      <point x="58" y="5"/>
      <point x="58" y="3" type="curve" smooth="yes"/>
      <point x="58" y="-78.863"/>
      <point x="112" y="-118"/>
    </contour>
  </outline>
</glyph>
<glyph name="copyright" format="2">
  <advance width="702"/>
  <unicode hex="00A9"/>
  <outline>
    <contour>
      <point x="351" y="-12" type="curve" smooth="yes"/>
      <point x="520" y="-12"/>
      <point x="614" y="65"/>
      <point x="614" y="204" type="curve" smooth="yes"/>
      <point x="614" y="400" type="line" smooth="yes"/>
      <point x="614" y="539"/>
      <point x="520" y="616"/>
      <point x="351" y="616" type="curve" smooth="yes"/>
      <point x="182" y="616"/>
      <point x="88" y="539"/>
      <point x="88" y="400" type="curve" smooth="yes"/>
      <point x="88" y="204" type="line" smooth="yes"/>
      <point x="88" y="65"/>
      <point x="182" y="-12"/>
    </contour>
    <contour>
      <point x="351" y="4" type="curve" smooth="yes"/>
      <point x="193" y="4"/>
      <point x="104" y="75"/>
      <point x="104" y="201" type="curve" smooth="yes"/>
      <point x="104" y="403" type="line" smooth="yes"/>
      <point x="104" y="529"/>
      <point x="193" y="600"/>
      <point x="351" y="600" type="curve" smooth="yes"/>
      <point x="509" y="600"/>
      <point x="598" y="529"/>
      <point x="598" y="403" type="curve" smooth="yes"/>
      <point x="598" y="201" type="line" smooth="yes"/>
      <point x="598" y="75"/>
      <point x="509" y="4"/>
    </contour>
    <contour>
      <point x="361" y="127" type="curve" smooth="yes"/>
      <point x="440" y="128"/>
      <point x="479" y="163"/>
      <point x="479" y="231" type="curve" smooth="yes"/>
      <point x="479" y="233"/>
      <point x="478" y="234"/>
      <point x="476" y="234" type="curve" smooth="yes"/>
      <point x="465" y="234" type="line" smooth="yes"/>
      <point x="463" y="234"/>
      <point x="463" y="233"/>
      <point x="463" y="231" type="curve" smooth="yes"/>
      <point x="463" y="172"/>
      <point x="429" y="143"/>
      <point x="360" y="143" type="curve" smooth="yes"/>
      <point x="285" y="143"/>
      <point x="248" y="179"/>
      <point x="248" y="251" type="curve" smooth="yes"/>
      <point x="248" y="348" type="line" smooth="yes"/>
      <point x="248" y="422"/>
      <point x="285" y="461"/>
      <point x="357" y="461" type="curve" smooth="yes"/>
      <point x="422" y="461"/>
      <point x="463" y="430"/>
      <point x="463" y="378" type="curve" smooth="yes"/>
      <point x="463" y="376"/>
      <point x="463" y="375"/>
      <point x="465" y="375" type="curve" smooth="yes"/>
      <point x="477" y="375" type="line" smooth="yes"/>
      <point x="479" y="375"/>
      <point x="479" y="377"/>
      <point x="479" y="379" type="curve" smooth="yes"/>
      <point x="479" y="439"/>
      <point x="432" y="477"/>
      <point x="357" y="477" type="curve" smooth="yes"/>
      <point x="275" y="477"/>
      <point x="232" y="432"/>
      <point x="232" y="349" type="curve" smooth="yes"/>
      <point x="232" y="249" type="line" smooth="yes"/>
      <point x="232" y="170"/>
      <point x="277" y="126"/>
    </contour>
  </outline>
</glyph>
<glyph name="ordfeminine" format="2">
  <advance width="368"/>
  <unicode hex="00AA"/>
  <outline>
    <contour>
      <point x="152" y="334" type="curve" smooth="yes"/>
      <point x="191" y="334"/>
      <point x="229" y="357"/>
      <point x="277" y="410" type="curve"/>
      <point x="277" y="392"/>
      <point x="278" y="370"/>
      <point x="280" y="345" type="curve"/>
      <point x="280" y="343"/>
      <point x="281" y="342"/>
      <point x="283" y="342" type="curve" smooth="yes"/>
      <point x="293" y="342" type="line" smooth="yes"/>
      <point x="296" y="342"/>
      <point x="296" y="343"/>
      <point x="296" y="345" type="curve"/>
      <point x="294" y="367"/>
      <point x="292" y="390"/>
      <point x="292" y="415" type="curve" smooth="yes"/>
      <point x="292" y="567" type="line" smooth="yes"/>
      <point x="292" y="637"/>
      <point x="260" y="668"/>
      <point x="192" y="667" type="curve" smooth="yes"/>
      <point x="126" y="666"/>
      <point x="96" y="638"/>
      <point x="96" y="585" type="curve" smooth="yes"/>
      <point x="96" y="583"/>
      <point x="97" y="582"/>
      <point x="99" y="582" type="curve" smooth="yes"/>
      <point x="110" y="582" type="line" smooth="yes"/>
      <point x="111" y="582"/>
      <point x="112" y="584"/>
      <point x="112" y="585" type="curve" smooth="yes"/>
      <point x="112" y="629"/>
      <point x="138" y="651"/>
      <point x="193" y="651" type="curve" smooth="yes"/>
      <point x="251" y="651"/>
      <point x="276" y="626"/>
      <point x="276" y="566" type="curve" smooth="yes"/>
      <point x="276" y="529" type="line"/>
      <point x="190" y="518" type="line" smooth="yes"/>
      <point x="111" y="508"/>
      <point x="77" y="478"/>
      <point x="77" y="419" type="curve" smooth="yes"/>
      <point x="77" y="363"/>
      <point x="102" y="334"/>
    </contour>
    <contour>
      <point x="75" y="238" type="curve" smooth="yes"/>
      <point x="291" y="238" type="line" smooth="yes"/>
      <point x="293" y="238"/>
      <point x="294" y="239"/>
      <point x="294" y="241" type="curve" smooth="yes"/>
      <point x="294" y="251" type="line" smooth="yes"/>
      <point x="294" y="253"/>
      <point x="293" y="254"/>
      <point x="291" y="254" type="curve" smooth="yes"/>
      <point x="75" y="254" type="line" smooth="yes"/>
      <point x="73" y="254"/>
      <point x="72" y="253"/>
      <point x="72" y="251" type="curve" smooth="yes"/>
      <point x="72" y="241" type="line" smooth="yes"/>
      <point x="72" y="239"/>
      <point x="73" y="238"/>
    </contour>
    <contour>
      <point x="154" y="350" type="curve" smooth="yes"/>
      <point x="112" y="350"/>
      <point x="93" y="372"/>
      <point x="93" y="419" type="curve" smooth="yes"/>
      <point x="93" y="468"/>
      <point x="124" y="495"/>
      <point x="191" y="503" type="curve" smooth="yes"/>
      <point x="276" y="513" type="line"/>
      <point x="276" y="430" type="line"/>
      <point x="231" y="378"/>
      <point x="189" y="350"/>
    </contour>
  </outline>
</glyph>
<glyph name="guillemetleft" format="2">
  <advance width="453"/>
  <unicode hex="00AB"/>
  <outline>
    <contour>
      <point x="349" y="93" type="curve" smooth="yes"/>
      <point x="360" y="93" type="line" smooth="yes"/>
      <point x="362" y="93"/>
      <point x="363" y="95"/>
      <point x="362" y="97" type="curve" smooth="yes"/>
      <point x="263" y="263" type="line"/>
      <point x="363" y="429" type="line" smooth="yes"/>
      <point x="364" y="431"/>
      <point x="363" y="433"/>
      <point x="361" y="433" type="curve" smooth="yes"/>
      <point x="350" y="433" type="line" smooth="yes"/>
      <point x="349" y="433"/>
      <point x="348" y="433"/>
      <point x="347" y="431" type="curve" smooth="yes"/>
      <point x="247" y="265" type="line" smooth="yes"/>
      <point x="246" y="263"/>
      <point x="246" y="263"/>
      <point x="247" y="261" type="curve" smooth="yes"/>
      <point x="346" y="95" type="line" smooth="yes"/>
      <point x="347" y="93"/>
      <point x="348" y="93"/>
    </contour>
    <contour>
      <point x="197" y="93" type="curve" smooth="yes"/>
      <point x="208" y="93" type="line" smooth="yes"/>
      <point x="210" y="93"/>
      <point x="211" y="95"/>
      <point x="210" y="97" type="curve" smooth="yes"/>
      <point x="111" y="263" type="line"/>
      <point x="211" y="429" type="line" smooth="yes"/>
      <point x="212" y="431"/>
      <point x="211" y="433"/>
      <point x="209" y="433" type="curve" smooth="yes"/>
      <point x="198" y="433" type="line" smooth="yes"/>
      <point x="197" y="433"/>
      <point x="196" y="433"/>
      <point x="195" y="431" type="curve" smooth="yes"/>
      <point x="95" y="265" type="line" smooth="yes"/>
      <point x="94" y="263"/>
      <point x="94" y="263"/>
      <point x="95" y="261" type="curve" smooth="yes"/>
      <point x="194" y="95" type="line" smooth="yes"/>
      <point x="195" y="93"/>
      <point x="196" y="93"/>
    </contour>
  </outline>
</glyph>
<glyph name="logicalnot" format="2">
  <advance width="600"/>
  <unicode hex="00AC"/>
  <outline>
    <contour>
      <point x="477" y="123" type="curve" smooth="yes"/>
      <point x="487" y="123" type="line" smooth="yes"/>
      <point x="489" y="123"/>
      <point x="490" y="124"/>
      <point x="490" y="126" type="curve" smooth="yes"/>
      <point x="490" y="306" type="line" smooth="yes"/>
      <point x="490" y="308"/>
      <point x="489" y="309"/>
      <point x="487" y="309" type="curve" smooth="yes"/>
      <point x="113" y="309" type="line" smooth="yes"/>
      <point x="111" y="309"/>
      <point x="110" y="308"/>
      <point x="110" y="306" type="curve" smooth="yes"/>
      <point x="110" y="296" type="line" smooth="yes"/>
      <point x="110" y="294"/>
      <point x="111" y="293"/>
      <point x="113" y="293" type="curve" smooth="yes"/>
      <point x="474" y="293" type="line"/>
      <point x="474" y="126" type="line" smooth="yes"/>
      <point x="474" y="124"/>
      <point x="475" y="123"/>
    </contour>
  </outline>
</glyph>
<glyph name="registered" format="2">
  <advance width="576"/>
  <unicode hex="00AE"/>
  <outline>
    <contour>
      <point x="288" y="305" type="curve" smooth="yes"/>
      <point x="417" y="305"/>
      <point x="488" y="370"/>
      <point x="488" y="489" type="curve" smooth="yes"/>
      <point x="488" y="519" type="line" smooth="yes"/>
      <point x="488" y="638"/>
      <point x="417" y="703"/>
      <point x="288" y="703" type="curve" smooth="yes"/>
      <point x="159" y="703"/>
      <point x="88" y="638"/>
      <point x="88" y="519" type="curve" smooth="yes"/>
      <point x="88" y="489" type="line" smooth="yes"/>
      <point x="88" y="370"/>
      <point x="159" y="305"/>
    </contour>
    <contour>
      <point x="288" y="321" type="curve" smooth="yes"/>
      <point x="169" y="321"/>
      <point x="104" y="380"/>
      <point x="104" y="490" type="curve" smooth="yes"/>
      <point x="104" y="518" type="line" smooth="yes"/>
      <point x="104" y="628"/>
      <point x="169" y="687"/>
      <point x="288" y="687" type="curve" smooth="yes"/>
      <point x="407" y="687"/>
      <point x="472" y="628"/>
      <point x="472" y="518" type="curve" smooth="yes"/>
      <point x="472" y="490" type="line" smooth="yes"/>
      <point x="472" y="380"/>
      <point x="407" y="321"/>
    </contour>
    <contour>
      <point x="226" y="395" type="curve" smooth="yes"/>
      <point x="238" y="395" type="line" smooth="yes"/>
      <point x="239" y="395"/>
      <point x="240" y="396"/>
      <point x="240" y="398" type="curve" smooth="yes"/>
      <point x="240" y="494" type="line"/>
      <point x="296" y="494" type="line"/>
      <point x="357" y="397" type="line" smooth="yes"/>
      <point x="358" y="396"/>
      <point x="359" y="395"/>
      <point x="361" y="395" type="curve" smooth="yes"/>
      <point x="374" y="395" type="line" smooth="yes"/>
      <point x="376" y="395"/>
      <point x="377" y="396"/>
      <point x="376" y="398" type="curve" smooth="yes"/>
      <point x="315" y="497" type="line"/>
      <point x="348" y="503"/>
      <point x="365" y="525"/>
      <point x="365" y="557" type="curve" smooth="yes"/>
      <point x="365" y="598"/>
      <point x="339" y="618"/>
      <point x="290" y="618" type="curve" smooth="yes"/>
      <point x="226" y="618" type="line" smooth="yes"/>
      <point x="225" y="618"/>
      <point x="224" y="617"/>
      <point x="224" y="616" type="curve" smooth="yes"/>
      <point x="224" y="398" type="line" smooth="yes"/>
      <point x="224" y="396"/>
      <point x="225" y="395"/>
    </contour>
    <contour>
      <point x="240" y="510" type="line"/>
      <point x="240" y="602" type="line"/>
      <point x="290" y="602" type="line" smooth="yes"/>
      <point x="329" y="602"/>
      <point x="349" y="586"/>
      <point x="349" y="557" type="curve" smooth="yes"/>
      <point x="349" y="554" type="line" smooth="yes"/>
      <point x="349" y="528"/>
      <point x="329" y="510"/>
      <point x="288" y="510" type="curve" smooth="yes"/>
    </contour>
  </outline>
</glyph>
<glyph name="degree" format="2">
  <advance width="388"/>
  <unicode hex="00B0"/>
  <outline>
    <contour>
      <point x="194" y="424" type="curve" smooth="yes"/>
      <point x="276" y="424"/>
      <point x="320" y="477"/>
      <point x="320" y="555" type="curve" smooth="yes"/>
      <point x="320" y="564" type="line" smooth="yes"/>
      <point x="320" y="642"/>
      <point x="276" y="695"/>
      <point x="194" y="695" type="curve" smooth="yes"/>
      <point x="112" y="695"/>
      <point x="68" y="642"/>
      <point x="68" y="564" type="curve" smooth="yes"/>
      <point x="68" y="555" type="line" smooth="yes"/>
      <point x="68" y="477"/>
      <point x="112" y="424"/>
    </contour>
    <contour>
      <point x="194" y="440" type="curve" smooth="yes"/>
      <point x="122" y="440"/>
      <point x="84" y="486"/>
      <point x="84" y="555" type="curve" smooth="yes"/>
      <point x="84" y="564" type="line" smooth="yes"/>
      <point x="84" y="633"/>
      <point x="122" y="679"/>
      <point x="194" y="679" type="curve" smooth="yes"/>
      <point x="266" y="679"/>
      <point x="304" y="633"/>
      <point x="304" y="564" type="curve" smooth="yes"/>
      <point x="304" y="555" type="line" smooth="yes"/>
      <point x="304" y="486"/>
      <point x="266" y="440"/>
    </contour>
  </outline>
</glyph>
<glyph name="plusminus" format="2">
  <advance width="600"/>
  <unicode hex="00B1"/>
  <outline>
    <contour>
      <point x="295" y="185" type="curve" smooth="yes"/>
      <point x="305" y="185" type="line" smooth="yes"/>
      <point x="307" y="185"/>
      <point x="308" y="186"/>
      <point x="308" y="188" type="curve" smooth="yes"/>
      <point x="308" y="353" type="line"/>
      <point x="487" y="353" type="line" smooth="yes"/>
      <point x="489" y="353"/>
      <point x="490" y="354"/>
      <point x="490" y="356" type="curve" smooth="yes"/>
      <point x="490" y="366" type="line" smooth="yes"/>
      <point x="490" y="368"/>
      <point x="489" y="369"/>
      <point x="487" y="369" type="curve" smooth="yes"/>
      <point x="308" y="369" type="line"/>
      <point x="308" y="534" type="line" smooth="yes"/>
      <point x="308" y="536"/>
      <point x="307" y="537"/>
      <point x="305" y="537" type="curve" smooth="yes"/>
      <point x="295" y="537" type="line" smooth="yes"/>
      <point x="293" y="537"/>
      <point x="292" y="536"/>
      <point x="292" y="534" type="curve" smooth="yes"/>
      <point x="292" y="369" type="line"/>
      <point x="113" y="369" type="line" smooth="yes"/>
      <point x="111" y="369"/>
      <point x="110" y="368"/>
      <point x="110" y="366" type="curve" smooth="yes"/>
      <point x="110" y="356" type="line" smooth="yes"/>
      <point x="110" y="354"/>
      <point x="111" y="353"/>
      <point x="113" y="353" type="curve" smooth="yes"/>
      <point x="292" y="353" type="line"/>
      <point x="292" y="188" type="line" smooth="yes"/>
      <point x="292" y="186"/>
      <point x="293" y="185"/>
    </contour>
    <contour>
      <point x="113" y="92" type="curve" smooth="yes"/>
      <point x="487" y="92" type="line" smooth="yes"/>
      <point x="489" y="92"/>
      <point x="490" y="93"/>
      <point x="490" y="95" type="curve" smooth="yes"/>
      <point x="490" y="105" type="line" smooth="yes"/>
      <point x="490" y="107"/>
      <point x="489" y="108"/>
      <point x="487" y="108" type="curve" smooth="yes"/>
      <point x="113" y="108" type="line" smooth="yes"/>
      <point x="111" y="108"/>
      <point x="110" y="107"/>
      <point x="110" y="105" type="curve" smooth="yes"/>
      <point x="110" y="95" type="line" smooth="yes"/>
      <point x="110" y="93"/>
      <point x="111" y="92"/>
    </contour>
  </outline>
</glyph>
<glyph name="paragraph" format="2">
  <advance width="596"/>
  <unicode hex="00B6"/>
  <outline>
    <contour>
      <point x="228" y="-185" type="curve" smooth="yes"/>
      <point x="238" y="-185" type="line" smooth="yes"/>
      <point x="240" y="-185"/>
      <point x="241" y="-184"/>
      <point x="241" y="-182" type="curve" smooth="yes"/>
      <point x="241" y="667" type="line"/>
      <point x="480" y="667" type="line"/>
      <point x="480" y="-182" type="line" smooth="yes"/>
      <point x="480" y="-184"/>
      <point x="481" y="-185"/>
      <point x="483" y="-185" type="curve" smooth="yes"/>
      <point x="493" y="-185" type="line" smooth="yes"/>
      <point x="495" y="-185"/>
      <point x="496" y="-184"/>
      <point x="496" y="-182" type="curve" smooth="yes"/>
      <point x="496" y="680" type="line" smooth="yes"/>
      <point x="496" y="682"/>
      <point x="495" y="683"/>
      <point x="493" y="683" type="curve" smooth="yes"/>
      <point x="180" y="683" type="line" smooth="yes"/>
      <point x="84" y="683"/>
      <point x="38" y="629"/>
      <point x="38" y="538" type="curve" smooth="yes"/>
      <point x="38" y="458" type="line" smooth="yes"/>
      <point x="38" y="369"/>
      <point x="84" y="313"/>
      <point x="180" y="313" type="curve" smooth="yes"/>
      <point x="225" y="313" type="line"/>
      <point x="225" y="-182" type="line" smooth="yes"/>
      <point x="225" y="-184"/>
      <point x="226" y="-185"/>
    </contour>
  </outline>
</glyph>
<glyph name="ordmasculine" format="2">
  <advance width="384"/>
  <unicode hex="00BA"/>
  <outline>
    <contour>
      <point x="192" y="334" type="curve" smooth="yes"/>
      <point x="265" y="334"/>
      <point x="312" y="378"/>
      <point x="312" y="451" type="curve" smooth="yes"/>
      <point x="312" y="550" type="line" smooth="yes"/>
      <point x="312" y="623"/>
      <point x="265" y="667"/>
      <point x="192" y="667" type="curve" smooth="yes"/>
      <point x="119" y="667"/>
      <point x="72" y="623"/>
      <point x="72" y="550" type="curve" smooth="yes"/>
      <point x="72" y="451" type="line" smooth="yes"/>
      <point x="72" y="378"/>
      <point x="119" y="334"/>
    </contour>
    <contour>
      <point x="84" y="238" type="curve" smooth="yes"/>
      <point x="300" y="238" type="line" smooth="yes"/>
      <point x="302" y="238"/>
      <point x="303" y="239"/>
      <point x="303" y="241" type="curve" smooth="yes"/>
      <point x="303" y="251" type="line" smooth="yes"/>
      <point x="303" y="253"/>
      <point x="302" y="254"/>
      <point x="300" y="254" type="curve" smooth="yes"/>
      <point x="84" y="254" type="line" smooth="yes"/>
      <point x="82" y="254"/>
      <point x="81" y="253"/>
      <point x="81" y="251" type="curve" smooth="yes"/>
      <point x="81" y="241" type="line" smooth="yes"/>
      <point x="81" y="239"/>
      <point x="82" y="238"/>
    </contour>
    <contour>
      <point x="192" y="350" type="curve" smooth="yes"/>
      <point x="128" y="350"/>
      <point x="88" y="386"/>
      <point x="88" y="453" type="curve" smooth="yes"/>
      <point x="88" y="548" type="line" smooth="yes"/>
      <point x="88" y="615"/>
      <point x="128" y="651"/>
      <point x="192" y="651" type="curve" smooth="yes"/>
      <point x="256" y="651"/>
      <point x="296" y="615"/>
      <point x="296" y="548" type="curve" smooth="yes"/>
      <point x="296" y="453" type="line" smooth="yes"/>
      <point x="296" y="386"/>
      <point x="256" y="350"/>
    </contour>
  </outline>
</glyph>
